<?xml version="1.0" encoding="UTF-8" standalone="no"?>
<svg
   xmlns:dc="http://purl.org/dc/elements/1.1/"
   xmlns:cc="http://creativecommons.org/ns#"
   xmlns:rdf="http://www.w3.org/1999/02/22-rdf-syntax-ns#"
   xmlns:svg="http://www.w3.org/2000/svg"
   xmlns="http://www.w3.org/2000/svg"
   version="1.1"
   x="0px"
   y="0px"
   viewBox="0.001 18.527 195.37249 168.44368"
   enable-background="new 0.001 18.527 100 62.945"
   xml:space="preserve"
   id="svg2"
   width="195.37248"
   height="168.44368"><metadata
     id="metadata14"><rdf:RDF><cc:Work
         rdf:about=""><dc:format>image/svg+xml</dc:format><dc:type
           rdf:resource="http://purl.org/dc/dcmitype/StillImage" /><dc:title></dc:title></cc:Work></rdf:RDF></metadata><defs
     id="defs12"><style
       id="style21672">

      .cls-3 {
        fill: #2d2d2d;
      }
    </style></defs><path
     id="path4166"
     d="m 63.173552,130.527 c -0.462,0 -0.923281,0.0793 -1.363281,0.23828 l -32.283203,11.64258 c -0.876,-0.062 -1.766157,-0.0937 -2.660156,-0.0937 -3.820001,0 -7.444172,0.56022 -10.201172,1.57422 -5.777001,2.126 -6.640626,5.77281 -6.640626,7.75781 l 0,4.83789 c -0.1253543,2.01594 0.260074,3.98387 0.646366,5.03707 0.202,0.431 0.46286,0.83942 0.75586,1.23242 0.155,0.20901 0.312187,0.41533 0.492187,0.61133 0.147,0.161 0.308703,0.3128 0.470703,0.4668 0.703,0.66 1.553922,1.24686 2.544922,1.75586 0.002,0.002 0.0039,0.003 0.0059,0.004 0.099,0.052 0.198782,0.10044 0.300782,0.14844 0.003,0.002 0.0077,0.004 0.01172,0.006 0.189,0.091 0.374265,0.18748 0.572265,0.27148 0.001,0.001 0.0039,9.5e-4 0.0059,0.002 8.175969,2.23864 10.589348,3.9113 16.455078,6.95898 0.006,0.005 0.01353,0.009 0.01953,0.0137 0.372,0.273 0.76764,0.52849 1.18164,0.77149 0.055,0.031 0.116875,0.0608 0.171875,0.0918 3.912,2.215 9.566672,3.11523 14.888672,3.11523 6.184,0 12.816672,-1.21478 16.638672,-4.30078 0.313,-0.254 0.606859,-0.51887 0.880859,-0.79687 1.011,-1.031 1.756469,-2.22877 2.105469,-3.63477 l 21.339844,-7.69726 0.435547,-0.15625 3.769531,-1.36133 1.730469,-0.62305 0.435547,-0.15625 2.322265,-0.83789 c 0.41,-0.148 0.782282,-0.35914 1.113281,-0.61914 0.720002,-0.563 1.219682,-1.35891 1.429682,-2.25391 l 0.11524,-2.20137 0,-5.63652 c 0,-1.697 -1.063156,-3.21111 -2.660156,-3.78711 L 64.54074,130.76528 c -0.44,-0.159 -0.904188,-0.23828 -1.367188,-0.23828 z m -0.0059,4.03516 33.662109,12.14062 -3.447266,1.24414 -9.277343,3.34571 -3.771485,1.36132 -0.433593,0.1543 -1.730469,0.625 -3.769531,1.35938 -0.435547,0.15625 -4.644532,1.67578 -0.0098,0.002 -5.105469,1.84179 c 0.097,0.322 0.162109,0.65486 0.16211,1.00586 0,0.259 -0.03094,0.51086 -0.08594,0.75586 -0.018,0.08 -0.04927,0.15638 -0.07227,0.23438 -0.049,0.161 -0.100875,0.32061 -0.171875,0.47461 -0.039,0.089 -0.09358,0.17276 -0.142578,0.25976 -0.075,0.137 -0.154047,0.2733 -0.248047,0.4043 -0.063,0.086 -0.133125,0.1709 -0.203125,0.2539 -0.102,0.125 -0.210125,0.24724 -0.328125,0.36524 -0.081,0.081 -0.163906,0.16223 -0.253906,0.24023 -0.129,0.115 -0.267203,0.22894 -0.408203,0.33594 -0.099,0.074 -0.193875,0.14675 -0.296875,0.21875 -0.158,0.108 -0.325141,0.21245 -0.494141,0.31445 -0.107,0.063 -0.212218,0.13041 -0.324218,0.19141 -0.19,0.104 -0.39561,0.20373 -0.59961,0.30273 -0.107,0.053 -0.209312,0.10626 -0.320312,0.15625 -0.258,0.115 -0.530594,0.22608 -0.808594,0.33008 -0.07,0.027 -0.135031,0.059 -0.207031,0.084 -0.35,0.128 -0.714844,0.24833 -1.089844,0.36133 -0.134,0.04 -0.275109,0.0743 -0.412109,0.11133 -0.249,0.07 -0.496907,0.14112 -0.753907,0.20312 -0.182,0.045 -0.368734,0.0849 -0.552734,0.12696 -0.222,0.049 -0.443922,0.0985 -0.669922,0.14453 -0.208,0.041 -0.419812,0.0782 -0.632812,0.11523 -0.21,0.038 -0.421719,0.0725 -0.636719,0.10547 -0.232,0.036 -0.465172,0.0695 -0.701172,0.10352 -0.198,0.026 -0.396703,0.0522 -0.595703,0.0762 -0.255,0.03 -0.512485,0.061 -0.771484,0.084 -0.178,0.018 -0.35611,0.0318 -0.53711,0.0488 -0.284,0.022 -0.567469,0.0445 -0.855469,0.0625 -0.141,0.009 -0.282828,0.0155 -0.423828,0.0215 -0.327,0.019 -0.653422,0.033 -0.982422,0.043 -0.045,0.002 -0.08877,0.002 -0.134765,0.002 -3.924,0.102 -7.938266,-0.33837 -11.072266,-1.31837 -0.004,-0.001 -0.0077,-9.5e-4 -0.01172,-0.002 -0.325,-0.103 -0.640312,-0.21217 -0.945312,-0.32617 -0.064,-0.022 -0.125453,-0.0473 -0.189453,-0.0723 -0.242,-0.093 -0.477125,-0.18901 -0.703125,-0.29101 -0.083,-0.037 -0.167047,-0.0753 -0.248047,-0.11329 -0.2,-0.094 -0.392125,-0.18906 -0.578125,-0.28906 -0.086,-0.047 -0.17286,-0.0936 -0.255859,-0.14062 -0.173,-0.1 -0.337047,-0.20169 -0.498047,-0.30469 -0.08,-0.054 -0.161328,-0.1033 -0.236329,-0.1543 -0.16,-0.112 -0.307171,-0.22965 -0.451171,-0.34765 -0.061,-0.049 -0.126594,-0.0965 -0.183594,-0.14649 -3.767959,-2.50509 -8.399731,-4.93443 -11.960938,-5.84961 -0.104,-0.015 -0.207546,-0.0289 -0.310547,-0.0449 -0.089,-0.014 -0.176625,-0.0309 -0.265624,-0.0449 -0.183,-0.03 -0.363969,-0.0588 -0.542969,-0.0918 -0.062,-0.011 -0.126453,-0.0212 -0.189453,-0.0332 -0.318,-0.062 -0.628547,-0.12817 -0.935547,-0.20117 -0.083,-0.02 -0.164094,-0.0415 -0.246094,-0.0625 -0.232,-0.059 -0.461594,-0.11959 -0.683594,-0.18359 -0.082,-0.029 -0.166,-0.0531 -0.25,-0.0781 -0.287,-0.088 -0.567937,-0.17935 -0.835937,-0.27735 -0.008,-0.003 -0.01448,-0.007 -0.02149,-0.01 -0.261,-0.097 -0.508,-0.20064 -0.75,-0.30664 -0.071,-0.032 -0.141937,-0.0637 -0.210937,-0.0977 -0.187,-0.087 -0.364109,-0.17748 -0.53711,-0.27148 -0.057,-0.032 -0.116875,-0.0618 -0.171874,-0.0937 -0.214001,-0.124 -0.418423,-0.25172 -0.607423,-0.38672 -0.036,-0.025 -0.06752,-0.0541 -0.103515,-0.0801 -0.075,-0.056 -0.139985,-0.11387 -0.208985,-0.17187 -0.073,-0.06 -0.148797,-0.11674 -0.216797,-0.17774 -0.047,-0.043 -0.09563,-0.0869 -0.140625,-0.13086 -0.126,-0.125 -0.240703,-0.25276 -0.345703,-0.38476 -0.023,-0.029 -0.05222,-0.0589 -0.07422,-0.0879 -0.12,-0.16 -0.22064,-0.32605 -0.30664,-0.49805 -0.022,-0.044 -0.03959,-0.0888 -0.05859,-0.13477 -0.061,-0.136 -0.109438,-0.27301 -0.148438,-0.41601 -0.014,-0.053 -0.02902,-0.10616 -0.04102,-0.16016 -0.04,-0.188 -0.06445,-0.37717 -0.06445,-0.57617 10e-4,-0.241 0.03675,-0.47222 0.09375,-0.69922 0.019,-0.073 0.05117,-0.14189 0.07617,-0.21289 0.051,-0.149 0.107594,-0.2965 0.183594,-0.4375 0.042,-0.08 0.09453,-0.15447 0.144531,-0.23047 0.042,-0.063 0.08977,-0.1245 0.134766,-0.1875 0.045,-0.062 0.08767,-0.12554 0.138672,-0.18554 0.062,-0.075 0.127265,-0.14771 0.197265,-0.22071 0.056,-0.059 0.124547,-0.11392 0.185547,-0.16992 0.062,-0.056 0.117594,-0.11492 0.183594,-0.16992 0.078,-0.065 0.154281,-0.13331 0.238281,-0.19531 0.154,-0.116 0.321094,-0.22599 0.496094,-0.33399 0.078,-0.049 0.152375,-0.10144 0.234375,-0.14844 0.132,-0.077 0.279969,-0.14384 0.417969,-0.21484 0.14,-0.073 0.271922,-0.1488 0.419921,-0.2168 0.01,-0.004 0.02125,-0.009 0.03125,-0.0137 0.003,-10e-4 0.0058,-0.002 0.0098,-0.004 0.288,-0.129 0.592203,-0.25123 0.908203,-0.36523 0.107,-0.038 0.222032,-0.0724 0.332031,-0.10938 0.001,0 0.0029,10e-4 0.0039,0 0.229,-0.078 0.461125,-0.15365 0.703125,-0.22265 0.136,-0.039 0.275062,-0.0734 0.414062,-0.10938 l 0.002,0 c 0.23,-0.061 0.465078,-0.11887 0.705079,-0.17187 l 0.002,0 c 0.148,-0.034 0.296265,-0.0657 0.447265,-0.0977 l 0.002,0 c 0.083,-0.017 0.167953,-0.0309 0.251953,-0.0469 0.167,-0.032 0.333907,-0.0638 0.503907,-0.0937 0.149,-0.025 0.295265,-0.0522 0.447265,-0.0762 l 0.002,0 c 0.082,-0.012 0.164093,-0.0222 0.246093,-0.0332 0.205,-0.03 0.408188,-0.06 0.617188,-0.084 0.127,-0.016 0.251906,-0.0348 0.378906,-0.0488 0.422,-0.046 0.85025,-0.0852 1.28125,-0.11524 0.03,-0.002 0.05984,-0.002 0.08984,-0.006 l 0.002,0 c 0.4,-0.026 0.803031,-0.0466 1.207031,-0.0586 0.144,-0.004 0.287641,-0.004 0.431641,-0.006 0.279,-0.005 0.557937,-0.009 0.835937,-0.008 0.342,0.002 0.684391,0.0114 1.025391,0.0234 0.164,0.005 0.329187,0.008 0.492187,0.0156 0.502,0.025 0.999188,0.0595 1.492188,0.10547 z" /><g
     style="fill:#9c3a63;fill-opacity:0.99215686"
     id="g21762"
     transform="matrix(0.59389129,-0.13170149,0.25922318,0.43396953,28.925997,109.30183)"><path
       style="fill:#9c3a63;fill-opacity:0.99215686"
       id="path21764"
       d="M 61.9,26.1 C 58.1,26 54.4,26.7 50.9,28.3 47.5,26.5 43.9,25.5 40.1,25.4 25.5,24.8 13,37.6 12.5,53.9 12,70.2 23.4,83.8 38.1,84.3 L 59.9,85 C 74.5,85.5 87,72.7 87.5,56.5 88,40.3 76.6,26.6 61.9,26.1 Z M 60,82 38.2,81.2 C 25.1,80.8 15,68.6 15.5,54 16,39.4 27,27.9 40,28.3 c 3.6,0.1 7,1.1 10.1,2.9 l 0.7,0.4 0.7,-0.4 C 54.8,29.6 58.2,28.9 61.8,29 74.8,29.5 85,41.7 84.5,56.3 84,71 73,82.5 60,82 Z" /><path
       style="fill:#9c3a63;fill-opacity:0.99215686"
       id="path21766"
       d="m 37.7,37.1 c -7.8,-0.3 -14.5,8.6 -14.8,19.8 -0.4,11.2 11.2,20.7 18.9,21 2.9,0.1 4.5,-3.6 4.8,-10.8 0.2,-10.5 -2.8,-29.8 -8.9,-30 z m 5.9,36.7 c -0.3,1 -0.9,2.2 -1.8,2.1 -6.8,-0.2 -17.4,-9 -17.1,-19 0.4,-10.1 6.1,-18.2 12.9,-18 3.6,0.1 7.4,15.6 7,28 -0.1,3 -0.4,5.3 -1,6.9 z" /><path
       style="fill:#9c3a63;fill-opacity:0.99215686"
       id="path21768"
       d="m 63.9,38 c -3.4,-0.1 -6,5.6 -7.6,10.5 -1.8,5.8 -3.1,13 -3.3,18.8 -0.3,7.2 1.1,11 4,11.1 C 64.7,78.7 76.9,70 77.3,58.8 77.7,47.6 71.7,38.3 63.9,38 Z M 57,76.5 C 55.8,76.5 54.6,74 54.8,67.3 55,61.6 56.2,54.6 58,49 c 2.2,-6.8 4.4,-9.2 5.7,-9.2 6.8,0.2 12,8.7 11.6,18.8 C 75.1,68.7 63.9,76.8 57,76.5 Z" /><path
       style="fill:#9c3a63;fill-opacity:0.99215686"
       id="path21770"
       d="m 59.3,60.3 c -0.3,-0.6 -1,-0.8 -1.5,-0.5 -0.9,0.5 -1.3,2 -1.3,2 0,0 1.5,0.5 2.4,0.1 0.5,-0.3 0.7,-1 0.4,-1.6 z" /><path
       style="fill:#9c3a63;fill-opacity:0.99215686"
       id="path21772"
       d="m 58.7,62.9 c -1,-0.3 -2.3,0.6 -2.3,0.6 0,0 0.7,1.4 1.7,1.7 0.6,0.2 1.2,-0.2 1.4,-0.8 0.2,-0.6 -0.3,-1.3 -0.8,-1.5 z" /><path
       style="fill:#9c3a63;fill-opacity:0.99215686"
       id="path21774"
       d="m 56.4,65.1 c 0,0 -0.3,1.6 0.2,2.4 0.3,0.5 1.1,0.6 1.6,0.2 0.5,-0.4 0.7,-1.1 0.3,-1.6 -0.6,-0.8 -2.1,-1 -2.1,-1 z" /><path
       style="fill:#9c3a63;fill-opacity:0.99215686"
       id="path21776"
       d="m 60.1,53.1 c 0.5,-0.3 0.7,-1 0.4,-1.5 -0.3,-0.6 -1,-0.8 -1.5,-0.5 -0.9,0.5 -1.3,2 -1.3,2 0,0 1.5,0.4 2.4,0 z" /><path
       style="fill:#9c3a63;fill-opacity:0.99215686"
       id="path21778"
       d="m 59.9,54.1 c -1,-0.3 -2.3,0.6 -2.3,0.6 0,0 0.7,1.4 1.7,1.7 0.6,0.2 1.2,-0.2 1.4,-0.8 0.1,-0.7 -0.2,-1.4 -0.8,-1.5 z" /><path
       style="fill:#9c3a63;fill-opacity:0.99215686"
       id="path21780"
       d="m 57.6,56.3 c 0,0 -0.3,1.6 0.2,2.4 0.3,0.5 1.1,0.6 1.6,0.2 0.5,-0.4 0.7,-1.1 0.3,-1.6 -0.5,-0.8 -2.1,-1 -2.1,-1 z" /><path
       style="fill:#9c3a63;fill-opacity:0.99215686"
       id="path21782"
       d="m 42.3,60.8 c -0.5,-0.3 -1.2,-0.1 -1.5,0.4 -0.3,0.6 -0.2,1.3 0.3,1.6 0.8,0.5 2.4,0.1 2.4,0.1 0,0 -0.3,-1.6 -1.2,-2.1 z" /><path
       style="fill:#9c3a63;fill-opacity:0.99215686"
       id="path21784"
       d="m 41.3,63.8 c -0.6,0.1 -0.9,0.7 -0.8,1.4 0.1,0.7 0.7,1.1 1.3,0.9 1,-0.2 1.8,-1.6 1.8,-1.6 0,0 -1.4,-0.9 -2.3,-0.7 z" /><path
       style="fill:#9c3a63;fill-opacity:0.99215686"
       id="path21786"
       d="m 41.2,67 c -0.4,0.5 -0.3,1.2 0.2,1.6 0.5,0.4 1.2,0.4 1.6,-0.1 0.6,-0.8 0.4,-2.3 0.4,-2.3 0,0 -1.6,0.1 -2.2,0.8 z" /><path
       style="fill:#9c3a63;fill-opacity:0.99215686"
       id="path21788"
       d="m 40.5,53.9 c 0.8,0.5 2.4,0.1 2.4,0.1 0,0 -0.3,-1.6 -1.1,-2.1 -0.5,-0.3 -1.2,-0.1 -1.5,0.4 -0.4,0.6 -0.3,1.3 0.2,1.6 z" /><path
       style="fill:#9c3a63;fill-opacity:0.99215686"
       id="path21790"
       d="m 41.1,57.2 c 1,-0.2 1.8,-1.6 1.8,-1.6 0,0 -1.3,-0.9 -2.3,-0.7 -0.6,0.1 -0.9,0.7 -0.8,1.4 0.2,0.6 0.8,1 1.3,0.9 z" /><path
       style="fill:#9c3a63;fill-opacity:0.99215686"
       id="path21792"
       d="m 40.8,59.7 c 0.5,0.4 1.2,0.4 1.6,-0.1 0.6,-0.8 0.4,-2.3 0.4,-2.3 0,0 -1.6,0.1 -2.2,0.8 -0.4,0.5 -0.3,1.2 0.2,1.6 z" /></g><path
     style="opacity:1;fill:#ffffff;fill-opacity:1;stroke:none;stroke-width:5;stroke-linecap:round;stroke-linejoin:round;stroke-miterlimit:4;stroke-dasharray:none;stroke-dashoffset:0;stroke-opacity:1;paint-order:normal"
     d="m 45.74202,155.81324 c -1.713499,-0.52627 -3.555283,-2.37735 -4.021217,-4.0415 -1.948737,-6.96021 7.318203,-17.73709 17.717262,-20.60408 2.616281,-0.72131 5.64807,-0.74462 7.4294,-0.0571 l 1.29034,0.498 2.19358,-0.75674 c 2.79128,-0.96293 6.18223,-1.20667 8.27357,-0.59471 3.89613,1.14008 5.50749,4.83067 4.02895,9.22775 -2.3071,6.86117 -9.48311,13.29133 -17.25063,15.45766 -1.411529,0.39368 -3.55847,0.62382 -8.471439,0.90808 -8.00848,0.46339 -9.576561,0.45816 -11.189816,-0.0373 z"
     id="path21933" /><g
     style="fill:#9c3a63;fill-opacity:0.99215686"
     transform="matrix(0.57394845,-0.04872812,-0.22776181,0.48883812,46.204502,118.54433)"
     id="g21794"><path
       style="fill:#9c3a63;fill-opacity:0.99215686"
       d="M 61.9,26.1 C 58.1,26 54.4,26.7 50.9,28.3 47.5,26.5 43.9,25.5 40.1,25.4 25.5,24.8 13,37.6 12.5,53.9 12,70.2 23.4,83.8 38.1,84.3 L 59.9,85 C 74.5,85.5 87,72.7 87.5,56.5 88,40.3 76.6,26.6 61.9,26.1 Z M 60,82 38.2,81.2 C 25.1,80.8 15,68.6 15.5,54 16,39.4 27,27.9 40,28.3 c 3.6,0.1 7,1.1 10.1,2.9 l 0.7,0.4 0.7,-0.4 C 54.8,29.6 58.2,28.9 61.8,29 74.8,29.5 85,41.7 84.5,56.3 84,71 73,82.5 60,82 Z"
       id="path21796" /><path
       style="fill:#9c3a63;fill-opacity:0.99215686"
       d="m 37.7,37.1 c -7.8,-0.3 -14.5,8.6 -14.8,19.8 -0.4,11.2 11.2,20.7 18.9,21 2.9,0.1 4.5,-3.6 4.8,-10.8 0.2,-10.5 -2.8,-29.8 -8.9,-30 z m 5.9,36.7 c -0.3,1 -0.9,2.2 -1.8,2.1 -6.8,-0.2 -17.4,-9 -17.1,-19 0.4,-10.1 6.1,-18.2 12.9,-18 3.6,0.1 7.4,15.6 7,28 -0.1,3 -0.4,5.3 -1,6.9 z"
       id="path21798" /><path
       style="fill:#9c3a63;fill-opacity:0.99215686"
       d="m 63.9,38 c -3.4,-0.1 -6,5.6 -7.6,10.5 -1.8,5.8 -3.1,13 -3.3,18.8 -0.3,7.2 1.1,11 4,11.1 C 64.7,78.7 76.9,70 77.3,58.8 77.7,47.6 71.7,38.3 63.9,38 Z M 57,76.5 C 55.8,76.5 54.6,74 54.8,67.3 55,61.6 56.2,54.6 58,49 c 2.2,-6.8 4.4,-9.2 5.7,-9.2 6.8,0.2 12,8.7 11.6,18.8 C 75.1,68.7 63.9,76.8 57,76.5 Z"
       id="path21800" /><path
       style="fill:#9c3a63;fill-opacity:0.99215686"
       d="m 59.3,60.3 c -0.3,-0.6 -1,-0.8 -1.5,-0.5 -0.9,0.5 -1.3,2 -1.3,2 0,0 1.5,0.5 2.4,0.1 0.5,-0.3 0.7,-1 0.4,-1.6 z"
       id="path21802" /><path
       style="fill:#9c3a63;fill-opacity:0.99215686"
       d="m 58.7,62.9 c -1,-0.3 -2.3,0.6 -2.3,0.6 0,0 0.7,1.4 1.7,1.7 0.6,0.2 1.2,-0.2 1.4,-0.8 0.2,-0.6 -0.3,-1.3 -0.8,-1.5 z"
       id="path21804" /><path
       style="fill:#9c3a63;fill-opacity:0.99215686"
       d="m 56.4,65.1 c 0,0 -0.3,1.6 0.2,2.4 0.3,0.5 1.1,0.6 1.6,0.2 0.5,-0.4 0.7,-1.1 0.3,-1.6 -0.6,-0.8 -2.1,-1 -2.1,-1 z"
       id="path21806" /><path
       style="fill:#9c3a63;fill-opacity:0.99215686"
       d="m 60.1,53.1 c 0.5,-0.3 0.7,-1 0.4,-1.5 -0.3,-0.6 -1,-0.8 -1.5,-0.5 -0.9,0.5 -1.3,2 -1.3,2 0,0 1.5,0.4 2.4,0 z"
       id="path21808" /><path
       style="fill:#9c3a63;fill-opacity:0.99215686"
       d="m 59.9,54.1 c -1,-0.3 -2.3,0.6 -2.3,0.6 0,0 0.7,1.4 1.7,1.7 0.6,0.2 1.2,-0.2 1.4,-0.8 0.1,-0.7 -0.2,-1.4 -0.8,-1.5 z"
       id="path21810" /><path
       style="fill:#9c3a63;fill-opacity:0.99215686"
       d="m 57.6,56.3 c 0,0 -0.3,1.6 0.2,2.4 0.3,0.5 1.1,0.6 1.6,0.2 0.5,-0.4 0.7,-1.1 0.3,-1.6 -0.5,-0.8 -2.1,-1 -2.1,-1 z"
       id="path21812" /><path
       style="fill:#9c3a63;fill-opacity:0.99215686"
       d="m 42.3,60.8 c -0.5,-0.3 -1.2,-0.1 -1.5,0.4 -0.3,0.6 -0.2,1.3 0.3,1.6 0.8,0.5 2.4,0.1 2.4,0.1 0,0 -0.3,-1.6 -1.2,-2.1 z"
       id="path21814" /><path
       style="fill:#9c3a63;fill-opacity:0.99215686"
       d="m 41.3,63.8 c -0.6,0.1 -0.9,0.7 -0.8,1.4 0.1,0.7 0.7,1.1 1.3,0.9 1,-0.2 1.8,-1.6 1.8,-1.6 0,0 -1.4,-0.9 -2.3,-0.7 z"
       id="path21816" /><path
       style="fill:#9c3a63;fill-opacity:0.99215686"
       d="m 41.2,67 c -0.4,0.5 -0.3,1.2 0.2,1.6 0.5,0.4 1.2,0.4 1.6,-0.1 0.6,-0.8 0.4,-2.3 0.4,-2.3 0,0 -1.6,0.1 -2.2,0.8 z"
       id="path21818" /><path
       style="fill:#9c3a63;fill-opacity:0.99215686"
       d="m 40.5,53.9 c 0.8,0.5 2.4,0.1 2.4,0.1 0,0 -0.3,-1.6 -1.1,-2.1 -0.5,-0.3 -1.2,-0.1 -1.5,0.4 -0.4,0.6 -0.3,1.3 0.2,1.6 z"
       id="path21820" /><path
       style="fill:#9c3a63;fill-opacity:0.99215686"
       d="m 41.1,57.2 c 1,-0.2 1.8,-1.6 1.8,-1.6 0,0 -1.3,-0.9 -2.3,-0.7 -0.6,0.1 -0.9,0.7 -0.8,1.4 0.2,0.6 0.8,1 1.3,0.9 z"
       id="path21822" /><path
       style="fill:#9c3a63;fill-opacity:0.99215686"
       d="m 40.8,59.7 c 0.5,0.4 1.2,0.4 1.6,-0.1 0.6,-0.8 0.4,-2.3 0.4,-2.3 0,0 -1.6,0.1 -2.2,0.8 -0.4,0.5 -0.3,1.2 0.2,1.6 z"
       id="path21824" /></g><path
     style="opacity:1;fill:#ffffff;fill-opacity:1;stroke:none;stroke-width:9.2557497;stroke-linecap:round;stroke-linejoin:round;stroke-miterlimit:4;stroke-dasharray:none;stroke-dashoffset:0;stroke-opacity:1;paint-order:normal"
     d="m 40.419804,149.773 c -2.840904,-0.35549 -15.45575,-3.22566 -16.788198,-3.8197 -3.742453,-1.66852 -4.832322,-4.85214 -3.017851,-8.81546 0.679414,-1.48404 1.838042,-2.97886 3.715,-4.79298 8.001031,-7.73313 22.001217,-10.97878 28.228906,-6.54428 0.852325,0.60691 1.649657,0.73722 4.521394,0.73893 3.914276,0.002 5.621796,0.36796 7.41341,1.58738 2.053798,1.39786 2.791702,2.69975 2.762774,4.87437 -0.09621,7.23178 -12.201169,15.86169 -23.477796,16.73787 -1.231134,0.0957 -2.742073,0.1109 -3.357639,0.0339 z"
     id="path21860" /><g
     style="fill:#9c3a63;fill-opacity:0.99215686"
     id="g21730"
     transform="matrix(0.57852532,0.10608662,-0.40245828,0.43062202,35.908568,107.81638)"><path
       style="fill:#9c3a63;fill-opacity:0.99215686"
       id="path21732"
       d="M 61.9,26.1 C 58.1,26 54.4,26.7 50.9,28.3 47.5,26.5 43.9,25.5 40.1,25.4 25.5,24.8 13,37.6 12.5,53.9 12,70.2 23.4,83.8 38.1,84.3 L 59.9,85 C 74.5,85.5 87,72.7 87.5,56.5 88,40.3 76.6,26.6 61.9,26.1 Z M 60,82 38.2,81.2 C 25.1,80.8 15,68.6 15.5,54 16,39.4 27,27.9 40,28.3 c 3.6,0.1 7,1.1 10.1,2.9 l 0.7,0.4 0.7,-0.4 C 54.8,29.6 58.2,28.9 61.8,29 74.8,29.5 85,41.7 84.5,56.3 84,71 73,82.5 60,82 Z" /><path
       style="fill:#9c3a63;fill-opacity:0.99215686"
       id="path21734"
       d="m 37.7,37.1 c -7.8,-0.3 -14.5,8.6 -14.8,19.8 -0.4,11.2 11.2,20.7 18.9,21 2.9,0.1 4.5,-3.6 4.8,-10.8 0.2,-10.5 -2.8,-29.8 -8.9,-30 z m 5.9,36.7 c -0.3,1 -0.9,2.2 -1.8,2.1 -6.8,-0.2 -17.4,-9 -17.1,-19 0.4,-10.1 6.1,-18.2 12.9,-18 3.6,0.1 7.4,15.6 7,28 -0.1,3 -0.4,5.3 -1,6.9 z" /><path
       style="fill:#9c3a63;fill-opacity:0.99215686"
       id="path21736"
       d="m 63.9,38 c -3.4,-0.1 -6,5.6 -7.6,10.5 -1.8,5.8 -3.1,13 -3.3,18.8 -0.3,7.2 1.1,11 4,11.1 C 64.7,78.7 76.9,70 77.3,58.8 77.7,47.6 71.7,38.3 63.9,38 Z M 57,76.5 C 55.8,76.5 54.6,74 54.8,67.3 55,61.6 56.2,54.6 58,49 c 2.2,-6.8 4.4,-9.2 5.7,-9.2 6.8,0.2 12,8.7 11.6,18.8 C 75.1,68.7 63.9,76.8 57,76.5 Z" /><path
       style="fill:#9c3a63;fill-opacity:0.99215686"
       id="path21738"
       d="m 59.3,60.3 c -0.3,-0.6 -1,-0.8 -1.5,-0.5 -0.9,0.5 -1.3,2 -1.3,2 0,0 1.5,0.5 2.4,0.1 0.5,-0.3 0.7,-1 0.4,-1.6 z" /><path
       style="fill:#9c3a63;fill-opacity:0.99215686"
       id="path21740"
       d="m 58.7,62.9 c -1,-0.3 -2.3,0.6 -2.3,0.6 0,0 0.7,1.4 1.7,1.7 0.6,0.2 1.2,-0.2 1.4,-0.8 0.2,-0.6 -0.3,-1.3 -0.8,-1.5 z" /><path
       style="fill:#9c3a63;fill-opacity:0.99215686"
       id="path21742"
       d="m 56.4,65.1 c 0,0 -0.3,1.6 0.2,2.4 0.3,0.5 1.1,0.6 1.6,0.2 0.5,-0.4 0.7,-1.1 0.3,-1.6 -0.6,-0.8 -2.1,-1 -2.1,-1 z" /><path
       style="fill:#9c3a63;fill-opacity:0.99215686"
       id="path21744"
       d="m 60.1,53.1 c 0.5,-0.3 0.7,-1 0.4,-1.5 -0.3,-0.6 -1,-0.8 -1.5,-0.5 -0.9,0.5 -1.3,2 -1.3,2 0,0 1.5,0.4 2.4,0 z" /><path
       style="fill:#9c3a63;fill-opacity:0.99215686"
       id="path21746"
       d="m 59.9,54.1 c -1,-0.3 -2.3,0.6 -2.3,0.6 0,0 0.7,1.4 1.7,1.7 0.6,0.2 1.2,-0.2 1.4,-0.8 0.1,-0.7 -0.2,-1.4 -0.8,-1.5 z" /><path
       style="fill:#9c3a63;fill-opacity:0.99215686"
       id="path21748"
       d="m 57.6,56.3 c 0,0 -0.3,1.6 0.2,2.4 0.3,0.5 1.1,0.6 1.6,0.2 0.5,-0.4 0.7,-1.1 0.3,-1.6 -0.5,-0.8 -2.1,-1 -2.1,-1 z" /><path
       style="fill:#9c3a63;fill-opacity:0.99215686"
       id="path21750"
       d="m 42.3,60.8 c -0.5,-0.3 -1.2,-0.1 -1.5,0.4 -0.3,0.6 -0.2,1.3 0.3,1.6 0.8,0.5 2.4,0.1 2.4,0.1 0,0 -0.3,-1.6 -1.2,-2.1 z" /><path
       style="fill:#9c3a63;fill-opacity:0.99215686"
       id="path21752"
       d="m 41.3,63.8 c -0.6,0.1 -0.9,0.7 -0.8,1.4 0.1,0.7 0.7,1.1 1.3,0.9 1,-0.2 1.8,-1.6 1.8,-1.6 0,0 -1.4,-0.9 -2.3,-0.7 z" /><path
       style="fill:#9c3a63;fill-opacity:0.99215686"
       id="path21754"
       d="m 41.2,67 c -0.4,0.5 -0.3,1.2 0.2,1.6 0.5,0.4 1.2,0.4 1.6,-0.1 0.6,-0.8 0.4,-2.3 0.4,-2.3 0,0 -1.6,0.1 -2.2,0.8 z" /><path
       style="fill:#9c3a63;fill-opacity:0.99215686"
       id="path21756"
       d="m 40.5,53.9 c 0.8,0.5 2.4,0.1 2.4,0.1 0,0 -0.3,-1.6 -1.1,-2.1 -0.5,-0.3 -1.2,-0.1 -1.5,0.4 -0.4,0.6 -0.3,1.3 0.2,1.6 z" /><path
       style="fill:#9c3a63;fill-opacity:0.99215686"
       id="path21758"
       d="m 41.1,57.2 c 1,-0.2 1.8,-1.6 1.8,-1.6 0,0 -1.3,-0.9 -2.3,-0.7 -0.6,0.1 -0.9,0.7 -0.8,1.4 0.2,0.6 0.8,1 1.3,0.9 z" /><path
       style="fill:#9c3a63;fill-opacity:0.99215686"
       id="path21760"
       d="m 40.8,59.7 c 0.5,0.4 1.2,0.4 1.6,-0.1 0.6,-0.8 0.4,-2.3 0.4,-2.3 0,0 -1.6,0.1 -2.2,0.8 -0.4,0.5 -0.3,1.2 0.2,1.6 z" /></g><g
     id="g21699"
     transform="matrix(0.52879785,0.32544057,-0.42978518,0.40041463,38.789136,88.244446)"><g
       id="g21674"><path
         id="path21676"
         class="cls-3"
         d="m 20.998,63.008 c 0,0 -0.001,0 -0.001,0 -2.395,0 -4.933,-1.234 -5.215,-1.374 -0.08,-0.04 -0.157,-0.088 -0.229,-0.142 C 3.823,52.695 3.126,40.2 3.148,37.033 -1.365,32.602 -0.202,28.001 1.403,25.61 -0.073,20.361 3.771,16.102 6.752,14.058 6.373,12.097 6.901,10.664 7.472,9.758 8.909,7.475 11.75,6.521 13.424,6.144 c 0.504,-4.798 3.884,-5.349 5.402,-5.349 1.171,0 2.249,0.287 2.926,0.517 1.77,-0.877 3.309,-1.304 4.689,-1.304 1.475,0 2.754,0.516 3.702,1.493 0.982,1.014 1.439,2.334 1.65,3.409 0.728,-0.134 1.415,-0.202 2.055,-0.202 2.548,0 4.018,1.078 4.803,1.983 1.612,1.856 1.714,4.406 1.652,5.646 3.58,4.334 4.814,8.276 3.669,11.723 -1.114,3.352 -4.242,5.387 -6.764,6.526 2.525,1.949 3.142,4.703 3.04,6.234 -0.053,0.78 -0.695,1.389 -1.478,1.4 -7.394,0.094 -12.188,1.883 -14.25,5.318 -2.958,4.93 0.556,11.855 0.592,11.924 0.06,0.117 0.105,0.241 0.133,0.368 0.557,2.551 0.332,4.405 -0.686,5.67 -0.554,0.688 -1.622,1.508 -3.561,1.508 z m -3.76,-4.003 c 0.69,0.325 2.413,1.003 3.76,1.003 0,0 0,0 0,0 0.605,0 1.016,-0.131 1.224,-0.389 0.179,-0.223 0.542,-0.953 0.129,-2.972 -0.636,-1.317 -3.938,-8.762 -0.403,-14.653 2.455,-4.09 7.53,-6.348 15.099,-6.723 -0.369,-1.15 -1.379,-2.718 -4.112,-3.477 -0.664,-0.184 -1.117,-0.797 -1.098,-1.484 0.017,-0.689 0.502,-1.276 1.174,-1.426 0.064,-0.014 6.722,-1.559 8.116,-5.777 0.828,-2.504 -0.353,-5.633 -3.509,-9.3 -0.282,-0.328 -0.409,-0.762 -0.349,-1.19 C 37.365,11.91 37.392,9.808 36.379,8.649 35.42,7.554 33.544,7.42 30.899,8.212 30.438,8.35 29.938,8.259 29.555,7.965 29.172,7.671 28.954,7.211 28.97,6.729 28.982,6.153 28.831,4.452 27.982,3.583 27.018,2.595 25.145,2.883 22.553,4.275 22.139,4.498 21.646,4.513 21.22,4.318 21.213,4.315 20.038,3.795 18.826,3.795 c -0.801,0 -2.466,0 -2.466,3.618 0,0.764 -0.575,1.406 -1.334,1.491 -1.041,0.12 -3.978,0.797 -5.018,2.457 -0.481,0.766 -0.514,1.709 -0.103,2.883 0.241,0.688 -0.048,1.449 -0.683,1.804 -0.276,0.156 -6.798,3.921 -4.746,9.306 0.198,0.519 0.092,1.104 -0.273,1.522 -0.345,0.406 -3.288,4.155 1.464,8.407 0.345,0.308 0.527,0.757 0.497,1.217 -0.009,0.133 -0.71,13.577 11.074,22.505 z"
         style="fill:#2d2d2d;fill-rule:evenodd" /><path
         id="path21678"
         class="cls-3"
         d="m 23.068,62.374 c -0.379,0 -0.758,-0.143 -1.05,-0.431 -0.213,-0.209 -21.023,-21.32 3.162,-50.08 0.534,-0.634 1.48,-0.716 2.114,-0.182 0.634,0.533 0.716,1.479 0.182,2.113 -22.359,26.589 -4.137,45.234 -3.351,46.014 0.587,0.583 0.593,1.532 0.011,2.121 -0.293,0.296 -0.68,0.445 -1.068,0.445 z"
         style="fill:#2d2d2d;fill-rule:evenodd" /><path
         id="path21680"
         class="cls-3"
         d="m 28.876,24.044 c -0.616,0 -1.193,-0.382 -1.413,-0.996 -0.466,-0.55 -3.759,-0.954 -6.739,-0.771 -0.82,0.051 -1.539,-0.577 -1.59,-1.404 -0.051,-0.826 0.577,-1.538 1.403,-1.59 2.577,-0.16 8.691,-0.216 9.752,2.757 0.278,0.78 -0.129,1.638 -0.909,1.916 -0.166,0.06 -0.337,0.088 -0.504,0.088 z"
         style="fill:#2d2d2d;fill-rule:evenodd" /><path
         id="path21682"
         class="cls-3"
         d="m 32.699,18.31 c -0.616,0 -1.193,-0.382 -1.412,-0.995 -0.466,-0.55 -3.753,-0.955 -6.74,-0.772 -0.812,0.05 -1.538,-0.577 -1.59,-1.404 -0.051,-0.826 0.577,-1.538 1.403,-1.59 2.576,-0.16 8.691,-0.215 9.751,2.756 0.28,0.78 -0.127,1.639 -0.907,1.918 -0.167,0.059 -0.337,0.087 -0.505,0.087 z"
         style="fill:#2d2d2d;fill-rule:evenodd" /><path
         id="path21684"
         class="cls-3"
         d="m 16.601,31.09 c -0.578,0 -1.127,-0.335 -1.375,-0.897 0,0 -3.491,-7.948 -3.491,-7.948 -0.333,-0.758 0.012,-1.643 0.77,-1.977 0.761,-0.331 1.643,0.012 1.976,0.771 0,0 3.492,7.947 3.492,7.947 0.333,0.759 -0.012,1.644 -0.77,1.977 -0.196,0.086 -0.401,0.127 -0.602,0.127 z"
         style="fill:#2d2d2d;fill-rule:evenodd" /><path
         id="path21686"
         class="cls-3"
         d="m 15.657,38.351 c -0.413,0 -0.824,-0.169 -1.121,-0.501 -0.551,-0.619 -0.496,-1.567 0.122,-2.119 0,0 4.975,-4.432 4.975,-4.432 0.619,-0.552 1.565,-0.496 2.118,0.122 0.551,0.618 0.496,1.567 -0.122,2.118 0,0 -4.975,4.433 -4.975,4.433 -0.286,0.254 -0.642,0.379 -0.997,0.379 z"
         style="fill:#2d2d2d;fill-rule:evenodd" /><path
         id="path21688"
         class="cls-3"
         d="m 15.656,47.978 c -0.387,0 -0.772,-0.149 -1.065,-0.444 0,0 -4.459,-4.503 -4.459,-4.503 -0.583,-0.589 -0.579,-1.538 0.01,-2.121 0.589,-0.583 1.539,-0.578 2.121,0.01 0,0 4.459,4.502 4.459,4.502 0.583,0.589 0.579,1.539 -0.01,2.122 -0.293,0.289 -0.674,0.434 -1.056,0.434 z"
         style="fill:#2d2d2d;fill-rule:evenodd" /></g></g><path
     style="opacity:1;fill:#ffffff;fill-opacity:1;stroke:none;stroke-width:5;stroke-linecap:round;stroke-linejoin:round;stroke-miterlimit:4;stroke-dasharray:none;stroke-dashoffset:0;stroke-opacity:1;paint-order:normal"
     d="m 22.651053,117.26367 c -0.139009,-0.33199 -0.250547,-1.84537 -0.247862,-3.36306 0.0055,-3.08424 0.809667,-5.09728 3.160291,-7.91062 0.83625,-1.00086 1.231191,-1.82678 1.231191,-2.57472 0,-1.27095 1.329098,-2.79446 2.437869,-2.79446 0.391214,0 0.9847,-0.40923 1.31886,-0.909389 0.820793,-1.228543 2.487497,-1.850055 4.961277,-1.850055 1.75699,0 2.169986,-0.126172 2.822644,-0.862324 0.860763,-0.970884 1.474792,-1.043609 3.757011,-0.444973 1.374057,0.36042 1.729982,0.336894 2.609205,-0.172465 1.33355,-0.772564 1.75115,-0.7448 2.758596,0.183404 0.461578,0.425272 1.485328,0.929732 2.275,1.121023 1.815531,0.439794 2.412409,1.259749 1.576465,2.165651 -0.88936,0.963788 -0.746263,1.372138 0.741731,2.116618 2.138088,1.06975 2.346596,1.50354 1.305787,2.71663 -0.596664,0.69543 -0.889679,1.45219 -0.889679,2.29777 0,3.48914 -2.461965,4.8099 -7.055803,3.78519 -3.251079,-0.72519 -3.813266,-0.30929 -2.534875,1.87524 0.819973,1.40118 0.448493,1.62106 -1.278731,0.75688 -2.2587,-1.13009 -5.591394,-1.845 -7.636073,-1.63804 -2.203783,0.22307 -3.755057,0.95331 -5.49221,2.58539 -0.721848,0.67819 -1.410683,1.13673 -1.530743,1.01899 -0.343837,-0.33721 1.209806,-3.1266 2.665419,-4.78546 l 1.324382,-1.5093 2.943789,-0.17247 c 2.650699,-0.15529 2.943789,-0.24115 2.943789,-0.86232 0,-0.4528 -0.271935,-0.72774 -0.791346,-0.80008 -1.297906,-0.18078 -0.909043,-0.73902 1.131209,-1.62393 3.167453,-1.37379 3.465006,-1.38316 4.892485,-0.15397 0.700849,0.60349 1.274271,1.31401 1.274271,1.57892 0,0.30523 0.386498,0.48166 1.055127,0.48166 0.941565,0 1.055128,-0.11314 1.055128,-1.05126 0,-0.67827 -0.311962,-1.3348 -0.879273,-1.85043 -1.071883,-0.97424 -1.102135,-1.23747 -0.14222,-1.23747 1.00814,0 2.758101,1.27823 3.156341,2.30549 0.256036,0.66044 0.538374,0.82087 1.294486,0.73555 1.337405,-0.15093 1.493809,-1.43291 0.32295,-2.6471 -0.483342,-0.50123 -0.931828,-1.29938 -0.996635,-1.77366 -0.109878,-0.80412 -0.236519,-0.85613 -1.876376,-0.77058 -1.555239,0.0811 -6.962247,1.31963 -8.745388,2.00317 -0.566817,0.21727 -0.618345,0.1388 -0.378732,-0.57678 0.571905,-1.70794 0.407999,-2.20799 -0.723736,-2.20799 -0.983887,0 -1.110312,0.15425 -1.87246,2.28452 -0.620842,1.73532 -1.043604,2.38488 -1.758546,2.70195 -0.517667,0.22959 -1.772208,1.04431 -2.787869,1.81049 -1.494317,1.12727 -1.943586,1.31417 -2.354677,0.97957 -0.279413,-0.22742 -0.872839,-0.36277 -1.318727,-0.30078 -0.750163,0.10429 -0.811533,0.28014 -0.82181,2.35475 -0.0075,1.52244 -0.256345,2.79559 -0.775182,3.9667 -0.420242,0.94855 -0.8535,2.1515 -0.962795,2.6732 -0.225398,1.07591 -0.787695,1.2426 -1.163555,0.34493 z"
     id="path22094" /><g
     transform="matrix(0.52879785,0.32544057,-0.42978518,0.40041463,69.241688,87.149556)"
     id="g22132"><g
       id="g22134"><path
         style="fill:#2d2d2d;fill-rule:evenodd"
         d="m 20.998,63.008 c 0,0 -0.001,0 -0.001,0 -2.395,0 -4.933,-1.234 -5.215,-1.374 -0.08,-0.04 -0.157,-0.088 -0.229,-0.142 C 3.823,52.695 3.126,40.2 3.148,37.033 -1.365,32.602 -0.202,28.001 1.403,25.61 -0.073,20.361 3.771,16.102 6.752,14.058 6.373,12.097 6.901,10.664 7.472,9.758 8.909,7.475 11.75,6.521 13.424,6.144 c 0.504,-4.798 3.884,-5.349 5.402,-5.349 1.171,0 2.249,0.287 2.926,0.517 1.77,-0.877 3.309,-1.304 4.689,-1.304 1.475,0 2.754,0.516 3.702,1.493 0.982,1.014 1.439,2.334 1.65,3.409 0.728,-0.134 1.415,-0.202 2.055,-0.202 2.548,0 4.018,1.078 4.803,1.983 1.612,1.856 1.714,4.406 1.652,5.646 3.58,4.334 4.814,8.276 3.669,11.723 -1.114,3.352 -4.242,5.387 -6.764,6.526 2.525,1.949 3.142,4.703 3.04,6.234 -0.053,0.78 -0.695,1.389 -1.478,1.4 -7.394,0.094 -12.188,1.883 -14.25,5.318 -2.958,4.93 0.556,11.855 0.592,11.924 0.06,0.117 0.105,0.241 0.133,0.368 0.557,2.551 0.332,4.405 -0.686,5.67 -0.554,0.688 -1.622,1.508 -3.561,1.508 z m -3.76,-4.003 c 0.69,0.325 2.413,1.003 3.76,1.003 0,0 0,0 0,0 0.605,0 1.016,-0.131 1.224,-0.389 0.179,-0.223 0.542,-0.953 0.129,-2.972 -0.636,-1.317 -3.938,-8.762 -0.403,-14.653 2.455,-4.09 7.53,-6.348 15.099,-6.723 -0.369,-1.15 -1.379,-2.718 -4.112,-3.477 -0.664,-0.184 -1.117,-0.797 -1.098,-1.484 0.017,-0.689 0.502,-1.276 1.174,-1.426 0.064,-0.014 6.722,-1.559 8.116,-5.777 0.828,-2.504 -0.353,-5.633 -3.509,-9.3 -0.282,-0.328 -0.409,-0.762 -0.349,-1.19 C 37.365,11.91 37.392,9.808 36.379,8.649 35.42,7.554 33.544,7.42 30.899,8.212 30.438,8.35 29.938,8.259 29.555,7.965 29.172,7.671 28.954,7.211 28.97,6.729 28.982,6.153 28.831,4.452 27.982,3.583 27.018,2.595 25.145,2.883 22.553,4.275 22.139,4.498 21.646,4.513 21.22,4.318 21.213,4.315 20.038,3.795 18.826,3.795 c -0.801,0 -2.466,0 -2.466,3.618 0,0.764 -0.575,1.406 -1.334,1.491 -1.041,0.12 -3.978,0.797 -5.018,2.457 -0.481,0.766 -0.514,1.709 -0.103,2.883 0.241,0.688 -0.048,1.449 -0.683,1.804 -0.276,0.156 -6.798,3.921 -4.746,9.306 0.198,0.519 0.092,1.104 -0.273,1.522 -0.345,0.406 -3.288,4.155 1.464,8.407 0.345,0.308 0.527,0.757 0.497,1.217 -0.009,0.133 -0.71,13.577 11.074,22.505 z"
         class="cls-3"
         id="path22136" /><path
         style="fill:#2d2d2d;fill-rule:evenodd"
         d="m 23.068,62.374 c -0.379,0 -0.758,-0.143 -1.05,-0.431 -0.213,-0.209 -21.023,-21.32 3.162,-50.08 0.534,-0.634 1.48,-0.716 2.114,-0.182 0.634,0.533 0.716,1.479 0.182,2.113 -22.359,26.589 -4.137,45.234 -3.351,46.014 0.587,0.583 0.593,1.532 0.011,2.121 -0.293,0.296 -0.68,0.445 -1.068,0.445 z"
         class="cls-3"
         id="path22138" /><path
         style="fill:#2d2d2d;fill-rule:evenodd"
         d="m 28.876,24.044 c -0.616,0 -1.193,-0.382 -1.413,-0.996 -0.466,-0.55 -3.759,-0.954 -6.739,-0.771 -0.82,0.051 -1.539,-0.577 -1.59,-1.404 -0.051,-0.826 0.577,-1.538 1.403,-1.59 2.577,-0.16 8.691,-0.216 9.752,2.757 0.278,0.78 -0.129,1.638 -0.909,1.916 -0.166,0.06 -0.337,0.088 -0.504,0.088 z"
         class="cls-3"
         id="path22140" /><path
         style="fill:#2d2d2d;fill-rule:evenodd"
         d="m 32.699,18.31 c -0.616,0 -1.193,-0.382 -1.412,-0.995 -0.466,-0.55 -3.753,-0.955 -6.74,-0.772 -0.812,0.05 -1.538,-0.577 -1.59,-1.404 -0.051,-0.826 0.577,-1.538 1.403,-1.59 2.576,-0.16 8.691,-0.215 9.751,2.756 0.28,0.78 -0.127,1.639 -0.907,1.918 -0.167,0.059 -0.337,0.087 -0.505,0.087 z"
         class="cls-3"
         id="path22142" /><path
         style="fill:#2d2d2d;fill-rule:evenodd"
         d="m 16.601,31.09 c -0.578,0 -1.127,-0.335 -1.375,-0.897 0,0 -3.491,-7.948 -3.491,-7.948 -0.333,-0.758 0.012,-1.643 0.77,-1.977 0.761,-0.331 1.643,0.012 1.976,0.771 0,0 3.492,7.947 3.492,7.947 0.333,0.759 -0.012,1.644 -0.77,1.977 -0.196,0.086 -0.401,0.127 -0.602,0.127 z"
         class="cls-3"
         id="path22144" /><path
         style="fill:#2d2d2d;fill-rule:evenodd"
         d="m 15.657,38.351 c -0.413,0 -0.824,-0.169 -1.121,-0.501 -0.551,-0.619 -0.496,-1.567 0.122,-2.119 0,0 4.975,-4.432 4.975,-4.432 0.619,-0.552 1.565,-0.496 2.118,0.122 0.551,0.618 0.496,1.567 -0.122,2.118 0,0 -4.975,4.433 -4.975,4.433 -0.286,0.254 -0.642,0.379 -0.997,0.379 z"
         class="cls-3"
         id="path22146" /><path
         style="fill:#2d2d2d;fill-rule:evenodd"
         d="m 15.656,47.978 c -0.387,0 -0.772,-0.149 -1.065,-0.444 0,0 -4.459,-4.503 -4.459,-4.503 -0.583,-0.589 -0.579,-1.538 0.01,-2.121 0.589,-0.583 1.539,-0.578 2.121,0.01 0,0 4.459,4.502 4.459,4.502 0.583,0.589 0.579,1.539 -0.01,2.122 -0.293,0.289 -0.674,0.434 -1.056,0.434 z"
         class="cls-3"
         id="path22148" /></g></g><path
     id="path22150"
     d="m 53.103604,116.16878 c -0.139009,-0.33199 -0.250547,-1.84537 -0.247862,-3.36306 0.0055,-3.08424 0.809667,-5.09728 3.160291,-7.91062 0.83625,-1.00086 1.231191,-1.82678 1.231191,-2.57472 0,-1.27095 1.329098,-2.794465 2.437869,-2.794465 0.391214,0 0.9847,-0.409223 1.31886,-0.909384 0.820793,-1.228543 2.487497,-1.850055 4.961277,-1.850055 1.75699,0 2.169986,-0.126172 2.822644,-0.862324 0.860763,-0.970884 1.474792,-1.043609 3.757011,-0.444973 1.374057,0.36042 1.729982,0.336894 2.609205,-0.172465 1.33355,-0.772564 1.75115,-0.7448 2.758596,0.183404 0.461578,0.425272 1.485328,0.929732 2.275,1.121023 1.815531,0.439794 2.412409,1.259749 1.576465,2.165651 -0.88936,0.96379 -0.746263,1.372138 0.741731,2.116618 2.138088,1.06975 2.346596,1.50354 1.305787,2.71663 -0.596664,0.69543 -0.889679,1.45219 -0.889679,2.29777 0,3.48914 -2.461965,4.8099 -7.055803,3.78519 -3.251079,-0.72519 -3.813266,-0.30929 -2.534875,1.87524 0.819973,1.40118 0.448493,1.62106 -1.278731,0.75688 -2.2587,-1.13009 -5.591394,-1.845 -7.636073,-1.63804 -2.203783,0.22307 -3.755057,0.95331 -5.49221,2.58539 -0.721848,0.67819 -1.410683,1.13673 -1.530743,1.01899 -0.343837,-0.33721 1.209806,-3.1266 2.665419,-4.78546 l 1.324382,-1.5093 2.943789,-0.17247 c 2.650699,-0.15529 2.943789,-0.24115 2.943789,-0.86232 0,-0.4528 -0.271935,-0.72774 -0.791346,-0.80008 -1.297906,-0.18078 -0.909043,-0.73902 1.131209,-1.62393 3.167453,-1.37379 3.465006,-1.38316 4.892485,-0.15397 0.700849,0.60349 1.274271,1.31401 1.274271,1.57892 0,0.30523 0.386498,0.48166 1.055127,0.48166 0.941565,0 1.055128,-0.11314 1.055128,-1.05126 0,-0.67827 -0.311962,-1.3348 -0.879273,-1.85043 -1.071883,-0.97424 -1.102135,-1.23747 -0.14222,-1.23747 1.00814,0 2.758101,1.27823 3.156341,2.30549 0.256036,0.66044 0.538374,0.82087 1.294486,0.73555 1.337405,-0.15093 1.493809,-1.43291 0.32295,-2.6471 -0.483342,-0.50123 -0.931828,-1.29938 -0.996635,-1.77366 -0.109878,-0.80412 -0.236519,-0.85613 -1.876376,-0.77058 -1.555239,0.0811 -6.962247,1.31963 -8.745388,2.00317 -0.566817,0.21727 -0.618345,0.1388 -0.378732,-0.57678 0.571905,-1.707942 0.407999,-2.20799 -0.723736,-2.20799 -0.983887,0 -1.110312,0.154246 -1.87246,2.28452 -0.620842,1.73532 -1.043604,2.38488 -1.758546,2.70195 -0.517667,0.22959 -1.772208,1.04431 -2.787869,1.81049 -1.494317,1.12727 -1.943586,1.31417 -2.354677,0.97957 -0.279413,-0.22742 -0.872839,-0.36277 -1.318727,-0.30078 -0.750163,0.10429 -0.811533,0.28014 -0.82181,2.35475 -0.0075,1.52244 -0.256345,2.79559 -0.775182,3.9667 -0.420242,0.94855 -0.8535,2.1515 -0.962795,2.6732 -0.225398,1.07591 -0.787695,1.2426 -1.163555,0.34493 z"
     style="opacity:1;fill:#ffffff;fill-opacity:1;stroke:none;stroke-width:5;stroke-linecap:round;stroke-linejoin:round;stroke-miterlimit:4;stroke-dasharray:none;stroke-dashoffset:0;stroke-opacity:1;paint-order:normal" /><g
     transform="matrix(-0.3285213,-0.52063149,0.56570147,-0.1737663,37.721841,134.79076)"
     id="g22110"><g
       id="g22112"><path
         style="fill:#2d2d2d;fill-rule:evenodd"
         d="m 20.998,63.008 c 0,0 -0.001,0 -0.001,0 -2.395,0 -4.933,-1.234 -5.215,-1.374 -0.08,-0.04 -0.157,-0.088 -0.229,-0.142 C 3.823,52.695 3.126,40.2 3.148,37.033 -1.365,32.602 -0.202,28.001 1.403,25.61 -0.073,20.361 3.771,16.102 6.752,14.058 6.373,12.097 6.901,10.664 7.472,9.758 8.909,7.475 11.75,6.521 13.424,6.144 c 0.504,-4.798 3.884,-5.349 5.402,-5.349 1.171,0 2.249,0.287 2.926,0.517 1.77,-0.877 3.309,-1.304 4.689,-1.304 1.475,0 2.754,0.516 3.702,1.493 0.982,1.014 1.439,2.334 1.65,3.409 0.728,-0.134 1.415,-0.202 2.055,-0.202 2.548,0 4.018,1.078 4.803,1.983 1.612,1.856 1.714,4.406 1.652,5.646 3.58,4.334 4.814,8.276 3.669,11.723 -1.114,3.352 -4.242,5.387 -6.764,6.526 2.525,1.949 3.142,4.703 3.04,6.234 -0.053,0.78 -0.695,1.389 -1.478,1.4 -7.394,0.094 -12.188,1.883 -14.25,5.318 -2.958,4.93 0.556,11.855 0.592,11.924 0.06,0.117 0.105,0.241 0.133,0.368 0.557,2.551 0.332,4.405 -0.686,5.67 -0.554,0.688 -1.622,1.508 -3.561,1.508 z m -3.76,-4.003 c 0.69,0.325 2.413,1.003 3.76,1.003 0,0 0,0 0,0 0.605,0 1.016,-0.131 1.224,-0.389 0.179,-0.223 0.542,-0.953 0.129,-2.972 -0.636,-1.317 -3.938,-8.762 -0.403,-14.653 2.455,-4.09 7.53,-6.348 15.099,-6.723 -0.369,-1.15 -1.379,-2.718 -4.112,-3.477 -0.664,-0.184 -1.117,-0.797 -1.098,-1.484 0.017,-0.689 0.502,-1.276 1.174,-1.426 0.064,-0.014 6.722,-1.559 8.116,-5.777 0.828,-2.504 -0.353,-5.633 -3.509,-9.3 -0.282,-0.328 -0.409,-0.762 -0.349,-1.19 C 37.365,11.91 37.392,9.808 36.379,8.649 35.42,7.554 33.544,7.42 30.899,8.212 30.438,8.35 29.938,8.259 29.555,7.965 29.172,7.671 28.954,7.211 28.97,6.729 28.982,6.153 28.831,4.452 27.982,3.583 27.018,2.595 25.145,2.883 22.553,4.275 22.139,4.498 21.646,4.513 21.22,4.318 21.213,4.315 20.038,3.795 18.826,3.795 c -0.801,0 -2.466,0 -2.466,3.618 0,0.764 -0.575,1.406 -1.334,1.491 -1.041,0.12 -3.978,0.797 -5.018,2.457 -0.481,0.766 -0.514,1.709 -0.103,2.883 0.241,0.688 -0.048,1.449 -0.683,1.804 -0.276,0.156 -6.798,3.921 -4.746,9.306 0.198,0.519 0.092,1.104 -0.273,1.522 -0.345,0.406 -3.288,4.155 1.464,8.407 0.345,0.308 0.527,0.757 0.497,1.217 -0.009,0.133 -0.71,13.577 11.074,22.505 z"
         class="cls-3"
         id="path22114" /><path
         style="fill:#2d2d2d;fill-rule:evenodd"
         d="m 23.068,62.374 c -0.379,0 -0.758,-0.143 -1.05,-0.431 -0.213,-0.209 -21.023,-21.32 3.162,-50.08 0.534,-0.634 1.48,-0.716 2.114,-0.182 0.634,0.533 0.716,1.479 0.182,2.113 -22.359,26.589 -4.137,45.234 -3.351,46.014 0.587,0.583 0.593,1.532 0.011,2.121 -0.293,0.296 -0.68,0.445 -1.068,0.445 z"
         class="cls-3"
         id="path22116" /><path
         style="fill:#2d2d2d;fill-rule:evenodd"
         d="m 28.876,24.044 c -0.616,0 -1.193,-0.382 -1.413,-0.996 -0.466,-0.55 -3.759,-0.954 -6.739,-0.771 -0.82,0.051 -1.539,-0.577 -1.59,-1.404 -0.051,-0.826 0.577,-1.538 1.403,-1.59 2.577,-0.16 8.691,-0.216 9.752,2.757 0.278,0.78 -0.129,1.638 -0.909,1.916 -0.166,0.06 -0.337,0.088 -0.504,0.088 z"
         class="cls-3"
         id="path22118" /><path
         style="fill:#2d2d2d;fill-rule:evenodd"
         d="m 32.699,18.31 c -0.616,0 -1.193,-0.382 -1.412,-0.995 -0.466,-0.55 -3.753,-0.955 -6.74,-0.772 -0.812,0.05 -1.538,-0.577 -1.59,-1.404 -0.051,-0.826 0.577,-1.538 1.403,-1.59 2.576,-0.16 8.691,-0.215 9.751,2.756 0.28,0.78 -0.127,1.639 -0.907,1.918 -0.167,0.059 -0.337,0.087 -0.505,0.087 z"
         class="cls-3"
         id="path22120" /><path
         style="fill:#2d2d2d;fill-rule:evenodd"
         d="m 16.601,31.09 c -0.578,0 -1.127,-0.335 -1.375,-0.897 0,0 -3.491,-7.948 -3.491,-7.948 -0.333,-0.758 0.012,-1.643 0.77,-1.977 0.761,-0.331 1.643,0.012 1.976,0.771 0,0 3.492,7.947 3.492,7.947 0.333,0.759 -0.012,1.644 -0.77,1.977 -0.196,0.086 -0.401,0.127 -0.602,0.127 z"
         class="cls-3"
         id="path22122" /><path
         style="fill:#2d2d2d;fill-rule:evenodd"
         d="m 15.657,38.351 c -0.413,0 -0.824,-0.169 -1.121,-0.501 -0.551,-0.619 -0.496,-1.567 0.122,-2.119 0,0 4.975,-4.432 4.975,-4.432 0.619,-0.552 1.565,-0.496 2.118,0.122 0.551,0.618 0.496,1.567 -0.122,2.118 0,0 -4.975,4.433 -4.975,4.433 -0.286,0.254 -0.642,0.379 -0.997,0.379 z"
         class="cls-3"
         id="path22124" /><path
         style="fill:#2d2d2d;fill-rule:evenodd"
         d="m 15.656,47.978 c -0.387,0 -0.772,-0.149 -1.065,-0.444 0,0 -4.459,-4.503 -4.459,-4.503 -0.583,-0.589 -0.579,-1.538 0.01,-2.121 0.589,-0.583 1.539,-0.578 2.121,0.01 0,0 4.459,4.502 4.459,4.502 0.583,0.589 0.579,1.539 -0.01,2.122 -0.293,0.289 -0.674,0.434 -1.056,0.434 z"
         class="cls-3"
         id="path22126" /></g></g><path
     id="path22128"
     d="m 65.245307,115.71221 c -0.02435,0.35811 -0.604052,1.76489 -1.288234,3.1262 -1.390386,2.76644 -3.016639,4.22612 -6.390648,5.7361 -1.200326,0.53718 -1.92589,1.10798 -2.261878,1.77943 -0.570934,1.14097 -2.448484,1.9344 -3.443855,1.45534 -0.351202,-0.16903 -1.067819,-0.0581 -1.592483,0.24654 -1.288727,0.74826 -3.064162,0.58608 -5.284934,-0.48276 -1.577292,-0.75913 -2.004727,-0.82431 -2.921326,-0.44544 -1.208865,0.49968 -1.792763,0.29967 -3.572649,-1.22381 -1.071617,-0.91724 -1.401708,-1.04991 -2.41982,-0.97253 -1.544209,0.11737 -1.906626,-0.088 -2.394071,-1.35654 -0.223331,-0.58121 -0.915763,-1.4764 -1.53874,-1.98932 -1.432283,-1.17924 -1.599777,-2.17322 -0.442384,-2.62529 1.231351,-0.48096 1.286325,-0.90937 0.284951,-2.22062 -1.438865,-1.88413 -1.431181,-2.36365 0.04812,-3.00297 0.848038,-0.3665 1.451035,-0.91927 1.830881,-1.67836 1.567381,-3.13229 4.370854,-3.25423 8.034538,-0.34949 2.592805,2.0557 3.28432,1.92525 3.118006,-0.58821 -0.106675,-1.61216 0.325584,-1.64904 1.487951,-0.12697 1.520034,1.99042 4.190726,4.07215 6.119254,4.76979 2.078595,0.75193 3.799247,0.76662 6.09189,0.052 0.952673,-0.29694 1.777042,-0.41096 1.83193,-0.25338 0.157191,0.45128 -2.490592,2.2841 -4.542518,3.14438 l -1.866933,0.78272 -2.720186,-1.11709 c -2.449356,-1.00587 -2.751038,-1.05542 -3.030081,-0.49778 -0.203404,0.40649 -0.08279,0.7708 0.351,1.06017 1.083954,0.72307 0.484092,1.0562 -1.745005,0.96907 -3.460632,-0.13526 -3.731959,-0.25541 -4.461271,-1.97565 -0.35807,-0.84458 -0.55367,-1.73018 -0.434666,-1.968 0.137113,-0.27401 -0.130597,-0.59939 -0.730842,-0.88829 -0.845266,-0.40682 -0.998041,-0.35431 -1.419457,0.48786 -0.304693,0.60891 -0.31956,1.33307 -0.0419,2.04108 0.524612,1.33773 0.433525,1.5871 -0.428214,1.17235 -0.905032,-0.43558 -1.901815,-2.33917 -1.797863,-3.43343 0.06683,-0.70352 -0.11456,-0.96953 -0.83167,-1.21963 -1.268419,-0.44236 -1.984712,0.64093 -1.47904,2.23683 0.208747,0.6588 0.252824,1.56909 0.09795,2.02287 -0.262585,0.76935 -0.17226,0.87076 1.33831,1.50249 1.432621,0.59913 6.842977,1.82348 8.750801,1.98029 0.60645,0.0499 0.617457,0.14256 0.0809,0.68142 -1.280648,1.28617 -1.358136,1.80589 -0.34215,2.29487 0.883259,0.42511 1.066043,0.34126 2.707198,-1.24184 1.336877,-1.28959 2.008194,-1.69006 2.79245,-1.6658 0.567855,0.0176 2.060074,-0.17179 3.31604,-0.42078 1.847871,-0.36633 2.33515,-0.34 2.553889,0.138 0.148673,0.32488 0.620604,0.70279 1.048735,0.8398 0.72029,0.23049 0.854377,0.0991 1.795554,-1.75885 0.690675,-1.36346 1.485954,-2.39891 2.477805,-3.22607 0.803369,-0.66997 1.732697,-1.56268 2.065173,-1.98381 0.68566,-0.86848 1.265328,-0.77517 1.1995,0.19308 z"
     style="opacity:1;fill:#ffffff;fill-opacity:1;stroke:none;stroke-width:5;stroke-linecap:round;stroke-linejoin:round;stroke-miterlimit:4;stroke-dasharray:none;stroke-dashoffset:0;stroke-opacity:1;paint-order:normal" /><path
     style="fill:#ffffff;fill-rule:evenodd;stroke:none;stroke-width:1px;stroke-linecap:butt;stroke-linejoin:miter;stroke-opacity:1"
     d="m 46.316939,79.920392 c 2.372262,7.288476 2.372262,7.288476 2.372262,7.288476 l -3.558394,1.573649 -4.562044,0.745412 3.375913,12.423541 5.839416,-0.82824 6.660584,-3.230119 5.109489,-1.987766 4.105843,-1.15953 6.4781,-3.561415 6.84306,-1.822118 2.82847,-0.911059 5.83942,-4.058356 -2.55475,-7.785418 4.19708,-1.076706 4.28832,-0.579765 -3.74087,-12.257892 -5.38321,0.579765 -3.19343,1.076707 -2.37227,1.490824 -2.37226,1.656472 -3.83212,1.076707 -2.9197,0.579765 -2.64599,0.993883 -2.737226,1.739295 -3.010949,1.490825 -4.288321,1.076706 -3.558394,1.159531 -3.193431,1.573648 z"
     id="path22007" /><g
     style="stroke:none;stroke-opacity:1;fill:#000000;fill-opacity:1"
     id="g21725"
     transform="matrix(0.79401618,-0.05786575,-0.22322686,0.60362403,48.576541,64.897818)"><path
       style="stroke:none;stroke-opacity:1;fill:#000000;fill-opacity:1"
       id="path21713"
       d="m 12,64 4.6,-0.5 c 3.1,-0.3 6.1,-1.8 8.3,-4 l 0.6,-0.6 c 1.9,-1.9 4.4,-3.1 7.1,-3.4 3.1,-0.3 6.1,-1.8 8.3,-4 l 0.6,-0.6 c 1.9,-1.9 4.4,-3.1 7.1,-3.4 3.1,-0.3 6.1,-1.8 8.3,-4 l 3.8,-3.8 c 0.3,-0.3 0.4,-0.8 0.2,-1.2 l -11,-22 C 49.8,16.2 49.5,16 49.2,16 c -0.3,0 -0.6,0.1 -0.9,0.3 l -3.8,3.8 c -1.9,1.9 -4.4,3.1 -7.1,3.4 -3.1,0.3 -6.1,1.8 -8.3,4 l -0.6,0.6 c -1.9,1.9 -4.4,3.1 -7.1,3.4 -3.1,0.3 -6.1,1.8 -8.3,4 l -0.6,0.6 C 10.6,38 8.1,39.2 5.4,39.5 L 0.9,40 c -0.3,0 -0.6,0.2 -0.8,0.5 -0.2,0.3 -0.2,0.6 0,0.9 l 11,22 C 11.3,63.8 11.6,64 12,64 Z M 5.6,41.5 c 3.1,-0.3 6.1,-1.8 8.3,-4 l 0.6,-0.6 c 1.9,-1.9 4.4,-3.1 7.1,-3.4 3.1,-0.3 6.1,-1.8 8.3,-4 l 0.6,-0.6 c 1.9,-1.9 4.4,-3.1 7.1,-3.4 3.1,-0.3 6.1,-1.8 8.3,-4 l 2.8,-2.8 3.1,6.1 -3.3,3.3 c -1.9,1.9 -4.4,3.1 -7.1,3.4 -3.1,0.3 -6.1,1.8 -8.3,4 l -0.6,0.6 c -1.9,1.9 -4.4,3.1 -7.1,3.4 -1.7,0.2 -3.3,0.7 -4.8,1.5 -0.5,0.3 -0.7,0.8 -0.4,1.3 0.2,0.4 0.7,0.7 1.3,0.4 1.3,-0.7 2.7,-1.1 4.2,-1.3 3.1,-0.3 6.1,-1.8 8.3,-4 l 0.6,-0.6 c 1.9,-1.9 4.4,-3.1 7.1,-3.4 3.1,-0.3 6.1,-1.8 8.3,-4 l 2.8,-2.8 3.1,6.1 -3.3,3.3 c -1.9,1.9 -4.4,3.1 -7.1,3.4 -3.1,0.3 -6.1,1.8 -8.3,4 L 36.6,44 c -1.9,1.9 -4.4,3.1 -7.1,3.4 -3.1,0.3 -6.1,1.8 -8.3,4 L 20.6,52 c -1.9,1.9 -4.4,3.1 -7.1,3.4 l -3.8,0.4 -3,-6.1 3.1,-0.3 c 2.6,-0.3 5,-1.3 7,-2.8 0.4,-0.3 0.5,-1 0.2,-1.4 -0.3,-0.4 -1,-0.5 -1.4,-0.2 -1.7,1.4 -3.8,2.2 -6,2.4 L 5.8,47.8 5,46.8 8.1,46.5 c 3.1,-0.3 6.1,-1.8 8.3,-4 L 17,41.9 c 1.9,-1.9 4.4,-3.1 7.1,-3.4 3.1,-0.3 6.1,-1.8 8.3,-4 L 33,33.9 c 1.9,-1.9 4.4,-3.1 7.1,-3.4 3.1,-0.3 6.1,-1.8 8.3,-4 0.4,-0.4 0.4,-1 0,-1.4 -0.4,-0.4 -1,-0.4 -1.4,0 -1.9,1.9 -4.4,3.1 -7.1,3.4 -3.1,0.3 -6.1,1.8 -8.3,4 L 31,33.1 c -1.9,1.9 -4.4,3.1 -7.1,3.4 -3.1,0.3 -6.1,1.8 -8.3,4 L 15,41.1 c -1.9,1.9 -4.4,3.1 -7.1,3.4 l -3.8,0.4 -1.5,-3.1 3,-0.3 z m 49.9,0.6 c -1.9,1.9 -4.4,3.1 -7.1,3.4 -3.1,0.3 -6.1,1.8 -8.3,4 l -0.6,0.6 c -1.9,1.9 -4.4,3.1 -7.1,3.4 -3.1,0.3 -6.1,1.8 -8.3,4 l -0.6,0.6 c -1.9,1.9 -4.4,3.1 -7.1,3.4 l -3.8,0.4 -2,-4.1 3.1,-0.3 c 3.1,-0.3 6.1,-1.8 8.3,-4 l 0.6,-0.6 c 1.9,-1.9 4.4,-3.1 7.1,-3.4 3.1,-0.3 6.1,-1.8 8.3,-4 l 0.6,-0.6 c 1.9,-1.9 4.4,-3.1 7.1,-3.4 3.1,-0.3 6.1,-1.8 8.3,-4 l 2.8,-2.8 2.1,4.1 -3.4,3.3 z M 35.6,41.9 c -0.4,-0.4 -0.4,-1 0,-1.4 2.2,-2.2 5.2,-3.6 8.3,-4 2.7,-0.3 5.2,-1.5 7.1,-3.4 0.4,-0.4 1,-0.4 1.4,0 0.4,0.4 0.4,1 0,1.4 -2.2,2.2 -5.2,3.6 -8.3,4 -2.7,0.3 -5.2,1.5 -7.1,3.4 -0.5,0.5 -1.1,0.3 -1.4,0 z m 20,-23.4 c -0.7,0 -1,-0.4 -1.1,-0.9 -0.1,-0.5 0.3,-1 0.9,-1.1 l 3.1,-0.3 -3,-6.1 -3.8,0.4 C 49,10.8 46.5,12 44.6,13.9 L 44,14.5 c -2.2,2.2 -5.2,3.6 -8.3,4 -0.7,0.1 -1,-0.4 -1.1,-0.9 -0.1,-0.5 0.3,-1 0.9,-1.1 2.7,-0.3 5.2,-1.5 7.1,-3.4 l 0.6,-0.6 c 2.2,-2.2 5.2,-3.6 8.3,-4 l 3.1,-0.3 -1,-2.1 -3.8,0.4 C 47.1,6.8 44.6,8 42.7,9.9 l -0.6,0.6 c -2.2,2.2 -5.2,3.6 -8.3,4 -2.7,0.3 -5.2,1.5 -7.1,3.4 l -0.6,0.6 c -2.2,2.2 -5.2,3.6 -8.3,4 -0.8,0.1 -1,-0.4 -1.1,-0.9 -0.1,-0.5 0.3,-1 0.9,-1.1 2.7,-0.3 5.2,-1.5 7.1,-3.4 l 0.6,-0.6 c 2.2,-2.2 5.2,-3.6 8.3,-4 2.7,-0.3 5.2,-1.5 7.1,-3.4 l 0.6,-0.6 c 2.2,-2.2 5.2,-3.6 8.3,-4 l 3.1,-0.3 -1,-2.1 -3.8,0.4 C 45.2,2.8 42.7,4 40.8,5.9 l -0.6,0.6 c -2.2,2.2 -5.2,3.6 -8.3,4 -2.7,0.3 -5.2,1.5 -7.1,3.4 l -0.6,0.6 c -2.2,2.2 -5.2,3.6 -8.3,4 -2.7,0.3 -5.2,1.5 -7.1,3.4 l -3.3,3.3 3.1,6.1 2.8,-2.8 c 2.2,-2.2 5.2,-3.6 8.3,-4 0.5,-0.1 1,0.3 1.1,0.9 0.1,0.5 -0.3,1 -0.9,1.1 -2.7,0.3 -5.2,1.5 -7.1,3.4 l -3.3,3.3 0.7,1.4 c 0.2,0.5 0,1.1 -0.4,1.3 -0.5,0.2 -1.1,0 -1.3,-0.4 l -5,-10 C 3.3,25.1 3.4,24.7 3.7,24.3 l 3.8,-3.8 c 2.2,-2.2 5.2,-3.6 8.3,-4 2.7,-0.3 5.2,-1.5 7.1,-3.4 l 0.6,-0.6 c 2.2,-2.2 5.2,-3.6 8.3,-4 C 34.5,8.2 37,7 38.9,5.1 l 0.6,-0.6 c 2.2,-2.2 5.2,-3.6 8.3,-4 L 51.9,0 c 0.4,0 0.8,0.2 1,0.5 l 11,22 c 0.1,0.3 0.1,0.6 0,0.9 -0.1,0.3 -0.5,0.6 -0.8,0.6 l -4.5,0.5 c -0.7,0.1 -1.5,0.2 -2.2,0.5 -0.5,0.2 -1.1,-0.1 -1.3,-0.7 -0.2,-0.6 0.1,-1.1 0.7,-1.3 0.8,-0.3 1.7,-0.4 2.6,-0.5 l 3.1,-0.3 -2,-4.1 -3.9,0.4 z" /></g><path
     id="path22016"
     d="m 21.263463,71.994214 c 3.714681,6.49176 3.714681,6.49176 3.714681,6.49176 l -3.872697,1.847784 -5.137844,1.190541 5.565027,11.138685 6.593546,-1.407271 7.210228,-3.72229 5.597732,-2.401413 4.557666,-1.524162 6.955646,-4.009187 7.611102,-2.43797 3.124471,-1.153983 6.154652,-4.399533 -3.991777,-6.932107 4.673699,-1.457438 4.846002,-1.00709 -5.961642,-10.945236 -6.103393,1.127095 -3.521089,1.347434 -2.521787,1.641054 -2.499267,1.794503 -4.254572,1.417437 -3.274256,0.857083 -2.903654,1.210708 -2.907146,1.911229 -3.255257,1.711057 -4.77848,1.467437 -3.928967,1.464161 -3.453568,1.807781 z"
     style="fill:#ffffff;fill-rule:evenodd;stroke:none;stroke-width:1px;stroke-linecap:butt;stroke-linejoin:miter;stroke-opacity:1" /><g
     style="stroke:none;stroke-opacity:1;fill:#000000;fill-opacity:1"
     transform="matrix(0.90399898,-0.14063211,-0.17433895,0.58364121,21.817208,57.830204)"
     id="g22018"><path
       style="stroke:none;stroke-opacity:1;fill:#000000;fill-opacity:1"
       d="m 12,64 4.6,-0.5 c 3.1,-0.3 6.1,-1.8 8.3,-4 l 0.6,-0.6 c 1.9,-1.9 4.4,-3.1 7.1,-3.4 3.1,-0.3 6.1,-1.8 8.3,-4 l 0.6,-0.6 c 1.9,-1.9 4.4,-3.1 7.1,-3.4 3.1,-0.3 6.1,-1.8 8.3,-4 l 3.8,-3.8 c 0.3,-0.3 0.4,-0.8 0.2,-1.2 l -11,-22 C 49.8,16.2 49.5,16 49.2,16 c -0.3,0 -0.6,0.1 -0.9,0.3 l -3.8,3.8 c -1.9,1.9 -4.4,3.1 -7.1,3.4 -3.1,0.3 -6.1,1.8 -8.3,4 l -0.6,0.6 c -1.9,1.9 -4.4,3.1 -7.1,3.4 -3.1,0.3 -6.1,1.8 -8.3,4 l -0.6,0.6 C 10.6,38 8.1,39.2 5.4,39.5 L 0.9,40 c -0.3,0 -0.6,0.2 -0.8,0.5 -0.2,0.3 -0.2,0.6 0,0.9 l 11,22 C 11.3,63.8 11.6,64 12,64 Z M 5.6,41.5 c 3.1,-0.3 6.1,-1.8 8.3,-4 l 0.6,-0.6 c 1.9,-1.9 4.4,-3.1 7.1,-3.4 3.1,-0.3 6.1,-1.8 8.3,-4 l 0.6,-0.6 c 1.9,-1.9 4.4,-3.1 7.1,-3.4 3.1,-0.3 6.1,-1.8 8.3,-4 l 2.8,-2.8 3.1,6.1 -3.3,3.3 c -1.9,1.9 -4.4,3.1 -7.1,3.4 -3.1,0.3 -6.1,1.8 -8.3,4 l -0.6,0.6 c -1.9,1.9 -4.4,3.1 -7.1,3.4 -1.7,0.2 -3.3,0.7 -4.8,1.5 -0.5,0.3 -0.7,0.8 -0.4,1.3 0.2,0.4 0.7,0.7 1.3,0.4 1.3,-0.7 2.7,-1.1 4.2,-1.3 3.1,-0.3 6.1,-1.8 8.3,-4 l 0.6,-0.6 c 1.9,-1.9 4.4,-3.1 7.1,-3.4 3.1,-0.3 6.1,-1.8 8.3,-4 l 2.8,-2.8 3.1,6.1 -3.3,3.3 c -1.9,1.9 -4.4,3.1 -7.1,3.4 -3.1,0.3 -6.1,1.8 -8.3,4 L 36.6,44 c -1.9,1.9 -4.4,3.1 -7.1,3.4 -3.1,0.3 -6.1,1.8 -8.3,4 L 20.6,52 c -1.9,1.9 -4.4,3.1 -7.1,3.4 l -3.8,0.4 -3,-6.1 3.1,-0.3 c 2.6,-0.3 5,-1.3 7,-2.8 0.4,-0.3 0.5,-1 0.2,-1.4 -0.3,-0.4 -1,-0.5 -1.4,-0.2 -1.7,1.4 -3.8,2.2 -6,2.4 L 5.8,47.8 5,46.8 8.1,46.5 c 3.1,-0.3 6.1,-1.8 8.3,-4 L 17,41.9 c 1.9,-1.9 4.4,-3.1 7.1,-3.4 3.1,-0.3 6.1,-1.8 8.3,-4 L 33,33.9 c 1.9,-1.9 4.4,-3.1 7.1,-3.4 3.1,-0.3 6.1,-1.8 8.3,-4 0.4,-0.4 0.4,-1 0,-1.4 -0.4,-0.4 -1,-0.4 -1.4,0 -1.9,1.9 -4.4,3.1 -7.1,3.4 -3.1,0.3 -6.1,1.8 -8.3,4 L 31,33.1 c -1.9,1.9 -4.4,3.1 -7.1,3.4 -3.1,0.3 -6.1,1.8 -8.3,4 L 15,41.1 c -1.9,1.9 -4.4,3.1 -7.1,3.4 l -3.8,0.4 -1.5,-3.1 3,-0.3 z m 49.9,0.6 c -1.9,1.9 -4.4,3.1 -7.1,3.4 -3.1,0.3 -6.1,1.8 -8.3,4 l -0.6,0.6 c -1.9,1.9 -4.4,3.1 -7.1,3.4 -3.1,0.3 -6.1,1.8 -8.3,4 l -0.6,0.6 c -1.9,1.9 -4.4,3.1 -7.1,3.4 l -3.8,0.4 -2,-4.1 3.1,-0.3 c 3.1,-0.3 6.1,-1.8 8.3,-4 l 0.6,-0.6 c 1.9,-1.9 4.4,-3.1 7.1,-3.4 3.1,-0.3 6.1,-1.8 8.3,-4 l 0.6,-0.6 c 1.9,-1.9 4.4,-3.1 7.1,-3.4 3.1,-0.3 6.1,-1.8 8.3,-4 l 2.8,-2.8 2.1,4.1 -3.4,3.3 z M 35.6,41.9 c -0.4,-0.4 -0.4,-1 0,-1.4 2.2,-2.2 5.2,-3.6 8.3,-4 2.7,-0.3 5.2,-1.5 7.1,-3.4 0.4,-0.4 1,-0.4 1.4,0 0.4,0.4 0.4,1 0,1.4 -2.2,2.2 -5.2,3.6 -8.3,4 -2.7,0.3 -5.2,1.5 -7.1,3.4 -0.5,0.5 -1.1,0.3 -1.4,0 z m 20,-23.4 c -0.7,0 -1,-0.4 -1.1,-0.9 -0.1,-0.5 0.3,-1 0.9,-1.1 l 3.1,-0.3 -3,-6.1 -3.8,0.4 C 49,10.8 46.5,12 44.6,13.9 L 44,14.5 c -2.2,2.2 -5.2,3.6 -8.3,4 -0.7,0.1 -1,-0.4 -1.1,-0.9 -0.1,-0.5 0.3,-1 0.9,-1.1 2.7,-0.3 5.2,-1.5 7.1,-3.4 l 0.6,-0.6 c 2.2,-2.2 5.2,-3.6 8.3,-4 l 3.1,-0.3 -1,-2.1 -3.8,0.4 C 47.1,6.8 44.6,8 42.7,9.9 l -0.6,0.6 c -2.2,2.2 -5.2,3.6 -8.3,4 -2.7,0.3 -5.2,1.5 -7.1,3.4 l -0.6,0.6 c -2.2,2.2 -5.2,3.6 -8.3,4 -0.8,0.1 -1,-0.4 -1.1,-0.9 -0.1,-0.5 0.3,-1 0.9,-1.1 2.7,-0.3 5.2,-1.5 7.1,-3.4 l 0.6,-0.6 c 2.2,-2.2 5.2,-3.6 8.3,-4 2.7,-0.3 5.2,-1.5 7.1,-3.4 l 0.6,-0.6 c 2.2,-2.2 5.2,-3.6 8.3,-4 l 3.1,-0.3 -1,-2.1 -3.8,0.4 C 45.2,2.8 42.7,4 40.8,5.9 l -0.6,0.6 c -2.2,2.2 -5.2,3.6 -8.3,4 -2.7,0.3 -5.2,1.5 -7.1,3.4 l -0.6,0.6 c -2.2,2.2 -5.2,3.6 -8.3,4 -2.7,0.3 -5.2,1.5 -7.1,3.4 l -3.3,3.3 3.1,6.1 2.8,-2.8 c 2.2,-2.2 5.2,-3.6 8.3,-4 0.5,-0.1 1,0.3 1.1,0.9 0.1,0.5 -0.3,1 -0.9,1.1 -2.7,0.3 -5.2,1.5 -7.1,3.4 l -3.3,3.3 0.7,1.4 c 0.2,0.5 0,1.1 -0.4,1.3 -0.5,0.2 -1.1,0 -1.3,-0.4 l -5,-10 C 3.3,25.1 3.4,24.7 3.7,24.3 l 3.8,-3.8 c 2.2,-2.2 5.2,-3.6 8.3,-4 2.7,-0.3 5.2,-1.5 7.1,-3.4 l 0.6,-0.6 c 2.2,-2.2 5.2,-3.6 8.3,-4 C 34.5,8.2 37,7 38.9,5.1 l 0.6,-0.6 c 2.2,-2.2 5.2,-3.6 8.3,-4 L 51.9,0 c 0.4,0 0.8,0.2 1,0.5 l 11,22 c 0.1,0.3 0.1,0.6 0,0.9 -0.1,0.3 -0.5,0.6 -0.8,0.6 l -4.5,0.5 c -0.7,0.1 -1.5,0.2 -2.2,0.5 -0.5,0.2 -1.1,-0.1 -1.3,-0.7 -0.2,-0.6 0.1,-1.1 0.7,-1.3 0.8,-0.3 1.7,-0.4 2.6,-0.5 l 3.1,-0.3 -2,-4.1 -3.9,0.4 z"
       id="path22020" /></g><g
     id="g22272"
     transform="translate(6.3112237,10)"><path
       id="path4"
       transform="translate(0.001,18.527)"
       d="m 56.861328,0 c -0.462,0 -0.923281,0.07928125 -1.363281,0.23828125 L 23.214844,11.880859 c -0.876,-0.062 -1.766157,-0.09375 -2.660156,-0.09375 -3.820001,0 -7.444172,0.560219 -10.201172,1.574219 -5.7770004,2.126 -6.6406254,5.772813 -6.6406254,7.757813 l 0,4.83789 c -0.1253546,2.015938 0.2600733,3.983871 0.6463662,5.037072 0.202,0.431 0.4628594,0.839421 0.7558594,1.232421 0.155,0.209001 0.3121875,0.415329 0.4921875,0.611329 0.147,0.161 0.3087031,0.312796 0.4707031,0.466797 0.703,0.659999 1.5539219,1.246859 2.5449219,1.755859 0.002,0.002 0.00386,0.0029 0.00586,0.0039 0.099,0.052 0.1987813,0.100438 0.3007813,0.148438 0.003,0.002 0.00772,0.0039 0.011719,0.0059 0.1890001,0.091 0.3742657,0.187484 0.5722657,0.271484 10e-4,10e-4 0.00386,9.54e-4 0.00586,0.002 8.1759683,2.238644 10.5893473,3.911302 16.4550773,6.958984 0.006,0.005 0.01353,0.0087 0.01953,0.01367 0.372,0.273 0.76764,0.528484 1.18164,0.771484 0.055,0.031 0.116875,0.0608 0.171875,0.0918 3.912,2.215 9.566672,3.115234 14.888672,3.115234 6.184,0 12.816672,-1.214781 16.638672,-4.300781 0.313,-0.254 0.606859,-0.518875 0.880859,-0.796875 1.011,-1.031 1.756469,-2.228765 2.105469,-3.634765 l 21.339844,-7.697266 0.435547,-0.15625 3.769531,-1.361328 1.730469,-0.623047 0.435547,-0.15625 2.322265,-0.837891 c 0.41,-0.148 0.782282,-0.35914 1.113281,-0.61914 0.72,-0.563 1.219688,-1.358907 1.429688,-2.253907 l 0.115234,-2.201371 0,-5.636519 c 0,-1.697 -1.063156,-3.21111 -2.660156,-3.78711 L 58.228516,0.23828125 C 57.788516,0.07928125 57.324328,0 56.861328,0 Z m -0.0059,4.0351562 33.662109,12.1406248 -3.447266,1.244141 -9.277343,3.345703 -3.771485,1.361328 -0.433593,0.154297 -1.730469,0.625 -3.769531,1.359375 -0.435547,0.15625 -4.644532,1.675781 -0.0098,0.002 -5.105469,1.841797 c 0.097,0.322 0.162109,0.65486 0.16211,1.00586 0,0.259 -0.03094,0.510859 -0.08594,0.755859 -0.018,0.08 -0.04927,0.156375 -0.07227,0.234375 -0.049,0.161 -0.100875,0.320609 -0.171875,0.474609 -0.039,0.089 -0.09358,0.172766 -0.142578,0.259766 -0.075,0.137 -0.154047,0.273297 -0.248047,0.404297 -0.063,0.086 -0.133125,0.170906 -0.203125,0.253906 -0.102,0.125 -0.210125,0.247235 -0.328125,0.365234 -0.081,0.081 -0.163906,0.162235 -0.253906,0.240235 -0.129,0.115 -0.267203,0.228937 -0.408203,0.335937 -0.099,0.074 -0.193875,0.14675 -0.296875,0.21875 -0.158,0.108 -0.325141,0.212454 -0.494141,0.314454 -0.107,0.063 -0.212218,0.130406 -0.324218,0.191406 -0.19,0.104 -0.39561,0.203734 -0.59961,0.302734 -0.107,0.053 -0.209312,0.10625 -0.320312,0.15625 -0.258,0.115 -0.530594,0.226078 -0.808594,0.330078 -0.07,0.027 -0.135031,0.05898 -0.207031,0.08398 -0.35,0.128 -0.714844,0.248328 -1.089844,0.361328 -0.134,0.04 -0.275109,0.07433 -0.412109,0.111328 -0.249,0.07 -0.496907,0.141125 -0.753907,0.203125 -0.182,0.045 -0.368734,0.08495 -0.552734,0.126953 -0.222,0.049 -0.443922,0.09853 -0.669922,0.144531 -0.208,0.041 -0.419812,0.07823 -0.632812,0.115235 -0.21,0.038 -0.421719,0.07247 -0.636719,0.105468 -0.232,0.036 -0.465172,0.06952 -0.701172,0.103516 -0.198,0.026 -0.396703,0.05217 -0.595703,0.07617 -0.255,0.03 -0.512485,0.06098 -0.771484,0.08398 -0.178,0.018 -0.35611,0.03183 -0.53711,0.04883 -0.284,0.022 -0.567469,0.0445 -0.855469,0.0625 -0.141,0.009 -0.282828,0.01548 -0.423828,0.02148 -0.327,0.019 -0.653422,0.03297 -0.982422,0.04297 -0.045,0.002 -0.08877,0.002 -0.134765,0.002 -3.924,0.102 -7.938266,-0.33836 -11.072266,-1.31836 -0.004,-0.001 -0.0077,-9.53e-4 -0.01172,-0.002 -0.325,-0.103 -0.640312,-0.212172 -0.945312,-0.326172 -0.064,-0.022 -0.125453,-0.04727 -0.189453,-0.07227 -0.242,-0.093 -0.477125,-0.189016 -0.703125,-0.291016 -0.083,-0.037 -0.167047,-0.07528 -0.248047,-0.113281 -0.2,-0.094 -0.392125,-0.189063 -0.578125,-0.289063 -0.086,-0.047 -0.17286,-0.09363 -0.255859,-0.140625 -0.173,-0.1 -0.337047,-0.201687 -0.498047,-0.304687 -0.08,-0.054 -0.161328,-0.103297 -0.236329,-0.154297 -0.16,-0.112 -0.307171,-0.229656 -0.451171,-0.347656 -0.061,-0.049 -0.126594,-0.09649 -0.183594,-0.146485 -3.767959,-2.505091 -8.399731,-4.934432 -11.960938,-5.849609 -0.104,-0.015 -0.207546,-0.02892 -0.310547,-0.04492 -0.089,-0.014 -0.176625,-0.03092 -0.265624,-0.04492 -0.183,-0.03 -0.363969,-0.0588 -0.542969,-0.0918 -0.062,-0.011 -0.126453,-0.0212 -0.189453,-0.0332 -0.318,-0.062 -0.628547,-0.128172 -0.935547,-0.201172 -0.083,-0.02 -0.164094,-0.0415 -0.246094,-0.0625 -0.232,-0.059 -0.461594,-0.119594 -0.683594,-0.183593 -0.082,-0.029 -0.166,-0.05312 -0.25,-0.07813 -0.287,-0.088 -0.567937,-0.179343 -0.835937,-0.277343 -0.008,-0.003 -0.01448,-0.0068 -0.02149,-0.0098 -0.261,-0.097 -0.508,-0.200641 -0.75,-0.306641 -0.071,-0.032 -0.141937,-0.06366 -0.210937,-0.09766 -0.187,-0.087 -0.364109,-0.177484 -0.53711,-0.271484 -0.057,-0.032 -0.116875,-0.06175 -0.171874,-0.09375 -0.2140005,-0.124 -0.4184224,-0.251719 -0.6074224,-0.386719 -0.036,-0.025 -0.067516,-0.05408 -0.1035156,-0.08008 -0.075,-0.056 -0.1399844,-0.113875 -0.2089844,-0.171875 -0.073,-0.06 -0.1487968,-0.116734 -0.2167968,-0.177734 -0.047,-0.043 -0.095625,-0.08686 -0.140625,-0.13086 -0.126,-0.125 -0.2407032,-0.252765 -0.3457032,-0.384765 -0.023,-0.029 -0.052219,-0.05889 -0.074219,-0.08789 -0.12,-0.16 -0.2206406,-0.326047 -0.3066407,-0.498047 -0.022,-0.044 -0.039594,-0.08877 -0.058594,-0.134765 -0.061,-0.136001 -0.1094375,-0.273016 -0.1484375,-0.416016 -0.014,-0.053 -0.029016,-0.106156 -0.041016,-0.160156 -0.04,-0.188 -0.064453,-0.377172 -0.064453,-0.576172 0.001,-0.241 0.03675,-0.472219 0.09375,-0.699219 0.019,-0.073 0.051172,-0.141891 0.076172,-0.212891 0.051,-0.149 0.1075938,-0.2965 0.1835938,-0.4375 0.042,-0.08 0.094531,-0.154468 0.1445312,-0.230468 0.042,-0.063 0.089766,-0.1245 0.1347657,-0.1875 0.045,-0.062 0.087672,-0.125547 0.1386718,-0.185547 0.062,-0.075 0.1272657,-0.147703 0.1972656,-0.220703 0.056,-0.059 0.1245469,-0.113922 0.1855469,-0.169922 0.062,-0.056 0.1175938,-0.114922 0.1835938,-0.169922 0.078,-0.065 0.1542812,-0.133313 0.2382812,-0.195313 0.154,-0.116 0.3210938,-0.225984 0.4960938,-0.333984 0.078,-0.049 0.152375,-0.101437 0.2343748,-0.148437 0.132,-0.077 0.279969,-0.143844 0.417969,-0.214844 0.14,-0.073 0.271922,-0.148797 0.419921,-0.216797 0.01,-0.004 0.02125,-0.0087 0.03125,-0.01367 0.003,-10e-4 0.0058,-0.0019 0.0098,-0.0039 0.288,-0.129 0.592203,-0.251235 0.908203,-0.365235 0.107,-0.038 0.222032,-0.07238 0.332031,-0.109375 10e-4,0 0.0029,0.001 0.0039,0 0.229,-0.078 0.461125,-0.153656 0.703125,-0.222656 0.136,-0.039 0.275062,-0.07337 0.414062,-0.109375 l 0.002,0 c 0.23,-0.061 0.465078,-0.118875 0.705079,-0.171875 l 0.002,0 c 0.148,-0.034 0.296265,-0.06566 0.447265,-0.09766 l 0.002,0 c 0.083,-0.017 0.167953,-0.03087 0.251953,-0.04687 0.167,-0.032 0.333907,-0.06375 0.503907,-0.09375 0.149,-0.025 0.295265,-0.05217 0.447265,-0.07617 l 0.002,0 c 0.082,-0.012 0.164093,-0.0222 0.246093,-0.0332 0.205,-0.03 0.408188,-0.05998 0.617188,-0.08398 0.127,-0.016 0.251906,-0.03483 0.378906,-0.04883 0.422,-0.046 0.85025,-0.08523 1.28125,-0.115234 0.03,-0.002 0.05984,-0.0019 0.08984,-0.0059 l 0.002,0 c 0.4,-0.026 0.803031,-0.04659 1.207031,-0.05859 0.144,-0.004 0.287641,-0.0039 0.431641,-0.0059 0.279,-0.005 0.557937,-0.0088 0.835937,-0.0078 0.342,0.002 0.684391,0.01144 1.025391,0.02344 0.164,0.005 0.329187,0.0076 0.492187,0.01563 0.502,0.025 0.999188,0.05947 1.492188,0.105468 z" /><path
       transform="translate(0.001,18.527)"
       id="path22270"
       d="M 37.483746,34.961705 C 36.915996,34.849903 35.269455,34.520156 33.824767,34.228934 32.380078,33.937712 29.941334,32.878495 28.405336,31.875118 23.768581,28.846201 18.832697,26.539136 15.17368,25.690553 11.097833,24.745301 9.1306657,23.691866 8.384908,22.055106 c -1.381069,-3.031116 4.35138,-5.867424 11.858624,-5.867424 3.616359,0 4.863222,-0.364282 20.248917,-5.915884 L 56.887712,4.3559151 72.863514,10.118532 c 8.78669,3.169438 15.974962,5.889651 15.97394,6.044917 -10e-4,0.155265 -4.123661,1.769262 -9.16142,3.586659 -20.40687,7.361882 -21.804902,7.913127 -21.804902,8.59768 0,2.779563 -3.11345,5.008584 -8.628085,6.17713 -3.242609,0.687106 -9.338337,0.913525 -11.759301,0.436787 z"
       style="opacity:1;fill:#ffffff;fill-opacity:1;stroke:none;stroke-width:5;stroke-linecap:round;stroke-linejoin:round;stroke-miterlimit:4;stroke-dasharray:none;stroke-dashoffset:0;stroke-opacity:1;paint-order:normal" /></g><g
     id="BLT"
     transform="matrix(0.62562887,0,0,0.62562887,47.645431,91.259343)"><text
       xml:space="preserve"
       style="font-size:16.21595001px;line-height:1000%;letter-spacing:0px;word-spacing:0px;opacity:0.98999999;fill:#2d2d2d;fill-opacity:1;stroke:none;stroke-width:1px;stroke-linecap:butt;stroke-linejoin:miter;stroke-opacity:1"
       x="153.61676"
       y="70.169952"
       id="text22325"><tspan
         id="tspan22327"
         x="153.61676"
         y="70.169952"
         style="font-family:Montserrat, Impact, sans-serif;fill:#2d2d2d;fill-opacity:1">Bacon</tspan></text>
<text
       id="text22329"
       y="101.604"
       x="153.61676"
       style="font-size:16.21595001px;line-height:1000%;letter-spacing:0px;word-spacing:0px;opacity:0.98999999;fill:#2d2d2d;fill-opacity:1;stroke:none;stroke-width:1px;stroke-linecap:butt;stroke-linejoin:miter;stroke-opacity:1"
       xml:space="preserve"><tspan
         style="font-family:Montserrat, Impact, sans-serif;fill:#2d2d2d;fill-opacity:1"
         y="101.604"
         x="153.61676"
         id="tspan22331">Lettuce</tspan></text>
<text
       xml:space="preserve"
       style="font-size:16.21595001px;line-height:1000%;letter-spacing:0px;word-spacing:0px;opacity:0.98999999;fill:#2d2d2d;fill-opacity:1;stroke:none;stroke-width:1px;stroke-linecap:butt;stroke-linejoin:miter;stroke-opacity:1"
       x="153.61676"
       y="131.15288"
       id="text22333"><tspan
         id="tspan22335"
         x="153.61676"
         y="131.15288"
         style="font-family:Montserrat, Impact, sans-serif;fill:#2d2d2d;fill-opacity:1">Tomato</tspan></text>
</g><rect
     ry="0"
     rx="0"
     y="161.80429"
     x="140.60866"
     height="16.05925"
     width="45.322769"
     id="rect4262"
     style="opacity:0.98999999;fill:none;fill-opacity:1;stroke:#9c3a63;stroke-width:1.29999995;stroke-linecap:round;stroke-linejoin:round;stroke-miterlimit:4;stroke-dasharray:none;stroke-dashoffset:0;stroke-opacity:1;paint-order:normal" /></svg>