<?xml version="1.0" encoding="UTF-8" standalone="no"?>
<!DOCTYPE svg PUBLIC "-//W3C//DTD SVG 1.1//EN" "http://www.w3.org/Graphics/SVG/1.1/DTD/svg11.dtd">
<!-- Generated by Microsoft Visio, SVG Export il_testy_test.svg Page-1 -->
<svg xmlns="http://www.w3.org/2000/svg" xmlns:xlink="http://www.w3.org/1999/xlink" xmlns:ev="http://www.w3.org/2001/xml-events"
		xmlns:v="http://schemas.microsoft.com/visio/2003/SVGExtensions/" width="4.46965in" height="2.59674in"
		viewBox="0 0 321.815 186.965" xml:space="preserve" color-interpolation-filters="sRGB" class="st34">
	<title>source_testingtest.vsdm</title>
	<v:documentProperties v:langID="1033" v:viewMarkup="false"/>

	<style type="text/css">
	<![CDATA[
		.st1 {fill:#068dca;stroke:#068dca;stroke-linecap:round;stroke-linejoin:round;stroke-width:1}
		.st2 {fill:#ffffff;font-family:sans-serif;font-size:0.666664em;font-weight:bold}
		.st3 {font-size:1em;font-weight:normal}
		.st4 {fill:#068dca;stroke:#068dca;stroke-linecap:butt;stroke-width:1}
		.st5 {fill:#ffffff;font-family:sans-serif;font-size:0.666664em}
		.st6 {fill:#ffffff;stroke:#6e828b;stroke-linecap:butt;stroke-width:1}
		.st7 {fill:#6e828b;font-family:sans-serif;font-size:0.666664em}
		.st8 {fill:#ffffff;stroke:#000000;stroke-linecap:round;stroke-linejoin:round;stroke-width:1}
		.st9 {fill:#000000;font-family:sans-serif;font-size:0.666664em}
		.st10 {fill:#ffffff;stroke:#068dca;stroke-linecap:butt;stroke-width:1}
		.st11 {fill:#068dca;font-family:sans-serif;font-size:0.666664em}
		.st12 {fill:#ffffff;stroke:#6e828b;stroke-dasharray:4,2;stroke-linecap:butt;stroke-width:1}
		.st13 {fill:#000000;font-family:sans-serif;font-size:0.666664em;font-weight:bold}
		.st14 {fill:#ffffff;stroke:#068dca;stroke-linecap:round;stroke-linejoin:round;stroke-width:1}
		.st15 {fill:#068dca;font-family:sans-serif;font-size:0.666664em;font-weight:bold}
		.st16 {fill:#ffffff;stroke:#068dca;stroke-width:1}
		.st17 {fill:#ffffff;stroke:#6e828b;stroke-linecap:round;stroke-linejoin:round;stroke-width:1}
		.st18 {fill:#6e828b;font-family:sans-serif;font-size:0.666664em;font-weight:bold}
		.st19 {fill:#ffffff;stroke:#6e828b;stroke-dasharray:3,3;stroke-width:1}
		.st20 {marker-end:url(#mrkr4-66);stroke:#000000;stroke-linecap:butt;stroke-width:2}
		.st21 {fill:#000000;fill-opacity:1;stroke:#000000;stroke-opacity:1;stroke-width:0.52631578947368}
		.st22 {marker-end:url(#mrkr4-72);stroke:#068dca;stroke-linecap:butt;stroke-width:1}
		.st23 {fill:#068dca;fill-opacity:1;stroke:#068dca;stroke-opacity:1;stroke-width:0.35714285714286}
		.st24 {marker-end:url(#mrkr4-78);stroke:#6e828b;stroke-linecap:butt;stroke-width:1}
		.st25 {fill:#6e828b;fill-opacity:1;stroke:#6e828b;stroke-opacity:1;stroke-width:0.35714285714286}
		.st26 {marker-end:url(#mrkr4-78);stroke:#6e828b;stroke-dasharray:4,2;stroke-linecap:butt;stroke-width:1}
		.st27 {marker-end:url(#mrkr4-89);stroke:#000000;stroke-linecap:butt;stroke-width:1}
		.st28 {fill:#000000;fill-opacity:1;stroke:#000000;stroke-opacity:1;stroke-width:0.35714285714286}
		.st29 {fill:#000000;stroke:#000000;stroke-linecap:butt;stroke-width:1}
		.st30 {fill:#ffffff;stroke:#000000;stroke-linecap:butt;stroke-width:1}
		.st31 {fill:#000000}
		.st32 {stroke:none;stroke-linecap:butt;stroke-width:0.792}
		.st33 {fill:#000000;stroke:none;stroke-linecap:butt;stroke-width:0.792}
		.st34 {fill:none;fill-rule:evenodd;font-size:12px;overflow:visible;stroke-linecap:square;stroke-miterlimit:3}
	]]>
	</style>

	<defs id="Markers">
		<g id="lend4">
			<path d="M 2 1 L 0 0 L 2 -1 L 2 1 " style="stroke:none"/>
		</g>
		<marker id="mrkr4-66" class="st21" v:arrowType="4" v:arrowSize="1" v:setback="3.8" refX="-3.8" orient="auto"
				markerUnits="strokeWidth" overflow="visible">
			<use xlink:href="#lend4" transform="scale(-1.9,-1.9) "/>
		</marker>
		<marker id="mrkr4-72" class="st23" v:arrowType="4" v:arrowSize="1" v:setback="5.6" refX="-5.6" orient="auto"
				markerUnits="strokeWidth" overflow="visible">
			<use xlink:href="#lend4" transform="scale(-2.8,-2.8) "/>
		</marker>
		<marker id="mrkr4-78" class="st25" v:arrowType="4" v:arrowSize="1" v:setback="5.6" refX="-5.6" orient="auto"
				markerUnits="strokeWidth" overflow="visible">
			<use xlink:href="#lend4" transform="scale(-2.8,-2.8) "/>
		</marker>
		<marker id="mrkr4-89" class="st28" v:arrowType="4" v:arrowSize="1" v:setback="5.6" refX="-5.6" orient="auto"
				markerUnits="strokeWidth" overflow="visible">
			<use xlink:href="#lend4" transform="scale(-2.8,-2.8) "/>
		</marker>
	</defs>
	<g v:mID="0" v:index="1" v:groupContext="foregroundPage">
		<title>Page-1</title>
		<v:pageProperties v:drawingScale="1" v:pageScale="1" v:drawingUnits="0" v:shadowOffsetX="9" v:shadowOffsetY="-9"/>
		<v:layer v:name="Connector" v:index="0"/>
		<v:layer v:name="Flowchart" v:index="1"/>
		<g id="shape18-1" v:mID="18" v:groupContext="shape" transform="translate(69.0315,-111.551)">
			<title>Encoder 7</title>
			<desc>xxx encoder</desc>
			<v:textBlock v:margins="rect(5,5,5,5)" v:tabSpace="42.5197"/>
			<v:textRect cx="28.3465" cy="172.792" width="56.7" height="28.3465"/>
			<path d="M39.94 158.62 L5.67 158.62 A5.66929 5.66929 -180 0 0 -0 164.29 L0 181.3 A5.66929 5.66929 -180 0 0 5.67 186.97
						 L51.02 186.97 A5.66929 5.66929 -180 0 0 56.69 181.3 L56.69 175.37 A5.66929 5.66929 -180 0 0 55.03 171.36
						 L43.95 160.28 A5.66929 5.66929 -180 0 0 39.94 158.62 Z" class="st1"/>
			<text x="5" y="170.39" class="st2" v:langID="1045"><v:paragraph/><v:tabList/>xxx<v:newlineChar/><tspan x="5" dy="1.2em"
						class="st3" v:langID="1031">en</tspan><tspan class="st3" v:langID="1033">coder</tspan></text>		</g>
		<g id="shape19-6" v:mID="19" v:groupContext="shape" transform="translate(1,-111.551)">
			<title>Component 7</title>
			<desc>Component</desc>
			<v:textBlock v:margins="rect(5,5,5,5)" v:tabSpace="42.5197"/>
			<v:textRect cx="28.3465" cy="172.792" width="56.7" height="28.3465"/>
			<rect x="0" y="158.619" width="56.6929" height="28.3465" rx="5.66929" ry="5.66929" class="st4"/>
			<text x="8.48" y="175.19" class="st5" v:langID="1033"><v:paragraph v:horizAlign="1"/><v:tabList/>Component</text>		</g>
		<g id="shape20-9" v:mID="20" v:groupContext="shape" transform="translate(193.756,-111.551) scale(-1,1)">
			<title>Decoder 7</title>
			<desc>xxx decoder</desc>
			<v:custProps>
				<v:cp v:nameU="Row_1" v:lbl="Property1" v:type="0" v:format="@" v:langID="1033" v:val="VT4(Active decoder)"/>
			</v:custProps>
			<v:userDefs>
				<v:ud v:nameU="msvThemeColors" v:val="VT0(0):26"/>
			</v:userDefs>
			<v:textBlock v:margins="rect(5,5,5,5)" v:tabSpace="42.5197"/>
			<v:textRect cx="28.3465" cy="172.792" width="56.7" height="28.3465"/>
			<path d="M39.94 158.62 L5.67 158.62 A5.66929 5.66929 -180 0 0 -0 164.29 L0 181.3 A5.66929 5.66929 -180 0 0 5.67 186.97
						 L51.02 186.97 A5.66929 5.66929 -180 0 0 56.69 181.3 L56.69 175.37 A5.66929 5.66929 -180 0 0 55.03 171.36
						 L43.95 160.28 A5.66929 5.66929 -180 0 0 39.94 158.62 Z" class="st1"/>
			<text x="-17.34" y="170.39" transform="scale(-1,1)" class="st2" v:langID="1033"><v:paragraph v:horizAlign="2"/><v:tabList/>xxx<v:newlineChar/><tspan
						x="-32.58" dy="1.2em" class="st3">decoder</tspan></text>		</g>
		<g id="shape21-13" v:mID="21" v:groupContext="shape" transform="translate(1,-37.8504)">
			<title>Component 3</title>
			<desc>Component</desc>
			<v:textBlock v:margins="rect(5,5,5,5)" v:tabSpace="42.5197"/>
			<v:textRect cx="28.3465" cy="172.792" width="56.7" height="28.3465"/>
			<rect x="0" y="158.619" width="56.6929" height="28.3465" rx="5.66929" ry="5.66929" class="st6"/>
			<text x="8.48" y="175.19" class="st7" v:langID="1033"><v:paragraph v:horizAlign="1"/><v:tabList/>Component</text>		</g>
		<g id="shape22-16" v:mID="22" v:groupContext="shape" transform="translate(1,-148.402)">
			<title>Component</title>
			<desc>Component</desc>
			<v:textBlock v:margins="rect(5,5,5,5)" v:tabSpace="42.5197"/>
			<v:textRect cx="28.3465" cy="172.792" width="56.7" height="28.3465"/>
			<rect x="0" y="158.619" width="56.6929" height="28.3465" rx="5.66929" ry="5.66929" class="st8"/>
			<text x="8.48" y="175.19" class="st9" v:langID="1033"><v:paragraph v:horizAlign="1"/><v:tabList/>Component</text>		</g>
		<g id="shape23-19" v:mID="23" v:groupContext="shape" transform="translate(1,-74.7008)">
			<title>Component 5</title>
			<desc>Component</desc>
			<v:textBlock v:margins="rect(5,5,5,5)" v:tabSpace="42.5197"/>
			<v:textRect cx="28.3465" cy="172.792" width="56.7" height="28.3465"/>
			<rect x="0" y="158.619" width="56.6929" height="28.3465" rx="5.66929" ry="5.66929" class="st10"/>
			<text x="8.48" y="175.19" class="st11" v:langID="1033"><v:paragraph v:horizAlign="1"/><v:tabList/>Component</text>		</g>
		<g id="shape24-22" v:mID="24" v:groupContext="shape" transform="translate(1,-1)">
			<title>Component 4</title>
			<desc>Component</desc>
			<v:textBlock v:margins="rect(5,5,5,5)" v:tabSpace="42.5197"/>
			<v:textRect cx="28.3465" cy="172.792" width="56.7" height="28.3465"/>
			<rect x="0" y="158.619" width="56.6929" height="28.3465" rx="5.66929" ry="5.66929" class="st12"/>
			<text x="8.48" y="175.19" class="st7" v:langID="1033"><v:paragraph v:horizAlign="1"/><v:tabList/>Component</text>		</g>
		<g id="shape25-25" v:mID="25" v:groupContext="shape" transform="translate(69.0315,-148.402)">
			<title>Encoder</title>
			<desc>xxx encoder</desc>
			<v:textBlock v:margins="rect(5,5,5,5)" v:tabSpace="42.5197"/>
			<v:textRect cx="28.3465" cy="172.792" width="56.7" height="28.3465"/>
			<path d="M39.94 158.62 L5.67 158.62 A5.66929 5.66929 -180 0 0 -0 164.29 L0 181.3 A5.66929 5.66929 -180 0 0 5.67 186.97
						 L51.02 186.97 A5.66929 5.66929 -180 0 0 56.69 181.3 L56.69 175.37 A5.66929 5.66929 -180 0 0 55.03 171.36
						 L43.95 160.28 A5.66929 5.66929 -180 0 0 39.94 158.62 Z" class="st8"/>
			<text x="5" y="170.39" class="st13" v:langID="1045"><v:paragraph/><v:tabList/>xxx<v:newlineChar/><tspan x="5"
						dy="1.2em" class="st3" v:langID="1031">en</tspan><tspan class="st3" v:langID="1033">coder</tspan></text>		</g>
		<g id="shape26-30" v:mID="26" v:groupContext="shape" transform="translate(69.0315,-74.7008)">
			<title>Encoder 5</title>
			<desc>xxx encoder</desc>
			<v:textBlock v:margins="rect(5,5,5,5)" v:tabSpace="42.5197"/>
			<v:textRect cx="28.3465" cy="172.792" width="56.7" height="28.3465"/>
			<path d="M39.94 158.62 L5.67 158.62 A5.66929 5.66929 -180 0 0 -0 164.29 L0 181.3 A5.66929 5.66929 -180 0 0 5.67 186.97
						 L51.02 186.97 A5.66929 5.66929 -180 0 0 56.69 181.3 L56.69 175.37 A5.66929 5.66929 -180 0 0 55.03 171.36
						 L43.95 160.28 A5.66929 5.66929 -180 0 0 39.94 158.62 Z" class="st14"/>
			<text x="5" y="170.39" class="st15" v:langID="1045"><v:paragraph/><v:tabList/>xxx<v:newlineChar/><tspan x="5"
						dy="1.2em" class="st3" v:langID="1031">en</tspan><tspan class="st3" v:langID="1033">coder</tspan></text>		</g>
		<g id="shape27-35" v:mID="27" v:groupContext="shape" transform="translate(193.756,-74.7008) scale(-1,1)">
			<title>Decoder 5</title>
			<desc>xxx decoder</desc>
			<v:custProps>
				<v:cp v:nameU="Row_1" v:lbl="Property1" v:type="0" v:format="@" v:langID="1033" v:val="VT4(Active decoder)"/>
			</v:custProps>
			<v:userDefs>
				<v:ud v:nameU="msvThemeColors" v:val="VT0(0):26"/>
			</v:userDefs>
			<v:textBlock v:margins="rect(5,5,5,5)" v:tabSpace="42.5197"/>
			<v:textRect cx="28.3465" cy="172.792" width="56.7" height="28.3465"/>
			<path d="M39.94 158.62 L5.67 158.62 A5.66929 5.66929 -180 0 0 -0 164.29 L0 181.3 A5.66929 5.66929 -180 0 0 5.67 186.97
						 L51.02 186.97 A5.66929 5.66929 -180 0 0 56.69 181.3 L56.69 175.37 A5.66929 5.66929 -180 0 0 55.03 171.36
						 L43.95 160.28 A5.66929 5.66929 -180 0 0 39.94 158.62 Z" class="st16"/>
			<text x="-17.34" y="170.39" transform="scale(-1,1)" class="st15" v:langID="1033"><v:paragraph v:horizAlign="2"/><v:tabList/>xxx<v:newlineChar/><tspan
						x="-32.58" dy="1.2em" class="st3">decoder</tspan></text>		</g>
		<g id="shape28-39" v:mID="28" v:groupContext="shape" transform="translate(69.0315,-37.8504)">
			<title>Encoder 3</title>
			<desc>xxx encoder</desc>
			<v:textBlock v:margins="rect(5,5,5,5)" v:tabSpace="42.5197"/>
			<v:textRect cx="28.3465" cy="172.792" width="56.7" height="28.3465"/>
			<path d="M39.94 158.62 L5.67 158.62 A5.66929 5.66929 -180 0 0 -0 164.29 L0 181.3 A5.66929 5.66929 -180 0 0 5.67 186.97
						 L51.02 186.97 A5.66929 5.66929 -180 0 0 56.69 181.3 L56.69 175.37 A5.66929 5.66929 -180 0 0 55.03 171.36
						 L43.95 160.28 A5.66929 5.66929 -180 0 0 39.94 158.62 Z" class="st17"/>
			<text x="5" y="170.39" class="st18" v:langID="1045"><v:paragraph/><v:tabList/>xxx<v:newlineChar/><tspan x="5"
						dy="1.2em" class="st3" v:langID="1031">en</tspan><tspan class="st3" v:langID="1033">coder</tspan></text>		</g>
		<g id="shape29-44" v:mID="29" v:groupContext="shape" transform="translate(69.0315,-1)">
			<title>Encoder 4</title>
			<desc>xxx encoder</desc>
			<v:textBlock v:margins="rect(5,5,5,5)" v:tabSpace="42.5197"/>
			<v:textRect cx="28.3465" cy="172.792" width="56.7" height="28.3465"/>
			<path d="M39.94 158.62 L5.67 158.62 A5.66929 5.66929 -180 0 0 -0 164.29 L0 181.3 A5.66929 5.66929 -180 0 0 5.67 186.97
						 L51.02 186.97 A5.66929 5.66929 -180 0 0 56.69 181.3 L56.69 175.37 A5.66929 5.66929 -180 0 0 55.03 171.36
						 L43.95 160.28 A5.66929 5.66929 -180 0 0 39.94 158.62 Z" class="st19"/>
			<text x="5" y="170.39" class="st18" v:langID="1045"><v:paragraph/><v:tabList/>xxx<v:newlineChar/><tspan x="5"
						dy="1.2em" class="st3" v:langID="1031">en</tspan><tspan class="st3" v:langID="1033">coder</tspan></text>		</g>
		<g id="shape30-49" v:mID="30" v:groupContext="shape" transform="translate(193.756,-148.402) scale(-1,1)">
			<title>Decoder</title>
			<desc>xxx decoder</desc>
			<v:custProps>
				<v:cp v:nameU="Row_1" v:lbl="Property1" v:type="0" v:format="@" v:langID="1033" v:val="VT4(Active decoder)"/>
			</v:custProps>
			<v:userDefs>
				<v:ud v:nameU="msvThemeColors" v:val="VT0(0):26"/>
			</v:userDefs>
			<v:textBlock v:margins="rect(5,5,5,5)" v:tabSpace="42.5197"/>
			<v:textRect cx="28.3465" cy="172.792" width="56.7" height="28.3465"/>
			<path d="M39.94 158.62 L5.67 158.62 A5.66929 5.66929 -180 0 0 -0 164.29 L0 181.3 A5.66929 5.66929 -180 0 0 5.67 186.97
						 L51.02 186.97 A5.66929 5.66929 -180 0 0 56.69 181.3 L56.69 175.37 A5.66929 5.66929 -180 0 0 55.03 171.36
						 L43.95 160.28 A5.66929 5.66929 -180 0 0 39.94 158.62 Z" class="st8"/>
			<text x="-17.34" y="170.39" transform="scale(-1,1)" class="st13" v:langID="1033"><v:paragraph v:horizAlign="2"/><v:tabList/>xxx<v:newlineChar/><tspan
						x="-32.58" dy="1.2em" class="st3">decoder</tspan></text>		</g>
		<g id="shape31-53" v:mID="31" v:groupContext="shape" transform="translate(193.756,-37.8504) scale(-1,1)">
			<title>Decoder 3</title>
			<desc>xxx decoder</desc>
			<v:custProps>
				<v:cp v:nameU="Row_1" v:lbl="Property1" v:type="0" v:format="@" v:langID="1033" v:val="VT4(Active decoder)"/>
			</v:custProps>
			<v:userDefs>
				<v:ud v:nameU="msvThemeColors" v:val="VT0(0):26"/>
			</v:userDefs>
			<v:textBlock v:margins="rect(5,5,5,5)" v:tabSpace="42.5197"/>
			<v:textRect cx="28.3465" cy="172.792" width="56.7" height="28.3465"/>
			<path d="M39.94 158.62 L5.67 158.62 A5.66929 5.66929 -180 0 0 -0 164.29 L0 181.3 A5.66929 5.66929 -180 0 0 5.67 186.97
						 L51.02 186.97 A5.66929 5.66929 -180 0 0 56.69 181.3 L56.69 175.37 A5.66929 5.66929 -180 0 0 55.03 171.36
						 L43.95 160.28 A5.66929 5.66929 -180 0 0 39.94 158.62 Z" class="st17"/>
			<text x="-17.34" y="170.39" transform="scale(-1,1)" class="st18" v:langID="1033"><v:paragraph v:horizAlign="2"/><v:tabList/>xxx<v:newlineChar/><tspan
						x="-32.58" dy="1.2em" class="st3">decoder</tspan></text>		</g>
		<g id="shape32-57" v:mID="32" v:groupContext="shape" transform="translate(193.756,-1) scale(-1,1)">
			<title>Decoder 4</title>
			<desc>xxx decoder</desc>
			<v:custProps>
				<v:cp v:nameU="Row_1" v:lbl="Property1" v:type="0" v:format="@" v:langID="1033" v:val="VT4(Active decoder)"/>
			</v:custProps>
			<v:userDefs>
				<v:ud v:nameU="msvThemeColors" v:val="VT0(0):26"/>
			</v:userDefs>
			<v:textBlock v:margins="rect(5,5,5,5)" v:tabSpace="42.5197"/>
			<v:textRect cx="28.3465" cy="172.792" width="56.7" height="28.3465"/>
			<path d="M39.94 158.62 L5.67 158.62 A5.66929 5.66929 -180 0 0 -0 164.29 L0 181.3 A5.66929 5.66929 -180 0 0 5.67 186.97
						 L51.02 186.97 A5.66929 5.66929 -180 0 0 56.69 181.3 L56.69 175.37 A5.66929 5.66929 -180 0 0 55.03 171.36
						 L43.95 160.28 A5.66929 5.66929 -180 0 0 39.94 158.62 Z" class="st19"/>
			<text x="-17.34" y="170.39" transform="scale(-1,1)" class="st18" v:langID="1033"><v:paragraph v:horizAlign="2"/><v:tabList/>xxx<v:newlineChar/><tspan
						x="-32.58" dy="1.2em" class="st3">decoder</tspan></text>		</g>
		<g id="shape33-61" v:mID="33" v:groupContext="shape" v:layerMember="0" transform="translate(205.094,-163.992)">
			<title>Connector 2</title>
			<path d="M0 179.88 L19.4 179.88" class="st20"/>
		</g>
		<g id="shape34-67" v:mID="34" v:groupContext="shape" v:layerMember="0" transform="translate(205.094,-141.315)">
			<title>Connector 4A</title>
			<path d="M0 179.88 L21.4 179.88" class="st22"/>
		</g>
		<g id="shape35-73" v:mID="35" v:groupContext="shape" v:layerMember="0" transform="translate(205.094,-129.976)">
			<title>Connector 3A</title>
			<path d="M0 179.88 L21.4 179.88" class="st24"/>
		</g>
		<g id="shape36-79" v:mID="36" v:groupContext="shape" v:layerMember="0" transform="translate(205.094,-118.638)">
			<title>Connector 3B</title>
			<path d="M0 179.88 L21.4 179.88" class="st26"/>
		</g>
		<g id="shape37-84" v:mID="37" v:groupContext="shape" v:layerMember="0" transform="translate(205.094,-152.654)">
			<title>Connector</title>
			<path d="M0 179.88 L21.4 179.88" class="st27"/>
		</g>
		<g id="group38-90" transform="translate(207.22,-104.465)" v:mID="38" v:groupContext="group">
			<title>1-to-2 switch</title>
			<g id="shape39-91" v:mID="39" v:groupContext="shape" transform="translate(0,-2.83465)">
				<title>Sheet.39</title>
				<ellipse cx="1.41732" cy="185.548" rx="1.41732" ry="1.41732" class="st29"/>
			</g>
			<g id="shape40-93" v:mID="40" v:groupContext="shape" transform="translate(4.25197,-5.66929)">
				<title>Sheet.40</title>
				<ellipse cx="1.41732" cy="185.548" rx="1.41732" ry="1.41732" class="st30"/>
			</g>
			<g id="shape41-95" v:mID="41" v:groupContext="shape" transform="translate(4.25197,5.68434E-14)">
				<title>Sheet.41</title>
				<ellipse cx="1.41732" cy="185.548" rx="1.41732" ry="1.41732" class="st30"/>
			</g>
		</g>
		<g id="group42-97" transform="translate(224.937,-101.63)" v:mID="42" v:groupContext="group">
			<title>1-to-3 switch</title>
			<g id="shape43-98" v:mID="43" v:groupContext="shape" transform="translate(2.8623,-11.3386)">
				<title>Sheet.43</title>
				<ellipse cx="1.41732" cy="185.548" rx="1.41732" ry="1.41732" class="st30"/>
			</g>
			<g id="shape44-100" v:mID="44" v:groupContext="shape" transform="translate(2.8623,-1.13687E-13)">
				<title>Sheet.44</title>
				<ellipse cx="1.41732" cy="185.548" rx="1.41732" ry="1.41732" class="st30"/>
			</g>
			<g id="shape45-102" v:mID="45" v:groupContext="shape" transform="translate(4.2466E-14,-5.66929)">
				<title>Sheet.45</title>
				<ellipse cx="1.41732" cy="185.548" rx="1.41732" ry="1.41732" class="st29"/>
			</g>
			<g id="shape46-104" v:mID="46" v:groupContext="shape" transform="translate(5.66929,-5.66929)">
				<title>Sheet.46</title>
				<ellipse cx="1.41732" cy="185.548" rx="1.41732" ry="1.41732" class="st30"/>
			</g>
		</g>
		<g id="shape47-106" v:mID="47" v:groupContext="shape" v:layerMember="1" transform="translate(250.449,-134.228)">
			<title>Decision_1</title>
			<desc>Decision</desc>
			<v:custProps>
				<v:cp v:nameU="Cost" v:lbl="Cost" v:prompt="" v:type="7" v:format="@" v:sortKey="" v:invis="false" v:ask="false"
						v:langID="1033" v:cal="0"/>
				<v:cp v:nameU="ProcessNumber" v:lbl="Process Number" v:prompt="" v:type="2" v:format="" v:sortKey=""
						v:invis="false" v:ask="false" v:langID="1033" v:cal="0"/>
				<v:cp v:nameU="Owner" v:lbl="Owner" v:prompt="" v:type="0" v:format="" v:sortKey="" v:invis="false" v:ask="false"
						v:langID="1033" v:cal="0"/>
				<v:cp v:nameU="Function" v:lbl="Function" v:prompt="" v:type="0" v:format="" v:sortKey="" v:invis="false"
						v:ask="false" v:langID="1033" v:cal="0" v:val="VT4()"/>
				<v:cp v:nameU="StartDate" v:lbl="Start Date" v:prompt="" v:type="5" v:format="" v:sortKey="" v:invis="false"
						v:ask="false" v:langID="1033" v:cal="0"/>
				<v:cp v:nameU="EndDate" v:lbl="End Date" v:prompt="" v:type="5" v:format="" v:sortKey="" v:invis="false"
						v:ask="false" v:langID="1033" v:cal="0"/>
				<v:cp v:nameU="Status" v:lbl="Status" v:prompt="" v:type="4"
						v:format=";Not Started;In Progress;Completed;Deferred;Waiting on Input" v:sortKey="" v:invis="false"
						v:ask="false" v:langID="1033" v:cal="0" v:val="VT4()"/>
			</v:custProps>
			<v:userDefs>
				<v:ud v:nameU="visVersion" v:prompt="" v:val="VT0(15):26"/>
				<v:ud v:nameU="DefaultWidth" v:prompt="" v:val="VT0(0.98425196850394):24"/>
				<v:ud v:nameU="DefaultHeight" v:prompt="" v:val="VT0(0.59055118110236):24"/>
				<v:ud v:nameU="ResizeTxtHeight" v:prompt="" v:val="VT0(0.59055118110236):24"/>
			</v:userDefs>
			<v:textBlock v:margins="rect(2,2,2,2)" v:tabSpace="42.5197"/>
			<v:textRect cx="35.4331" cy="165.706" width="59.06" height="31.8898"/>
			<path d="M0 165.71 L35.43 144.45 L70.87 165.71 L35.43 186.97 L0 165.71 Z" class="st8"/>
			<text x="21.17" y="168.11" class="st9" v:langID="1033"><v:paragraph v:horizAlign="1"/><v:tabList/>Decision</text>		</g>
		<g id="shape48-109" v:mID="48" v:groupContext="shape" v:layerMember="1" transform="translate(250.449,-94.5433)">
			<title>Start/End_1</title>
			<desc>Start/End</desc>
			<v:custProps>
				<v:cp v:nameU="Cost" v:lbl="Cost" v:prompt="" v:type="7" v:format="@" v:sortKey="" v:invis="false" v:ask="false"
						v:langID="1033" v:cal="0"/>
				<v:cp v:nameU="ProcessNumber" v:lbl="Process Number" v:prompt="" v:type="2" v:format="" v:sortKey=""
						v:invis="false" v:ask="false" v:langID="1033" v:cal="0"/>
				<v:cp v:nameU="Owner" v:lbl="Owner" v:prompt="" v:type="0" v:format="" v:sortKey="" v:invis="false" v:ask="false"
						v:langID="1033" v:cal="0"/>
				<v:cp v:nameU="Function" v:lbl="Function" v:prompt="" v:type="0" v:format="" v:sortKey="" v:invis="false"
						v:ask="false" v:langID="1033" v:cal="0" v:val="VT4()"/>
				<v:cp v:nameU="StartDate" v:lbl="Start Date" v:prompt="" v:type="5" v:format="" v:sortKey="" v:invis="false"
						v:ask="false" v:langID="1033" v:cal="0"/>
				<v:cp v:nameU="EndDate" v:lbl="End Date" v:prompt="" v:type="5" v:format="" v:sortKey="" v:invis="false"
						v:ask="false" v:langID="1033" v:cal="0"/>
				<v:cp v:nameU="Status" v:lbl="Status" v:prompt="" v:type="4"
						v:format=";Not Started;In Progress;Completed;Deferred;Waiting on Input" v:sortKey="" v:invis="false"
						v:ask="false" v:langID="1033" v:cal="0" v:val="VT4()"/>
			</v:custProps>
			<v:userDefs>
				<v:ud v:nameU="visVersion" v:prompt="" v:val="VT0(15):26"/>
				<v:ud v:nameU="DefaultWidth" v:prompt="" v:val="VT0(0.98425196850394):24"/>
				<v:ud v:nameU="DefaultHeight" v:prompt="" v:val="VT0(0.39370078740157):24"/>
				<v:ud v:nameU="ResizeTxtHeight" v:prompt="" v:val="VT0(0.39370078740157):24"/>
			</v:userDefs>
			<v:textBlock v:margins="rect(2,2,2,2)" v:tabSpace="42.5197"/>
			<v:textRect cx="35.4331" cy="172.792" width="70.87" height="28.3465"/>
			<path d="M14.17 186.97 L56.69 186.97 A14.1732 14.1732 -180 0 0 56.69 158.62 L14.17 158.62 A14.1732 14.1732 -180 1 0 14.17
						 186.97 Z" class="st8"/>
			<text x="19.27" y="175.19" class="st9" v:langID="1033"><v:paragraph v:horizAlign="1"/><v:tabList/>Start/End</text>		</g>
		<g id="group93-112" transform="translate(210.481,-20.8425)" v:mID="93" v:groupContext="group">
			<title>AudioConsole.139</title>
			<g id="shape94-113" v:mID="94" v:groupContext="shape">
				<title>Sheet.94</title>
				<path d="M44.14 185.47 L1.51 185.47 L1.51 142.86 L44.14 142.86 L44.14 185.47 ZM43.96 141.36 L1.67 141.36 C0.75 141.36
							 0 142.11 0 143.03 L0 185.29 C0 186.22 0.75 186.97 1.67 186.97 L43.96 186.97 C44.89 186.97 45.64 186.22
							 45.64 185.29 L45.64 143.04 C45.64 142.11 44.89 141.36 43.96 141.36 L43.96 141.36 Z" class="st31"/>
				<path d="M44.14 185.47 L1.51 185.47 L1.51 142.86 L44.14 142.86 L44.14 185.47M43.96 141.36 L1.67 141.36 C0.75 141.36
							 0 142.11 0 143.03 L0 185.29 C0 186.22 0.75 186.97 1.67 186.97 L43.96 186.97 C44.89 186.97 45.64 186.22
							 45.64 185.29 L45.64 143.04 C45.64 142.11 44.89 141.36 43.96 141.36" class="st32"/>
			</g>
			<g id="shape95-116" v:mID="95" v:groupContext="shape" transform="translate(3.03332,-3.02723)">
				<title>Sheet.95</title>
				<path d="M3.05 177.83 L1.51 177.83 L1.51 174.78 L3.05 174.78 L3.05 177.83 ZM3.76 173.27 L3.03 173.27 L3.03 171.75
							 L1.51 171.75 L1.51 173.27 L0.81 173.27 C0.36 173.27 0 173.63 0 174.08 L0 178.54 C0 178.99 0.36 179.35
							 0.81 179.35 L1.51 179.35 L1.51 186.97 L3.03 186.97 L3.03 179.34 L3.75 179.34 C4.2 179.35 4.56 178.99
							 4.56 178.54 L4.56 174.08 C4.56 173.63 4.2 173.27 3.75 173.27 L3.76 173.27 Z" class="st31"/>
				<path d="M3.05 177.83 L1.51 177.83 L1.51 174.78 L3.05 174.78 L3.05 177.83M3.76 173.27 L3.03 173.27 L3.03 171.75 L1.51
							 171.75 L1.51 173.27 L0.81 173.27 C0.36 173.27 0 173.63 0 174.08 L0 178.54 C0 178.99 0.36 179.35 0.81
							 179.35 L1.51 179.35 L1.51 186.97 L3.03 186.97 L3.03 179.34 L3.75 179.34 C4.2 179.35 4.56 178.99 4.56
							 178.54 L4.56 174.08 C4.56 173.63 4.2 173.27 3.75 173.27" class="st32"/>
			</g>
			<g id="shape96-119" v:mID="96" v:groupContext="shape" transform="translate(9.13798,-3.01963)">
				<title>Sheet.96</title>
				<path d="M3.05 179.36 L1.51 179.36 L1.51 176.31 L3.05 176.31 L3.05 179.36 L3.05 179.36 ZM3.75 174.8 L3.03 174.8 L3.03
							 171.75 L1.52 171.75 L1.52 174.8 L0.81 174.8 C0.36 174.8 0 175.16 0 175.6 L0 180.06 C0 180.51 0.36 180.87
							 0.81 180.87 L1.52 180.87 L1.52 186.97 L3.03 186.97 L3.03 180.87 L3.75 180.87 C4.2 180.87 4.56 180.51
							 4.56 180.07 L4.56 175.61 C4.56 175.16 4.2 174.8 3.75 174.8 L3.75 174.8 Z" class="st31"/>
				<path d="M3.05 179.36 L1.51 179.36 L1.51 176.31 L3.05 176.31 L3.05 179.36 L3.05 179.36M3.75 174.8 L3.03 174.8 L3.03
							 171.75 L1.52 171.75 L1.52 174.8 L0.81 174.8 C0.36 174.8 0 175.16 0 175.6 L0 180.06 C0 180.51 0.36 180.87
							 0.81 180.87 L1.52 180.87 L1.52 186.97 L3.03 186.97 L3.03 180.87 L3.75 180.87 C4.2 180.87 4.56 180.51
							 4.56 180.07 L4.56 175.61 C4.56 175.16 4.2 174.8 3.75 174.8" class="st32"/>
			</g>
			<g id="shape97-122" v:mID="97" v:groupContext="shape" transform="translate(15.2107,-3.01963)">
				<title>Sheet.97</title>
				<path d="M3.04 180.88 L1.51 180.88 L1.51 177.84 L3.04 177.84 L3.04 180.88 ZM3.75 176.32 L3.04 176.32 L3.04 171.75
							 L1.52 171.75 L1.52 176.32 L0.81 176.32 C0.36 176.32 0 176.68 0 177.12 L0 181.58 C0 182.03 0.36 182.39
							 0.81 182.39 L1.52 182.39 L1.52 186.97 L3.04 186.97 L3.04 182.39 L3.75 182.39 C4.2 182.4 4.57 182.04
							 4.57 181.59 L4.57 177.13 C4.57 176.68 4.2 176.32 3.75 176.32 L3.75 176.32 Z" class="st31"/>
				<path d="M3.04 180.88 L1.51 180.88 L1.51 177.84 L3.04 177.84 L3.04 180.88M3.75 176.32 L3.04 176.32 L3.04 171.75 L1.52
							 171.75 L1.52 176.32 L0.81 176.32 C0.36 176.32 0 176.68 0 177.12 L0 181.58 C0 182.03 0.36 182.39 0.81
							 182.39 L1.52 182.39 L1.52 186.97 L3.04 186.97 L3.04 182.39 L3.75 182.39 C4.2 182.4 4.57 182.04 4.57
							 181.59 L4.57 177.13 C4.57 176.68 4.2 176.32 3.75 176.32" class="st32"/>
			</g>
			<g id="shape98-125" v:mID="98" v:groupContext="shape" transform="translate(21.2956,-3.02875)">
				<title>Sheet.98</title>
				<path d="M3.05 183.92 L1.52 183.92 L1.52 180.87 L3.06 180.87 L3.06 183.92 L3.05 183.92 ZM3.76 179.36 L3.04 179.36
							 L3.04 171.75 L1.52 171.75 L1.52 179.36 L0.81 179.36 C0.36 179.36 0 179.72 0 180.17 L0 184.63 C0 185.07
							 0.36 185.43 0.81 185.43 L1.52 185.43 L1.52 186.97 L3.04 186.97 L3.04 185.43 L3.76 185.43 C4.2 185.43
							 4.57 185.07 4.57 184.62 L4.57 180.17 C4.57 179.72 4.2 179.36 3.76 179.36 L3.76 179.36 Z" class="st31"/>
				<path d="M3.05 183.92 L1.52 183.92 L1.52 180.87 L3.06 180.87 L3.06 183.92 L3.05 183.92M3.76 179.36 L3.04 179.36 L3.04
							 171.75 L1.52 171.75 L1.52 179.36 L0.81 179.36 C0.36 179.36 0 179.72 0 180.17 L0 184.63 C0 185.07 0.36
							 185.43 0.81 185.43 L1.52 185.43 L1.52 186.97 L3.04 186.97 L3.04 185.43 L3.76 185.43 C4.2 185.43 4.57
							 185.07 4.57 184.62 L4.57 180.17 C4.57 179.72 4.2 179.36 3.76 179.36" class="st32"/>
			</g>
			<g id="shape99-128" v:mID="99" v:groupContext="shape" transform="translate(2.46894,-37.6487)">
				<title>Sheet.99</title>
				<path d="M2.85 185.09 C2.26 185.09 1.9 184.45 2.19 183.94 C2.48 183.44 3.21 183.44 3.5 183.94 C3.57 184.06 3.61 184.19
							 3.61 184.32 C3.61 184.74 3.27 185.09 2.85 185.09 ZM2.85 182.04 C1.1 182.04 0 183.92 0.87 185.44 C1.73
							 186.96 3.92 186.97 4.8 185.45 C5 185.11 5.11 184.72 5.11 184.32 C5.11 183.07 4.1 182.06 2.85 182.05
							 L2.85 182.04 Z" class="st31"/>
				<path d="M2.85 185.09 C2.26 185.09 1.9 184.45 2.19 183.94 C2.48 183.44 3.21 183.44 3.5 183.94 C3.57 184.06 3.61 184.19
							 3.61 184.32 C3.61 184.74 3.27 185.09 2.85 185.09M2.85 182.04 C1.1 182.04 0 183.92 0.87 185.44 C1.73
							 186.96 3.92 186.97 4.8 185.45 C5 185.11 5.11 184.72 5.11 184.32 C5.11 183.07 4.1 182.06 2.85 182.05"
						class="st32"/>
			</g>
			<g id="shape100-131" v:mID="100" v:groupContext="shape" transform="translate(9.09995,-38.0017)">
				<title>Sheet.100</title>
				<path d="M2.26 183.92 C2.85 183.92 3.21 184.55 2.92 185.06 C2.63 185.57 1.9 185.57 1.6 185.06 C1.54 184.94 1.5 184.81
							 1.5 184.68 C1.5 184.26 1.84 183.92 2.26 183.92 ZM2.26 186.96 C4.01 186.97 5.11 185.08 4.24 183.56 C3.37
							 182.05 1.19 182.04 0.31 183.55 C0.11 183.89 0 184.28 0 184.68 C0 185.93 1.01 186.94 2.26 186.95 L2.26
							 186.96 Z" class="st31"/>
				<path d="M2.26 183.92 C2.85 183.92 3.21 184.55 2.92 185.06 C2.63 185.57 1.9 185.57 1.6 185.06 C1.54 184.94 1.5 184.81
							 1.5 184.68 C1.5 184.26 1.84 183.92 2.26 183.92M2.26 186.96 C4.01 186.97 5.11 185.08 4.24 183.56 C3.37
							 182.05 1.19 182.04 0.31 183.55 C0.11 183.89 0 184.28 0 184.68 C0 185.93 1.01 186.94 2.26 186.95"
						class="st32"/>
			</g>
			<g id="shape101-134" v:mID="101" v:groupContext="shape" transform="translate(15.2122,-38.0047)">
				<title>Sheet.101</title>
				<path d="M2.27 183.92 C2.85 183.92 3.22 184.55 2.93 185.06 C2.63 185.57 1.9 185.57 1.61 185.06 C1.54 184.95 1.51
							 184.81 1.51 184.68 C1.51 184.26 1.85 183.92 2.27 183.92 ZM2.27 186.96 C4.01 186.97 5.11 185.07 4.24
							 183.56 C3.36 182.05 1.18 182.04 0.31 183.56 C0.11 183.9 0 184.28 0 184.68 C0 185.93 1.01 186.95 2.26
							 186.95 L2.27 186.96 Z" class="st31"/>
				<path d="M2.27 183.92 C2.85 183.92 3.22 184.55 2.93 185.06 C2.63 185.57 1.9 185.57 1.61 185.06 C1.54 184.95 1.51
							 184.81 1.51 184.68 C1.51 184.26 1.85 183.92 2.27 183.92M2.27 186.96 C4.01 186.97 5.11 185.07 4.24 183.56
							 C3.36 182.05 1.18 182.04 0.31 183.56 C0.11 183.9 0 184.28 0 184.68 C0 185.93 1.01 186.95 2.26 186.95"
						class="st32"/>
			</g>
			<g id="shape102-137" v:mID="102" v:groupContext="shape" transform="translate(21.3062,-38.0001)">
				<title>Sheet.102</title>
				<path d="M2.26 183.92 C2.85 183.92 3.21 184.55 2.92 185.06 C2.63 185.56 1.9 185.56 1.6 185.06 C1.53 184.94 1.5 184.81
							 1.5 184.68 C1.5 184.26 1.84 183.92 2.26 183.92 ZM2.26 186.96 C4.01 186.97 5.11 185.08 4.24 183.56 C3.37
							 182.05 1.19 182.04 0.31 183.55 C0.11 183.89 0 184.28 0 184.68 C0 185.93 1.01 186.94 2.26 186.95 L2.26
							 186.96 Z" class="st31"/>
				<path d="M2.26 183.92 C2.85 183.92 3.21 184.55 2.92 185.06 C2.63 185.56 1.9 185.56 1.6 185.06 C1.53 184.94 1.5 184.81
							 1.5 184.68 C1.5 184.26 1.84 183.92 2.26 183.92M2.26 186.96 C4.01 186.97 5.11 185.08 4.24 183.56 C3.37
							 182.05 1.19 182.04 0.31 183.55 C0.11 183.89 0 184.28 0 184.68 C0 185.93 1.01 186.94 2.26 186.95"
						class="st32"/>
			</g>
			<g id="shape103-140" v:mID="103" v:groupContext="shape" transform="translate(2.46894,-25.4881)">
				<title>Sheet.103</title>
				<path d="M2.85 185.09 C2.26 185.09 1.9 184.45 2.19 183.94 C2.48 183.44 3.21 183.44 3.5 183.94 C3.57 184.06 3.61 184.19
							 3.61 184.32 C3.61 184.74 3.27 185.09 2.85 185.09 ZM2.85 182.04 C1.1 182.04 0 183.92 0.87 185.44 C1.73
							 186.96 3.92 186.97 4.8 185.45 C5 185.11 5.11 184.72 5.11 184.31 C5.1 183.07 4.09 182.06 2.85 182.05
							 L2.85 182.04 Z" class="st31"/>
				<path d="M2.85 185.09 C2.26 185.09 1.9 184.45 2.19 183.94 C2.48 183.44 3.21 183.44 3.5 183.94 C3.57 184.06 3.61 184.19
							 3.61 184.32 C3.61 184.74 3.27 185.09 2.85 185.09M2.85 182.04 C1.1 182.04 0 183.92 0.87 185.44 C1.73
							 186.96 3.92 186.97 4.8 185.45 C5 185.11 5.11 184.72 5.11 184.31 C5.1 183.07 4.09 182.06 2.85 182.05"
						class="st32"/>
			</g>
			<g id="shape104-143" v:mID="104" v:groupContext="shape" transform="translate(9.09995,-25.8501)">
				<title>Sheet.104</title>
				<path d="M2.26 183.92 C2.85 183.92 3.21 184.55 2.92 185.06 C2.63 185.57 1.9 185.57 1.6 185.06 C1.54 184.94 1.5 184.81
							 1.5 184.68 C1.5 184.26 1.84 183.92 2.26 183.92 ZM2.26 186.96 C4.01 186.97 5.11 185.08 4.24 183.56 C3.37
							 182.05 1.19 182.04 0.31 183.55 C0.11 183.9 0 184.29 0 184.69 C0 185.94 1.01 186.96 2.26 186.96 Z"
						class="st33"/>
			</g>
			<g id="shape105-145" v:mID="105" v:groupContext="shape" transform="translate(15.2122,-25.8532)">
				<title>Sheet.105</title>
				<path d="M2.27 183.92 C2.85 183.92 3.22 184.55 2.93 185.06 C2.63 185.57 1.9 185.57 1.61 185.06 C1.54 184.95 1.51
							 184.81 1.51 184.68 C1.51 184.26 1.85 183.92 2.27 183.92 ZM2.27 186.96 C4.01 186.97 5.11 185.07 4.24
							 183.56 C3.36 182.05 1.18 182.04 0.31 183.56 C0.11 183.9 0 184.29 0 184.69 C0 185.94 1.01 186.95 2.26
							 186.95 L2.27 186.96 Z" class="st31"/>
				<path d="M2.27 183.92 C2.85 183.92 3.22 184.55 2.93 185.06 C2.63 185.57 1.9 185.57 1.61 185.06 C1.54 184.95 1.51
							 184.81 1.51 184.68 C1.51 184.26 1.85 183.92 2.27 183.92M2.27 186.96 C4.01 186.97 5.11 185.07 4.24 183.56
							 C3.36 182.05 1.18 182.04 0.31 183.56 C0.11 183.9 0 184.29 0 184.69 C0 185.94 1.01 186.95 2.26 186.95"
						class="st32"/>
			</g>
			<g id="shape106-148" v:mID="106" v:groupContext="shape" transform="translate(21.3062,-25.8486)">
				<title>Sheet.106</title>
				<path d="M2.26 183.92 C2.85 183.92 3.21 184.55 2.92 185.06 C2.63 185.56 1.9 185.56 1.6 185.06 C1.53 184.94 1.5 184.81
							 1.5 184.68 C1.5 184.26 1.84 183.92 2.26 183.92 ZM2.26 186.96 C4.01 186.97 5.11 185.08 4.24 183.56 C3.37
							 182.05 1.19 182.04 0.31 183.55 C0.11 183.89 0 184.29 0 184.69 C0 185.94 1.01 186.95 2.26 186.96 Z"
						class="st33"/>
			</g>
			<g id="shape107-150" v:mID="107" v:groupContext="shape" transform="translate(2.46894,-19.4306)">
				<title>Sheet.107</title>
				<path d="M2.85 185.09 C2.26 185.09 1.9 184.45 2.19 183.94 C2.48 183.44 3.21 183.44 3.5 183.94 C3.57 184.06 3.61 184.19
							 3.61 184.32 C3.61 184.74 3.27 185.09 2.85 185.09 ZM2.85 182.04 C1.1 182.04 0 183.92 0.87 185.44 C1.73
							 186.96 3.92 186.97 4.8 185.45 C5 185.11 5.11 184.72 5.11 184.31 C5.11 183.06 4.1 182.05 2.85 182.04
							 Z" class="st33"/>
			</g>
			<g id="shape108-152" v:mID="108" v:groupContext="shape" transform="translate(9.09995,-19.7941)">
				<title>Sheet.108</title>
				<path d="M2.26 183.92 C2.85 183.92 3.21 184.55 2.92 185.06 C2.63 185.57 1.9 185.57 1.6 185.06 C1.54 184.94 1.5 184.81
							 1.5 184.68 C1.5 184.26 1.84 183.92 2.26 183.92 ZM2.26 186.96 C4.01 186.97 5.11 185.08 4.24 183.56 C3.37
							 182.05 1.19 182.04 0.31 183.55 C0.11 183.9 0 184.29 0 184.69 C0 185.94 1.01 186.96 2.26 186.96 Z"
						class="st33"/>
			</g>
			<g id="shape109-154" v:mID="109" v:groupContext="shape" transform="translate(15.2122,-19.7972)">
				<title>Sheet.109</title>
				<path d="M2.27 183.92 C2.85 183.92 3.22 184.55 2.93 185.06 C2.63 185.57 1.9 185.57 1.61 185.06 C1.54 184.95 1.51
							 184.81 1.51 184.68 C1.51 184.26 1.85 183.92 2.27 183.92 ZM2.27 186.96 C4.01 186.97 5.11 185.07 4.24
							 183.56 C3.36 182.05 1.18 182.04 0.31 183.56 C0.11 183.9 0 184.29 0 184.69 C0 185.94 1.01 186.95 2.26
							 186.96 L2.27 186.96 Z" class="st31"/>
				<path d="M2.27 183.92 C2.85 183.92 3.22 184.55 2.93 185.06 C2.63 185.57 1.9 185.57 1.61 185.06 C1.54 184.95 1.51
							 184.81 1.51 184.68 C1.51 184.26 1.85 183.92 2.27 183.92M2.27 186.96 C4.01 186.97 5.11 185.07 4.24 183.56
							 C3.36 182.05 1.18 182.04 0.31 183.56 C0.11 183.9 0 184.29 0 184.69 C0 185.94 1.01 186.95 2.26 186.96"
						class="st32"/>
			</g>
			<g id="shape110-157" v:mID="110" v:groupContext="shape" transform="translate(21.3062,-19.7926)">
				<title>Sheet.110</title>
				<path d="M2.26 183.92 C2.85 183.92 3.21 184.55 2.92 185.06 C2.63 185.56 1.9 185.56 1.6 185.06 C1.53 184.94 1.5 184.81
							 1.5 184.68 C1.5 184.26 1.84 183.92 2.26 183.92 ZM2.26 186.96 C4.01 186.97 5.11 185.08 4.24 183.56 C3.37
							 182.05 1.19 182.04 0.31 183.55 C0.11 183.89 0 184.29 0 184.69 C0 185.94 1.01 186.95 2.26 186.96 Z"
						class="st33"/>
			</g>
			<g id="shape111-159" v:mID="111" v:groupContext="shape" transform="translate(4.37808,-34.9759)">
				<title>Sheet.111</title>
				<path d="M1.65 186.2 C1.65 185.62 1.01 185.25 0.51 185.55 C0 185.84 0 186.57 0.51 186.86 C0.62 186.93 0.75 186.97
							 0.89 186.97 C1.31 186.97 1.65 186.62 1.65 186.2 Z" class="st33"/>
			</g>
			<g id="shape112-161" v:mID="112" v:groupContext="shape" transform="translate(10.6486,-34.7843)">
				<title>Sheet.112</title>
				<path d="M0 186.01 C0 186.6 0.63 186.97 1.14 186.67 C1.65 186.38 1.65 185.65 1.14 185.35 C1.03 185.29 0.89 185.25
							 0.76 185.25 C0.34 185.25 0 185.59 0 186.01 Z" class="st33"/>
			</g>
			<g id="shape113-163" v:mID="113" v:groupContext="shape" transform="translate(16.7213,-34.7843)">
				<title>Sheet.113</title>
				<path d="M0 186.01 C0 186.6 0.63 186.97 1.14 186.67 C1.65 186.38 1.65 185.65 1.14 185.35 C1.03 185.29 0.89 185.25
							 0.76 185.25 C0.34 185.25 0 185.59 0 186.01 Z" class="st33"/>
			</g>
			<g id="shape114-165" v:mID="114" v:groupContext="shape" transform="translate(22.794,-34.7843)">
				<title>Sheet.114</title>
				<path d="M0 186.01 C0 186.6 0.63 186.97 1.14 186.67 C1.65 186.38 1.65 185.65 1.14 185.35 C1.03 185.29 0.89 185.25
							 0.76 185.25 C0.34 185.25 0 185.59 0 186.01 Z" class="st33"/>
			</g>
			<g id="shape115-167" v:mID="115" v:groupContext="shape" transform="translate(28.9032,-41.0502)">
				<title>Sheet.115</title>
				<path d="M0.76 186.97 C1.35 186.97 1.71 186.33 1.42 185.82 C1.13 185.32 0.4 185.32 0.1 185.82 C0.03 185.94 0 186.07
							 0 186.2 C0 186.62 0.34 186.97 0.76 186.97 Z" class="st33"/>
			</g>
			<g id="shape116-169" v:mID="116" v:groupContext="shape" transform="translate(28.9032,-38.0077)">
				<title>Sheet.116</title>
				<path d="M0.76 186.97 C1.35 186.97 1.71 186.33 1.42 185.82 C1.13 185.32 0.4 185.32 0.1 185.82 C0.03 185.94 0 186.07
							 0 186.2 C0 186.62 0.34 186.97 0.76 186.97 Z" class="st33"/>
			</g>
			<g id="shape117-171" v:mID="117" v:groupContext="shape" transform="translate(31.9457,-41.0502)">
				<title>Sheet.117</title>
				<path d="M0.76 186.97 C1.35 186.97 1.71 186.33 1.42 185.82 C1.13 185.32 0.4 185.32 0.1 185.82 C0.03 185.94 0 186.07
							 0 186.2 C0 186.62 0.34 186.97 0.76 186.97 Z" class="st33"/>
			</g>
			<g id="shape118-173" v:mID="118" v:groupContext="shape" transform="translate(31.9457,-38.0077)">
				<title>Sheet.118</title>
				<path d="M0.76 186.97 C1.35 186.97 1.71 186.33 1.42 185.82 C1.13 185.32 0.4 185.32 0.1 185.82 C0.03 185.94 0 186.07
							 0 186.2 C0 186.62 0.34 186.97 0.76 186.97 Z" class="st33"/>
			</g>
			<g id="shape119-175" v:mID="119" v:groupContext="shape" transform="translate(34.9881,-41.0502)">
				<title>Sheet.119</title>
				<path d="M0.76 186.97 C1.35 186.97 1.71 186.33 1.42 185.82 C1.13 185.32 0.4 185.32 0.1 185.82 C0.03 185.94 0 186.07
							 0 186.2 C0 186.62 0.34 186.97 0.76 186.97 Z" class="st33"/>
			</g>
			<g id="shape120-177" v:mID="120" v:groupContext="shape" transform="translate(34.9881,-38.0077)">
				<title>Sheet.120</title>
				<path d="M0.76 186.97 C1.35 186.97 1.71 186.33 1.42 185.82 C1.13 185.32 0.4 185.32 0.1 185.82 C0.03 185.94 0 186.07
							 0 186.2 C0 186.62 0.34 186.97 0.76 186.97 Z" class="st33"/>
			</g>
			<g id="shape121-179" v:mID="121" v:groupContext="shape" transform="translate(38.0017,-41.0502)">
				<title>Sheet.121</title>
				<path d="M0.76 186.97 C1.35 186.97 1.71 186.33 1.42 185.82 C1.13 185.32 0.4 185.32 0.1 185.82 C0.03 185.94 0 186.07
							 0 186.2 C0 186.62 0.34 186.97 0.76 186.97 Z" class="st33"/>
			</g>
			<g id="shape122-181" v:mID="122" v:groupContext="shape" transform="translate(38.0017,-38.0077)">
				<title>Sheet.122</title>
				<path d="M0.76 186.97 C1.35 186.97 1.71 186.33 1.42 185.82 C1.13 185.32 0.4 185.32 0.1 185.82 C0.03 185.94 0 186.07
							 0 186.2 C0 186.62 0.34 186.97 0.76 186.97 Z" class="st33"/>
			</g>
			<g id="shape123-183" v:mID="123" v:groupContext="shape" transform="translate(40.8722,-40.9224)">
				<title>Sheet.123</title>
				<path d="M0.95 185.32 C0.37 185.32 0 185.95 0.29 186.46 C0.59 186.97 1.32 186.97 1.61 186.46 C1.68 186.34 1.71 186.21
							 1.71 186.08 C1.71 185.66 1.37 185.32 0.95 185.32 Z" class="st33"/>
			</g>
			<g id="shape124-185" v:mID="124" v:groupContext="shape" transform="translate(40.8722,-37.88)">
				<title>Sheet.124</title>
				<path d="M0.95 185.32 C0.37 185.32 0 185.95 0.29 186.46 C0.59 186.97 1.32 186.97 1.61 186.46 C1.68 186.34 1.71 186.21
							 1.71 186.08 C1.71 185.66 1.37 185.32 0.95 185.32 Z" class="st33"/>
			</g>
			<g id="shape125-187" v:mID="125" v:groupContext="shape" transform="translate(28.9032,-34.9653)">
				<title>Sheet.125</title>
				<path d="M0.76 186.97 C1.35 186.97 1.71 186.33 1.42 185.82 C1.13 185.32 0.4 185.32 0.1 185.82 C0.03 185.94 0 186.07
							 0 186.2 C0 186.62 0.34 186.97 0.76 186.97 Z" class="st33"/>
			</g>
			<g id="shape126-189" v:mID="126" v:groupContext="shape" transform="translate(31.9457,-34.9653)">
				<title>Sheet.126</title>
				<path d="M0.76 186.97 C1.35 186.97 1.71 186.33 1.42 185.82 C1.13 185.32 0.4 185.32 0.1 185.82 C0.03 185.94 0 186.07
							 0 186.2 C0 186.62 0.34 186.97 0.76 186.97 Z" class="st33"/>
			</g>
			<g id="shape127-191" v:mID="127" v:groupContext="shape" transform="translate(34.9881,-34.9653)">
				<title>Sheet.127</title>
				<path d="M0.76 186.97 C1.35 186.97 1.71 186.33 1.42 185.82 C1.13 185.32 0.4 185.32 0.1 185.82 C0.03 185.94 0 186.07
							 0 186.2 C0 186.62 0.34 186.97 0.76 186.97 Z" class="st33"/>
			</g>
			<g id="shape128-193" v:mID="128" v:groupContext="shape" transform="translate(38.0017,-34.9653)">
				<title>Sheet.128</title>
				<path d="M0.76 186.97 C1.35 186.97 1.71 186.33 1.42 185.82 C1.13 185.32 0.4 185.32 0.1 185.82 C0.03 185.94 0 186.07
							 0 186.2 C0 186.62 0.34 186.97 0.76 186.97 Z" class="st33"/>
			</g>
			<g id="shape129-195" v:mID="129" v:groupContext="shape" transform="translate(40.8722,-34.8375)">
				<title>Sheet.129</title>
				<path d="M0.95 185.32 C0.37 185.32 0 185.95 0.29 186.46 C0.59 186.97 1.32 186.97 1.61 186.46 C1.68 186.34 1.71 186.21
							 1.71 186.08 C1.71 185.66 1.37 185.32 0.95 185.32 Z" class="st33"/>
			</g>
			<g id="shape130-197" v:mID="130" v:groupContext="shape" transform="translate(28.8834,-15.197)">
				<title>Sheet.130</title>
				<path d="M3.05 185.45 L1.51 185.45 L1.51 183.92 L3.05 183.92 L3.05 185.45 ZM3.9 182.4 L0.66 182.4 C0.3 182.4 0 182.7
							 0 183.06 L0 186.3 C0 186.67 0.3 186.97 0.66 186.97 L3.9 186.97 C4.27 186.97 4.57 186.67 4.56 186.3 L4.56
							 183.06 C4.57 182.69 4.27 182.4 3.9 182.4 L3.9 182.4 Z" class="st31"/>
				<path d="M3.05 185.45 L1.51 185.45 L1.51 183.92 L3.05 183.92 L3.05 185.45M3.9 182.4 L0.66 182.4 C0.3 182.4 0 182.7
							 0 183.06 L0 186.3 C0 186.67 0.3 186.97 0.66 186.97 L3.9 186.97 C4.27 186.97 4.57 186.67 4.56 186.3 L4.56
							 183.06 C4.57 182.69 4.27 182.4 3.9 182.4" class="st32"/>
			</g>
			<g id="shape131-200" v:mID="131" v:groupContext="shape" transform="translate(38.023,-15.1924)">
				<title>Sheet.131</title>
				<path d="M3.05 185.45 L1.51 185.45 L1.51 183.91 L3.05 183.91 L3.05 185.45 ZM3.9 182.4 L0.66 182.4 C0.3 182.4 0 182.69
							 0 183.06 L0 186.3 C0 186.66 0.3 186.96 0.66 186.96 L3.9 186.96 C4.27 186.97 4.57 186.66 4.57 186.29
							 L4.57 183.06 C4.57 182.69 4.27 182.39 3.91 182.39 L3.9 182.4 Z" class="st31"/>
				<path d="M3.05 185.45 L1.51 185.45 L1.51 183.91 L3.05 183.91 L3.05 185.45M3.9 182.4 L0.66 182.4 C0.3 182.4 0 182.69
							 0 183.06 L0 186.3 C0 186.66 0.3 186.96 0.66 186.96 L3.9 186.96 C4.27 186.97 4.57 186.66 4.57 186.29
							 L4.57 183.06 C4.57 182.69 4.27 182.39 3.91 182.39" class="st32"/>
			</g>
			<g id="shape132-203" v:mID="132" v:groupContext="shape" transform="translate(28.9032,-9.10452)">
				<title>Sheet.132</title>
				<path d="M1.51 183.92 L3.04 183.92 L3.04 185.46 L1.51 185.46 L1.51 183.92 ZM0.76 186.97 L3.8 186.97 C4.22 186.97
							 4.56 186.62 4.56 186.2 L4.56 183.16 C4.56 182.74 4.22 182.4 3.8 182.4 L0.76 182.4 C0.34 182.4 0 182.74
							 0 183.16 L0 186.2 C0 186.62 0.34 186.97 0.76 186.97 Z" class="st33"/>
			</g>
			<g id="shape133-205" v:mID="133" v:groupContext="shape" transform="translate(38.0275,-9.09691)">
				<title>Sheet.133</title>
				<path d="M3.05 185.45 L1.51 185.45 L1.51 183.92 L3.05 183.92 L3.05 185.45 L3.05 185.45 ZM3.9 182.39 L0.66 182.39
							 C0.29 182.4 0 182.7 0 183.06 L0 186.3 C0 186.67 0.3 186.97 0.67 186.96 L3.9 186.96 C4.27 186.96 4.57
							 186.67 4.57 186.3 L4.57 183.06 C4.57 182.69 4.27 182.39 3.9 182.39 Z" class="st33"/>
			</g>
			<g id="shape134-207" v:mID="134" v:groupContext="shape" transform="translate(28.8987,-3.01506)">
				<title>Sheet.134</title>
				<path d="M3.05 185.45 L1.51 185.45 L1.51 183.92 L3.05 183.92 L3.05 185.45 L3.05 185.45 ZM3.9 182.4 L0.66 182.4 C0.3
							 182.4 0 182.7 0 183.06 L0 186.3 C0 186.66 0.3 186.96 0.66 186.96 L3.9 186.96 C4.27 186.97 4.57 186.67
							 4.57 186.3 L4.57 183.06 C4.57 182.7 4.27 182.4 3.9 182.4 Z" class="st33"/>
			</g>
			<g id="shape135-209" v:mID="135" v:groupContext="shape" transform="translate(38.0062,-3.01658)">
				<title>Sheet.135</title>
				<path d="M3.05 185.45 L1.52 185.45 L1.52 183.92 L3.05 183.92 L3.05 185.46 L3.05 185.45 ZM3.9 182.4 L0.66 182.4 C0.3
							 182.4 0 182.7 0 183.06 L0 186.3 C0 186.67 0.3 186.97 0.66 186.96 L3.9 186.96 C4.27 186.97 4.57 186.67
							 4.57 186.3 L4.57 183.07 C4.57 182.7 4.27 182.4 3.9 182.4 Z" class="st33"/>
			</g>
			<g id="shape136-211" v:mID="136" v:groupContext="shape" transform="translate(28.9032,-21.2849)">
				<title>Sheet.136</title>
				<path d="M12.14 185.45 L1.51 185.45 L1.51 179.35 L12.14 179.35 L12.14 185.45 ZM13.04 177.84 L0.61 177.84 C0.27 177.84
							 0 178.11 0 178.45 L0 186.36 C0 186.69 0.27 186.97 0.61 186.97 L13.04 186.97 C13.37 186.97 13.64 186.69
							 13.64 186.36 L13.64 178.45 C13.64 178.11 13.37 177.84 13.04 177.84 L13.04 177.84 Z" class="st31"/>
				<path d="M12.14 185.45 L1.51 185.45 L1.51 179.35 L12.14 179.35 L12.14 185.45M13.04 177.84 L0.61 177.84 C0.27 177.84
							 0 178.11 0 178.45 L0 186.36 C0 186.69 0.27 186.97 0.61 186.97 L13.04 186.97 C13.37 186.97 13.64 186.69
							 13.64 186.36 L13.64 178.45 C13.64 178.11 13.37 177.84 13.04 177.84" class="st32"/>
			</g>
		</g>
		<g id="group137-214" transform="translate(272.844,-20.8425)" v:mID="137" v:groupContext="group">
			<title>Brand_Template</title>
			<g id="shape138-215" v:mID="138" v:groupContext="shape">
				<title>path-101</title>
				<path d="M37.79 157.01 L20.85 140.17 A1.35997 1.35997 -180 0 0 19.88 139.77 L4.48 139.77 A1.3691 1.3691 -180 0 0
							 3.11 141.13 L3.11 162.58 L1.39 162.58 A1.38583 1.38583 -180 0 0 -0 163.96 L0 182.49 A1.38583 1.38583
							 -180 0 0 1.39 183.87 L3.11 183.87 L3.11 185.61 A1.3691 1.3691 -180 0 0 4.48 186.97 L36.82 186.97 A1.3691
							 1.3691 -180 0 0 38.19 185.61 L38.19 157.97 A1.33563 1.33563 -180 0 0 37.79 157.01 ZM1.54 182.34 L1.54
							 164.11 L19.53 164.11 L19.53 182.34 L1.54 182.34 ZM36.64 185.43 L4.65 185.43 L4.65 183.87 L19.68 183.87
							 A1.38583 1.38583 -180 0 0 21.07 182.49 L21.07 163.96 A1.38735 1.38735 -180 0 0 19.68 162.58 L4.65 162.58
							 L4.65 141.31 L19.75 141.26 L35.46 156.8 L21.16 156.88 L21.16 144.34 L19.62 144.34 L19.62 156.88 A1.44668
							 1.44668 -180 0 0 21.07 158.32 L36.64 158.32 L36.64 185.43 Z" class="st33"/>
			</g>
			<g id="shape139-217" v:mID="139" v:groupContext="shape" transform="translate(4.43672,-9.43783)">
				<title>Sheet.139</title>
				<path d="M0 186.96 L12.29 186.96 L12.29 178.44 L0 178.44 L0 186.97 L0 186.96 ZM9.43 179.54 L10.84 179.54 L10.84 185.86
							 L9.44 185.86 C7.01 185.45 5.93 182.56 7.5 180.66 C7.99 180.07 8.68 179.67 9.44 179.54 L9.43 179.54 ZM1.44
							 179.54 L2.84 179.54 C5.28 179.96 6.35 182.85 4.77 184.75 C4.28 185.34 3.6 185.73 2.84 185.86 L1.44 185.86
							 L1.44 179.54 Z" class="st33"/>
			</g>
		</g>
	</g>
</svg>
