<?xml version="1.0" encoding="UTF-8" standalone="no"?>
<svg
   viewBox="0 0 61.919922 28.598957"
   height="28.598957mm">
  <g
     transform="translate(-19.482143,-63.710559)"
     id="layer1">
    <g
       id="text1440"
       style="font-style:normal;font-weight:normal;font-size:8.59895802px;line-height:1000%;font-family:sans-serif;letter-spacing:0px;word-spacing:0px;fill:#000000;fill-opacity:1;stroke:none;stroke-width:0.26458332px;stroke-linecap:butt;stroke-linejoin:miter;stroke-opacity:1"
       aria-label="Дякую">
      <path
         id="path1442"
         style="font-style:normal;font-variant:normal;font-weight:normal;font-stretch:normal;font-family:'Press Start 2P';-inkscape-font-specification:'Press Start 2P';stroke-width:0.26458332px"
         d="m 29.482143,82.309517 v -2.14974 h 1.07487 v -2.149739 h 1.07487 v -4.299479 h 5.374349 v 6.449218 h 1.074869 v 2.14974 h -2.149739 v -1.07487 h -4.299479 v 1.07487 z m 3.22461,-2.14974 h 2.149739 v -5.374348 h -2.149739 z" />
      <path
         id="path1444"
         style="font-style:normal;font-variant:normal;font-weight:normal;font-stretch:normal;font-family:'Press Start 2P';-inkscape-font-specification:'Press Start 2P';stroke-width:0.26458332px"
         d="m 38.081101,81.234647 v -2.149739 h 1.07487 v -1.07487 h -1.07487 v -1.07487 h 1.07487 v -1.07487 h 6.449219 v 5.374349 h -2.14974 v -2.149739 h -3.224609 v 2.149739 z m 2.14974,-3.224609 h 3.224609 v -1.07487 h -3.224609 z" />
      <path
         id="path1446"
         style="font-style:normal;font-variant:normal;font-weight:normal;font-stretch:normal;font-family:'Press Start 2P';-inkscape-font-specification:'Press Start 2P';stroke-width:0.26458332px"
         d="m 50.979538,76.935168 h 1.07487 v 1.07487 h 1.07487 v 1.07487 h 1.07487 v 2.149739 h -2.14974 v -2.149739 h -3.224609 v 2.149739 h -2.14974 v -5.374349 h 2.14974 v 2.14974 h 2.149739 z m 3.22461,-1.07487 v 1.07487 h -2.14974 v -1.07487 z" />
      <path
         id="path1448"
         style="font-style:normal;font-variant:normal;font-weight:normal;font-stretch:normal;font-family:'Press Start 2P';-inkscape-font-specification:'Press Start 2P';stroke-width:0.26458332px"
         d="m 56.353888,82.309517 v -1.07487 h 4.299479 v -1.07487 h -4.299479 v -1.074869 h -1.07487 v -3.22461 h 2.14974 v 3.22461 h 3.224609 v -3.22461 h 2.14974 v 5.374349 h -1.07487 v 1.07487 z" />
      <path
         id="path1450"
         style="font-style:normal;font-variant:normal;font-weight:normal;font-stretch:normal;font-family:'Press Start 2P';-inkscape-font-specification:'Press Start 2P';stroke-width:0.26458332px"
         d="m 63.877975,81.234647 v -5.374349 h 1.07487 v 2.14974 h 1.07487 v -1.07487 h 1.07487 v -1.07487 h 3.224609 v 1.07487 h 1.07487 v 3.224609 h -1.07487 v 1.07487 h -3.224609 v -1.07487 h -1.07487 v -1.074869 h -1.07487 v 2.149739 z m 4.299479,-1.07487 h 1.07487 v -3.224609 h -1.07487 z" />
    </g>
  </g>
</svg>
