<?xml version="1.0" encoding="UTF-8" standalone="no"?>
<!-- Created with Inkscape (http://www.inkscape.org/) -->

<svg
   xmlns:dc="http://purl.org/dc/elements/1.1/"
   xmlns:cc="http://creativecommons.org/ns#"
   xmlns:rdf="http://www.w3.org/1999/02/22-rdf-syntax-ns#"
   xmlns:svg="http://www.w3.org/2000/svg"
   xmlns="http://www.w3.org/2000/svg"
   xmlns:xlink="http://www.w3.org/1999/xlink"
   xmlns:sodipodi="http://sodipodi.sourceforge.net/DTD/sodipodi-0.dtd"
   xmlns:inkscape="http://www.inkscape.org/namespaces/inkscape"
   width="24.708984mm"
   height="26.945219mm"
   viewBox="0 0 24.708984 26.945219"
   version="1.1"
   id="svg8"
   inkscape:version="0.92.2 5c3e80d, 2017-08-06"
   sodipodi:docname="docops_lviv19_pre.svg">
  <defs
     id="defs2">
    <linearGradient
       inkscape:collect="always"
       id="linearGradient1032">
      <stop
         style="stop-color:#333399;stop-opacity:1;"
         offset="0"
         id="stop1028" />
      <stop
         style="stop-color:#ff00cc;stop-opacity:0.85981309"
         offset="1"
         id="stop1030" />
    </linearGradient>
    <linearGradient
       inkscape:collect="always"
       xlink:href="#linearGradient1032"
       id="linearGradient1034"
       x1="57.84861"
       y1="50.166866"
       x2="65.472473"
       y2="31.728228"
       gradientUnits="userSpaceOnUse" />
  </defs>
  <sodipodi:namedview
     id="base"
     pagecolor="#ffffff"
     bordercolor="#666666"
     borderopacity="1.0"
     inkscape:pageopacity="0.0"
     inkscape:pageshadow="2"
     inkscape:zoom="2.8284271"
     inkscape:cx="27.938941"
     inkscape:cy="68.024909"
     inkscape:document-units="mm"
     inkscape:current-layer="layer1"
     showgrid="false"
     inkscape:window-width="1440"
     inkscape:window-height="855"
     inkscape:window-x="0"
     inkscape:window-y="1"
     inkscape:window-maximized="1"
     fit-margin-top="5"
     fit-margin-left="5"
     fit-margin-right="5"
     fit-margin-bottom="5" />
  <metadata
     id="metadata5">
    <rdf:RDF>
      <cc:Work
         rdf:about="">
        <dc:format>image/svg+xml</dc:format>
        <dc:type
           rdf:resource="http://purl.org/dc/dcmitype/StillImage" />
        <dc:title></dc:title>
      </cc:Work>
    </rdf:RDF>
  </metadata>
  <g
     inkscape:label="Layer 1"
     inkscape:groupmode="layer"
     id="layer1"
     transform="translate(-40.370417,-40.71962)">
    <g
       id="g835"
       transform="translate(-9.6885204,11.893494)"
       style="fill:url(#linearGradient1034);fill-opacity:1">
      <g
         aria-label="doc"
         style="font-style:normal;font-weight:normal;font-size:8.59895802px;line-height:1000%;font-family:sans-serif;letter-spacing:0px;word-spacing:0px;fill:url(#linearGradient1034);fill-opacity:1;stroke:none;stroke-width:0.26458332px;stroke-linecap:butt;stroke-linejoin:miter;stroke-opacity:1"
         id="text825">
        <path
           style="font-style:normal;font-variant:normal;font-weight:normal;font-stretch:normal;font-family:'Daft Font';-inkscape-font-specification:'Daft Font';fill:url(#linearGradient1034);fill-opacity:1;stroke-width:0.26458332px"
           d="m 63.025391,33.826172 c -0.762089,-0.0073 -0.97002,0.853006 -1.346772,1.355711 -0.238831,0.386673 -0.477519,0.771963 -0.729448,1.150134 -0.558005,-0.414884 -1.342203,-0.251794 -1.974852,-0.137171 -0.731064,0.165237 -1.472701,0.544911 -1.837687,1.231018 -0.958798,0.275897 -1.757681,1.072458 -2.066088,2.018073 -0.120593,1.119967 0.712762,2.225241 1.837519,2.390083 0.236398,0.179983 1.245925,-0.06566 1.099326,0.13991 -0.563699,0.392655 -1.32021,0.628663 -1.395705,1.464192 -0.163862,0.714131 -0.739761,1.201814 -1.036109,1.844704 -0.219375,0.787353 -0.200396,1.760847 0.418491,2.350125 0.461004,0.467145 1.158558,0.729106 1.803293,0.50116 0.589653,-0.09036 0.729467,-0.38185 1.411626,-0.559754 0.449751,-0.183821 -0.02354,0.707775 0.02529,1.029421 -0.04538,0.634991 -0.434007,1.378689 0.07019,1.924086 0.568769,0.515442 1.448641,0.112479 1.943431,-0.28724 C 61.50422,49.850019 61.90702,49.504692 61.896484,49 c -0.172783,0.525972 0.239717,-0.855426 0.242184,-1.140606 0.549289,0.180642 0.961685,-0.580249 1.382895,0.01215 0.451368,0.133092 1.01576,0.06912 1.359507,-0.24667 0.176513,0.665266 0.950231,1.198512 1.452024,1.241826 -0.321693,-0.148144 0.527416,0.218465 0.717993,0.08236 0.688676,-0.148189 1.155878,-0.854842 1.294919,-1.509813 0.106319,-0.386997 0.2489,-0.986883 0.228821,-0.827255 0.315704,-0.56695 0.389575,-1.333462 0.271228,-1.907106 0.06883,-0.705069 -0.294439,-1.353426 -0.699334,-1.88675 -0.262329,-0.387622 -0.872859,-0.617189 -0.281277,-0.95345 0.292369,-0.378811 0.698241,-0.490415 0.960807,-0.964761 0.408229,-0.385655 -0.07585,-1.093851 -0.0775,-1.247548 0.79527,-0.146868 1.319937,-1.182888 0.828875,-1.887225 -0.283831,-0.601126 -0.705928,-1.219705 -1.442118,-1.252807 -0.618998,0.06059 -1.41246,-0.0079 -1.79745,0.609974 -0.270901,0.335453 -0.43112,0.710245 -0.568306,0.140889 -0.09592,-0.406165 -0.869558,-0.582081 -0.583692,-0.521621 -0.343272,-0.369376 -1.508733,-0.169924 -0.799121,-0.786976 0.268634,-0.610136 -0.02391,-1.560208 -0.641653,-1.879078 -0.228045,-0.10937 -0.459752,-0.247456 -0.719895,-0.249363 z m 3.443359,15.082031 0.07617,0.02148 z M 60.835938,36.261719 c 0.06032,0.0334 0.230774,0.166301 0,0 z m 0.0293,5.505898 c 0.162328,0.356826 1.1785,0.698597 0.355463,0.60291 -0.331801,0.06394 -1.412595,0.306297 -0.643848,-0.08801 0.16791,-0.118355 0.257051,-0.31729 0.288385,-0.514898 z m 4.248047,0.531244 c 0.303608,0.309154 1.117168,0.188479 0.538411,0.699438 -0.148344,0.412035 -0.147956,0.327623 -0.222164,0.01772 0.107065,0.208212 -0.143073,-0.684884 -0.316247,-0.717162 z m -4.751953,8.373044 c -0.08993,0.03655 -0.109949,0.05103 0,0 z"
           id="path837"
           inkscape:connector-curvature="0" />
      </g>
    </g>
    <g
       id="g868"
       style="fill:#ffffff"
       transform="translate(-20.410714,9.1659224)">
      <g
         aria-label="doc"
         style="font-style:normal;font-weight:normal;font-size:8.59895802px;line-height:1000%;font-family:sans-serif;letter-spacing:0px;word-spacing:0px;fill:#ffffff;fill-opacity:1;stroke:none;stroke-width:0.26458332px;stroke-linecap:butt;stroke-linejoin:miter;stroke-opacity:1"
         id="text817">
        <path
           d="m 69.980592,44.467396 q -0.24077,-0.240771 -0.300963,-0.472943 -0.06019,-0.232171 -0.09459,-0.567531 -0.283765,0 -0.507338,0.111787 -0.214974,0.103187 -0.455745,0.214974 -0.455745,0.05159 -0.920088,-0.043 -0.464344,-0.09459 -0.799704,-0.41275 -0.361156,-0.455745 -0.343958,-0.980281 0.06019,-0.103188 0.120386,-0.214974 0.06879,-0.111787 0.137583,-0.223573 0.32676,-0.464344 0.851297,-0.74811 0.154781,-0.05159 0.309562,-0.111786 0.154781,-0.06019 0.309563,-0.120385 0.214974,-0.395553 0.472942,-0.619125 0.257969,-0.223573 0.679318,-0.395552 0.128984,-0.0258 0.266568,-0.07739 0.146182,-0.05159 0.292364,-0.05159 0.05159,-0.05159 0.481542,-0.06019 0.429948,-0.0086 0.524536,0.0344 0.0172,0.06879 0.05159,0.111787 0.0344,-0.0172 0.09459,-0.0172 0.0258,0.232172 0.08599,0.464344 0.06019,0.232171 0.08599,0.455744 0.06019,0.0258 0.197776,0.07739 0,-0.06019 0.0086,-0.08599 0.515937,-0.851296 1.135062,-1.736989 0.240771,-0.386953 0.481542,-0.773906 0.240771,-0.395552 0.481542,-0.782506 0.07739,0.0258 0.128984,0.05159 0.06019,0.0258 0.309563,0.154781 0.0258,0.120386 0.04299,0.24937 0.0172,0.128985 0.0344,0.24937 0,0 0.154781,0.0258 -0.619125,0.842698 -1.212453,1.693995 -0.584729,0.842697 -1.126463,1.736989 -0.232172,0.275167 -0.472943,0.550333 -0.232172,0.275167 -0.429948,0.576131 -0.07739,0.128984 -0.16338,0.283765 -0.08599,0.146183 -0.111786,0.300964 -0.06879,0.06019 -0.09459,0.292364 -0.0258,0.232172 -0.0258,0.283766 0,0.120385 0,0.24937 0,0.120385 0,0.240771 -0.240771,-0.0172 -0.369755,-0.0172 -0.0172,0.0172 -0.103188,0.03439 -0.07739,0.0172 -0.206375,0.06879 z m 0.128985,-3.79214 q -0.0172,-0.0344 -0.0172,-0.04299 -0.24937,-0.120386 -0.550333,0 -0.292365,0.111786 -0.576131,0.335359 -0.275166,0.223573 -0.507338,0.490141 -0.223573,0.257969 -0.335359,0.429948 -0.103188,0.214974 -0.120386,0.257968 -0.0172,0.0344 -0.0172,0.06019 -0.06019,0.06019 -0.06019,0.214974 0.0086,0.154781 0.0172,0.232172 0.0086,0.0172 0.0172,0.04299 0.0086,0.0172 0.06019,0.137583 0.06879,0.0172 0.180578,-0.0258 0.111787,-0.05159 0.180578,-0.07739 0.0086,-0.0086 0.154782,-0.0344 0.154781,-0.0258 0.16338,-0.04299 0.154781,0 0.283765,0.0086 0.137584,0 0.24937,-0.120385 0.111787,-0.06019 0.232172,-0.103188 0.128984,-0.043 0.257969,-0.09459 0,-0.07739 0,-0.16338 0,-0.08599 0,-0.171979 -0.04299,-0.0258 -0.128985,-0.06019 -0.03439,-0.06879 -0.07739,-0.171979 -0.043,-0.103187 0.0086,-0.180578 0.08599,-0.06879 0.249369,-0.180578 0.163381,-0.120385 0.326761,-0.24937 0,-0.06879 0,-0.137583 0.0086,-0.06879 0.0086,-0.146182 0,-0.05159 0,-0.103188 0,-0.05159 0,-0.103187 z m -0.386953,1.668197 q 0,-0.07739 0,-0.16338 0,-0.08599 0,-0.171979 0,0 0,0 0.0086,0 0.0172,0 0,0.08599 0,0.171979 0,0.08599 0,0.16338 -0.0086,0 -0.0172,0 0,0 0,0 z"
           style="font-style:normal;font-variant:normal;font-weight:normal;font-stretch:normal;font-family:'Daft Font';-inkscape-font-specification:'Daft Font';fill:#ffffff;stroke-width:0.26458332px"
           id="path903"
           inkscape:connector-curvature="0" />
        <path
           d="m 74.203084,40.090526 q 0,0 0.0086,-0.0086 0.0086,-0.0086 0.0086,-0.0086 0.07739,-0.0258 0.137583,-0.0344 0.06879,-0.0172 0.378354,-0.08599 0.0172,0.043 0.0344,0.07739 0.0172,0.0344 0.04299,0.06879 0.180578,-0.0172 0.378354,0.0258 0.206375,0.043 0.335359,0.197776 0,0 0,0 0.0086,0 0.0172,0 0.04299,0.06879 0.128985,0.189177 0.103187,0.240771 0.103187,0.490141 0,0.24937 -0.0344,0.49874 -0.09459,0.120385 -0.180578,0.24077 -0.08599,0.120386 -0.16338,0.240771 -0.300963,0.481542 -0.361156,0.859896 -0.05159,0.378354 -0.300964,0.877094 -0.103187,0.0086 -0.395552,0.111786 -0.292364,0.103188 -0.378354,0.120386 -0.08599,0.111786 -0.266568,0.189177 -0.180578,0.06879 -0.189177,0.08599 -0.266567,0.08599 -0.610526,0.137584 -0.343958,0.05159 -0.533135,-0.197776 0,0 -0.09459,-0.09459 -0.08599,-0.09459 -0.08599,-0.09459 -0.04299,-0.06879 -0.128985,-0.189178 -0.103187,-0.232171 -0.111786,-0.481541 0,-0.24937 0.05159,-0.507339 0,-0.335359 0.533135,-1.074869 0.541735,-0.739511 0.868495,-1.384433 0.09459,0 0.180578,0.0172 0.09459,0.0172 0.189177,-0.0086 0.120386,-0.154781 0.189177,-0.232172 0.111787,-0.0344 0.24937,-0.0258 z m -1.384432,2.958042 q 0.120385,0.335359 0.335359,0.335359 0.223573,-0.0086 0.541734,-0.0172 0.120386,-0.08599 0.240771,-0.180578 0.120386,-0.09459 0.300964,-0.257968 0.06879,-0.07739 0.180578,-0.300964 0.111786,-0.232172 0.171979,-0.343958 0.08599,-0.214974 0.146182,-0.421349 0.06879,-0.214974 0.103188,-0.49874 l -0.214974,-0.0258 -0.103188,0.292365 q -0.111786,0 -0.189177,0.120385 -0.07739,0.111787 -0.206375,0.223573 -0.06019,0 -0.103187,-0.283765 -0.043,-0.292365 -0.128985,-0.292365 -0.223572,0.171979 -0.438546,0.283766 -0.206375,0.111786 -0.318162,0.335359 -0.08599,0.223573 -0.189177,0.49874 -0.103187,0.266567 -0.128984,0.533135 z"
           style="font-style:normal;font-variant:normal;font-weight:normal;font-stretch:normal;font-family:'Daft Font';-inkscape-font-specification:'Daft Font';fill:#ffffff;stroke-width:0.26458332px"
           id="path905"
           inkscape:connector-curvature="0" />
        <path
           d="m 78.612469,43.323735 q -0.0172,0.0258 -0.180578,0.137583 -0.163381,0.103188 -0.24937,0.214974 -0.404151,0.386953 -0.49874,0.472943 -0.08599,0.08599 -0.214974,0.223573 -0.06019,0.0172 -0.232172,0.04299 -0.171979,0.0258 -0.189177,0.05159 -0.09459,0.0086 -0.171979,0.0172 -0.06879,0 -0.41275,0 -0.0344,-0.120385 -0.05159,-0.171979 -0.214974,-0.0258 -0.421348,-0.111787 -0.206375,-0.08599 -0.300964,-0.292364 -0.0086,-0.0086 -0.0258,-0.0086 -0.0258,-0.07739 -0.09459,-0.232172 -0.08599,-0.481542 0.146182,-1.083469 0.120385,-0.103187 0.232172,-0.214974 0.120385,-0.120385 0.240771,-0.232171 0.429947,-0.447146 0.816901,-0.928688 0.395552,-0.490141 0.782505,-0.980281 0.103187,0.0172 0.197776,0.06019 0.09459,0.0344 0.197776,0.0344 0.06019,-0.05159 0.120385,-0.103187 0.06019,-0.06019 0.128985,-0.111787 0.223572,-0.0086 0.558932,0.120386 0.09459,0.08599 0.292364,0.447146 0.206375,0.352557 0.232172,0.481541 l -0.05159,0.154782 -0.223573,0.249369 -0.24937,-0.08599 0.06019,0.197776 q -0.120386,-0.0258 -0.24937,-0.06019 -0.120386,-0.0344 -0.275167,-0.146182 -0.128984,-0.043 -0.343958,-0.08599 -0.206375,-0.04299 -0.33536,-0.04299 -0.180578,0.232172 -0.361156,0.33536 -0.171979,0.103187 -0.352557,0.318161 -0.232172,0.352557 -0.490141,0.8255 -0.249369,0.464344 -0.146182,0.91149 0.154781,0 0.343958,-0.06019 0.189177,-0.06879 0.352558,-0.103187 0.0258,-0.154782 0.0344,-0.163381 0.189178,-0.128984 0.507339,-0.257968 0.32676,-0.137584 0.481542,-0.318162 l 0.09459,0.128985 h 0.206375 l 0.214974,0.154781 z"
           style="font-style:normal;font-variant:normal;font-weight:normal;font-stretch:normal;font-family:'Daft Font';-inkscape-font-specification:'Daft Font';fill:#ffffff;stroke-width:0.26458332px"
           id="path907"
           inkscape:connector-curvature="0" />
      </g>
      <g
         aria-label="0ps"
         style="font-style:normal;font-weight:normal;font-size:8.59895802px;line-height:1000%;font-family:sans-serif;letter-spacing:0px;word-spacing:0px;fill:#ffffff;fill-opacity:1;stroke:none;stroke-width:0.26458332px;stroke-linecap:butt;stroke-linejoin:miter;stroke-opacity:1"
         id="text821">
        <path
           d="m 67.338542,49.696746 q -0.0086,0 -0.0172,0 0,0 0,0 -0.0344,-0.04299 -0.137583,-0.171979 -0.128985,-0.223573 -0.146183,-0.464344 -0.0172,-0.249369 0.0086,-0.498739 0.06879,-0.120386 0.137584,-0.240771 0.07739,-0.128984 0.154781,-0.257969 0.257969,-0.49014 0.386953,-1.092067 0.128984,-0.601928 0.343958,-1.117865 0.08599,0 0.33536,-0.223573 0.24937,-0.232172 0.343958,-0.257969 0.06879,-0.111786 0.266568,-0.09459 0.197776,0.0172 0.214974,-0.0086 0.24937,-0.103188 0.57613,-0.171979 0.335359,-0.07739 0.541734,0.146182 0,0 0.09459,0.08599 0.09459,0.08599 0.103187,0.08599 0.08599,0.120386 0.137584,0.171979 0.111786,0.232172 0.137583,0.481542 0.0258,0.240771 0,0.481542 0,0.171979 -0.171979,0.533135 -0.16338,0.361156 -0.395552,0.799703 -0.223573,0.429948 -0.464344,0.877094 -0.240771,0.447146 -0.369755,0.765307 -0.09459,0.0172 -0.232172,0.05159 -0.137583,0.0344 -0.223573,0.06019 -0.232172,0.361157 -0.791104,0.369756 -0.558932,0 -0.834099,-0.309563 z m 2.657078,-3.327797 q -0.154781,-0.309562 -0.369755,-0.292364 -0.206375,0.0172 -0.515938,0.04299 -0.120385,0.103187 -0.232171,0.206375 -0.111787,0.103187 -0.266568,0.275166 -0.06019,0.07739 -0.154781,0.309563 -0.08599,0.232172 -0.137584,0.343958 -0.07739,0.223573 -0.257969,0.722313 -0.180578,0.498739 -0.189177,0.765307 l 0.214974,0.0086 q 0.257969,0.171979 0.464344,0.103187 0.214974,-0.06879 0.240771,-0.223573 0.206375,-0.171979 0.533135,-0.584729 0.326761,-0.41275 0.429948,-0.644922 0.06879,-0.214974 0.146183,-0.481541 0.07739,-0.275167 0.09459,-0.550334 z"
           style="font-style:normal;font-variant:normal;font-weight:normal;font-stretch:normal;font-family:'Daft Font';-inkscape-font-specification:'Daft Font';fill:#ffffff;stroke-width:0.26458332px"
           id="path910"
           inkscape:connector-curvature="0" />
        <path
           d="m 70.695226,52.646189 q 0,-0.0258 0,-0.05159 0,-0.0172 0,-0.04299 0,-0.0086 0.0172,-0.0258 0,-0.111786 0.0258,-0.232171 0.0258,-0.120386 0.111786,-0.687917 0.0086,-0.0086 0.07739,-0.490141 0.07739,-0.481541 0.09459,-0.49014 0.06019,-0.507339 0.128985,-1.031875 0.07739,-0.524537 0.128984,-1.040474 0.128984,-0.232172 0.154781,-0.283766 0.0258,-0.06019 0.043,-0.07739 0,-0.0344 0,-0.06879 0,-0.04299 0,-0.07739 -0.0172,-0.0086 -0.043,-0.06879 -0.0258,-0.06879 -0.171979,-0.369756 -0.0258,-0.05159 -0.06019,-0.137583 -0.03439,-0.266568 -0.06879,-0.533135 -0.0344,-0.275167 -0.06019,-0.541735 0.06879,-0.0258 0.137583,-0.16338 0.07739,-0.137583 0.146183,-0.16338 0.206375,-0.07739 0.404151,-0.05159 0.197776,0.0258 0.404151,-0.06879 0.05159,0.154781 0.07739,0.249369 0.0344,0.08599 0.120386,0.292365 0.06019,0 0.16338,-0.05159 0.232172,-0.361156 0.533135,-0.66212 0.309563,-0.300963 0.66212,-0.558932 0.103188,-0.06879 0.197776,-0.06879 0.240771,0.146183 0.524537,0.189177 0.180578,-0.103187 0.32676,-0.08599 0.128984,0.07739 0.189177,0.120385 0.06879,0.04299 0.326761,0.214974 0.0086,0.07739 0.0172,0.111787 0.0172,0.0344 0.043,0.154781 0.0172,0.154781 0.0172,0.189177 0.0086,0.0258 0.0258,0.0344 0,0.146182 0.0172,0.438547 -0.283766,0.515937 -0.533135,1.057672 -0.240771,0.533135 -0.49874,1.049072 -0.146182,0.232172 -0.335359,0.438547 -0.180578,0.197776 -0.378355,0.378354 -0.318161,0.232172 -0.619125,0.326761 -0.292364,0.08599 -0.65352,-0.137583 -0.05159,0 -0.09459,0 -0.04299,0 -0.08599,0 -0.06879,0.352557 -0.08599,0.438546 -0.0172,0.08599 -0.0344,0.214974 -0.0172,0.0086 -0.0344,0.103188 -0.0172,0.09459 -0.0172,0.103187 -0.04299,0.232172 -0.103187,0.472943 -0.05159,0.240771 -0.07739,0.472943 -0.04299,0.05159 -0.06019,0.197776 -0.0172,0.137583 -0.0258,0.206375 -0.05159,0.07739 -0.214974,0.283765 -0.16338,0.214974 -0.266568,0.369756 -0.0258,-0.0086 -0.06879,-0.0344 -0.0344,-0.0172 -0.103187,-0.0344 -0.05159,0 -0.09459,0 -0.0344,0 -0.07739,0 -0.0344,0.103187 -0.043,0.154781 -0.043,0.0086 -0.08599,0.0172 -0.0344,0.0172 -0.06879,0.0344 -0.0172,0.0172 -0.0172,0.0172 -0.0086,0 -0.0258,0 -0.0086,0 -0.0086,0 z m 2.055151,-4.901406 q 0,0.07739 0.0258,0.171979 0.0344,0.08599 0.120385,0.111786 0.09459,-0.137583 0.08599,-0.257968 0,-0.128985 0,-0.309563 0.0258,0.0172 0.120385,0.120386 0.128985,0.06879 0.266568,0.05159 0.146182,-0.0172 0.292364,-0.0258 -0.09459,0.103188 -0.128984,0.146183 -0.0258,0.04299 -0.128984,0.180578 -0.09459,0.197776 -0.120386,0.32676 -0.0172,0.128985 -0.0258,0.352557 0.240771,0 0.378355,-0.07739 0.137583,-0.08599 0.292364,-0.292365 0.09459,-0.206375 0.111787,-0.240771 0.0172,-0.0344 0.0172,-0.06019 0,-0.0086 0.0172,-0.06879 0.0172,-0.06019 0.0344,-0.07739 0,-0.07739 0.0258,-0.275166 0.0344,-0.206375 0.07739,-0.240771 0.0172,-0.275167 0.0172,-0.386953 0.0086,-0.111787 0.0344,-0.507339 0,-0.05159 0,-0.09459 0,-0.05159 0,-0.103188 -0.0086,-0.04299 -0.0172,-0.07739 0,-0.043 0,-0.09459 -0.455745,0.07739 -0.894292,0.309563 -0.438547,0.232172 -0.550333,0.722312 -0.06879,0.06879 -0.06019,0.257969 0.0086,0.180578 0.0086,0.257969 0,0.05159 0,0.09459 0,0.04299 0,0.08599 z m 0,-0.180578 q 0,0.05159 0,0.09459 0,0.04299 0,0.08599 0,0 0,-0.0172 0,-0.0258 0,-0.16338 z"
           style="font-style:normal;font-variant:normal;font-weight:normal;font-stretch:normal;font-family:'Daft Font';-inkscape-font-specification:'Daft Font';fill:#ffffff;stroke-width:0.26458332px"
           id="path912"
           inkscape:connector-curvature="0" />
        <path
           d="m 75.753025,48.088741 q 0.0258,-0.0086 0.0086,-0.07739 -0.0086,-0.06879 0.128985,-0.154781 0.0086,-0.0086 0.154781,-0.197776 0.154781,-0.197776 0.171979,-0.223573 0.33536,-0.386953 0.438547,-0.361156 0.103188,0.0172 0.24937,-0.352557 0.07739,-0.043 0.232172,-0.429948 0.16338,-0.386953 0.232172,-0.438547 0.146182,-0.05159 0.283765,-0.09459 0.146182,-0.05159 0.309563,-0.06879 0.0086,0.154781 0.146182,0.206375 0.137583,0.043 0.16338,0.197776 0,0 0.0344,0.08599 0.0344,0.08599 0.0344,0.08599 0.0258,0.05159 0.128984,0.223573 0.111787,0.171979 0.137584,0.214974 0.189177,0.300963 0.137583,0.619125 -0.043,0.309562 0.043,0.515937 0.0258,0.257969 -0.0086,0.421349 -0.0344,0.16338 -0.146183,0.57613 -0.0086,-0.0086 -0.0172,-0.0172 -0.0086,-0.0086 -0.0086,-0.0258 -0.17198,0.498739 -0.283766,0.894291 -0.0258,0.137584 -0.06019,0.275167 -0.0344,0.137583 -0.06019,0.266568 -0.146183,0.189177 -0.206375,0.352557 -0.05159,0.154781 -0.283766,0.232172 -0.137583,0.0172 -0.206375,0.0344 0,-0.0172 -0.0172,-0.0172 -0.189177,0.0172 -0.352557,-0.09459 -0.154782,-0.111786 -0.257969,-0.257969 -0.06019,0.0258 -0.146182,0.0344 -0.154782,-0.24937 -0.189177,-0.300963 -0.0344,-0.05159 -0.06019,-0.128985 0.0086,-0.0258 -0.05159,-0.154781 -0.05159,-0.137583 -0.06019,-0.189177 0.04299,-0.154781 0.0344,-0.06019 0,0.09459 0.103188,-0.369755 0.043,-0.111786 0.05159,-0.275167 0.0086,-0.16338 0.0258,-0.189177 l 0.09459,-0.189177 0.214974,0.09459 0.08599,0.146182 0.137584,0.0172 q -0.06879,0.180578 0,0.275167 0.07739,0.09459 0.06879,0.300963 0,0.0086 -0.111786,0.09459 0.05159,0.128984 0.07739,0.300963 0.0344,0.16338 0.111786,0.275167 0.369755,-0.120385 0.481542,-0.507339 0.111786,-0.386953 0.266567,-0.713713 0.06879,-0.180578 -0.06879,-0.386953 -0.137584,-0.214974 -0.09459,-0.395552 0.0344,-0.214974 -0.04299,-0.240771 -0.07739,-0.0344 -0.180578,-0.361156 -0.120385,0.120385 -0.171979,-0.06879 -0.05159,-0.197776 -0.08599,-0.128984 -0.07739,0.0258 -0.318162,0.249369 -0.240771,0.223573 -0.214974,0.120386 -0.08599,-0.0086 -0.223573,0.180578 -0.128984,0.180578 -0.257968,0.283766 -0.0344,0.07739 -0.343959,0.550333 -0.300963,0.472943 -0.361156,0.524536 -0.223573,0.05159 -0.275167,-0.0086 -0.04299,-0.06879 -0.06019,-0.06879 0.0172,0 -0.24937,0.515937 -0.103188,0.08599 -0.214974,0.08599 -0.111787,0 -0.257969,0 -0.103187,-0.189177 -0.07739,-0.300964 0.0258,-0.111786 0.04299,-0.343958 0.05159,-0.128984 0.41275,-0.507339 0.369756,-0.378354 0.782505,-0.550333 z"
           style="font-style:normal;font-variant:normal;font-weight:normal;font-stretch:normal;font-family:'Daft Font';-inkscape-font-specification:'Daft Font';fill:#ffffff;stroke-width:0.26458332px"
           id="path914"
           inkscape:connector-curvature="0" />
      </g>
    </g>
  </g>
</svg>
