<?xml version="1.0" encoding="UTF-8" standalone="no"?>
<svg
   id="svg8"
   version="1.1"
   viewBox="0 0 267.22914 167.43724"
   height="632.83368">
  <g
     transform="translate(251.77766,248.10847)"
     id="layer1">
    <path
       id="path896"
       d="m -241.50487,-82.267839 c -3.26941,-0.638498 -6.44518,-3.221537 -8.0023,-6.508727 l -0.84554,-1.785024 -0.0716,-29.56016 c -0.0642,-26.55071 -0.0282,-29.70934 0.35441,-31.02556 0.97299,-3.34697 2.82703,-5.58817 5.86486,-7.08954 l 2.01249,-0.99463 h 52.85038 52.8504 l 1.99106,0.98404 c 2.43427,1.20308 4.15885,2.95998 5.32789,5.42779 l 0.84121,1.77573 0.0705,29.696 c 0.0634,26.680302 0.0272,29.844899 -0.35575,31.162223 -1.14642,3.943556 -4.08455,6.737371 -8.21748,7.813862 -1.31737,0.343141 -8.09187,0.390238 -52.49728,0.365033 -28.08748,-0.01597 -51.51848,-0.133174 -52.17324,-0.261037 z m 105.21272,-2.888208 c 2.02012,-0.75582 3.67334,-2.306689 4.71542,-4.423496 l 0.86809,-1.763351 v -29.454346 -29.45434 l -0.69937,-1.49171 c -0.89063,-1.89964 -2.51215,-3.52118 -4.4118,-4.4118 l -1.49171,-0.69936 h -52.03064 -52.03065 l -1.38937,0.62797 c -1.85107,0.83666 -4.0763,3.24 -4.72599,5.10425 -0.46256,1.32727 -0.48752,2.89288 -0.48752,30.58359 v 29.184705 l 0.57747,1.250143 c 0.80435,1.741332 1.82636,3.009941 3.16908,3.933753 2.35484,1.620187 -1.50959,1.512138 54.81104,1.532422 51.34949,0.01847 51.70006,0.01507 53.12595,-0.51843 z m -79.59356,-23.233313 v -6.33876 h 0.9244 c 0.80694,0 0.9244,0.0829 0.9244,0.65233 v 0.65233 l 0.99043,-0.67637 c 0.8382,-0.57242 1.21636,-0.66047 2.46034,-0.57297 2.68795,0.18908 4.01048,1.71279 4.01048,4.62057 0,1.37092 -0.12732,1.86155 -0.7125,2.74582 -1.32756,2.00607 -3.97405,2.60621 -5.73889,1.30139 -0.3984,-0.29454 -0.7886,-0.53554 -0.8671,-0.53554 -0.0785,0 -0.14276,1.01025 -0.14276,2.24498 v 2.24498 h -0.9244 -0.9244 z m 6.49722,0.42258 c 0.75654,-0.75654 0.898,-1.08616 0.898,-2.09265 0,-2.97251 -3.494,-4.15555 -5.03255,-1.70397 -1.23123,1.96188 0.10171,4.69462 2.28992,4.69462 0.72442,0 1.15744,-0.21081 1.84463,-0.898 z m 7.35788,2.26601 c -1.4602,-0.6847 -2.42837,-1.91081 -2.64395,-3.34836 -0.49882,-3.32642 1.42157,-5.67899 4.63575,-5.67899 2.73122,0 4.47014,1.71558 4.48415,4.42393 l 0.006,1.12249 h -3.69196 -3.69193 l 0.30987,0.68009 c 0.62501,1.37177 3.16432,1.9 4.71896,0.98166 0.73105,-0.43184 0.78049,-0.429 1.1543,0.066 0.52192,0.6912 0.4147,0.92183 -0.69668,1.49859 -1.44057,0.7476 -3.31132,0.85147 -4.58431,0.25456 z m 4.36882,-5.60585 c 0,-0.92729 -1.16103,-1.8368 -2.34475,-1.8368 -1.19839,0 -2.67343,1.03301 -2.67343,1.87227 0,0.46151 0.21498,0.50475 2.5091,0.50475 2.35159,0 2.50908,-0.034 2.50908,-0.54022 z m 18.69706,5.82558 c -3.27734,-0.98792 -4.36788,-5.12307 -2.04791,-7.76536 1.05378,-1.2002 2.05417,-1.56785 3.90245,-1.43415 2.62853,0.19013 4.0111,1.67291 4.0111,4.30185 v 1.197 h -3.56556 c -3.95234,0 -4.26098,0.16022 -2.75294,1.42915 1.0853,0.91323 2.66084,0.99637 3.99679,0.21092 0.66746,-0.39243 0.75334,-0.38659 1.27647,0.0869 l 0.56089,0.50758 -0.68267,0.58721 c -1.15111,0.99013 -3.11258,1.35707 -4.69862,0.87896 z m 4.01683,-5.70184 c 0,-0.74493 -1.46938,-1.96054 -2.36983,-1.96054 -1.43012,0 -2.91247,1.06655 -2.91247,2.09555 0,0.18047 0.94786,0.28147 2.64115,0.28147 2.22888,0 2.64115,-0.065 2.64115,-0.41648 z m 17.8763,5.58025 c -1.31611,-0.46939 -1.9946,-1.09583 -2.58914,-2.39055 -1.16272,-2.53206 -0.0141,-5.50725 2.49176,-6.45402 1.20303,-0.45453 3.26185,-0.33677 4.41726,0.25268 1.19119,0.60771 1.21672,0.68156 0.53994,1.56208 -0.48854,0.63559 -0.50279,0.63747 -1.22833,0.16207 -2.26073,-1.48128 -5.37957,0.54153 -4.64014,3.00951 0.62077,2.07194 2.64341,2.93149 4.42487,1.8804 l 0.97817,-0.57713 0.55174,0.56004 0.55174,0.56005 -0.72675,0.63236 c -0.73282,0.63763 -2.25952,1.19078 -3.23497,1.17209 -0.29053,-0.006 -0.98179,-0.17187 -1.53615,-0.36958 z m 10.02881,0.0106 c -1.36259,-0.50343 -2.18328,-1.32219 -2.71137,-2.70501 -0.85577,-2.24077 0.004,-4.74373 2.01921,-5.87614 0.89945,-0.50553 1.38043,-0.59518 2.73146,-0.50915 2.73665,0.17427 4.12642,1.62374 4.12642,4.30373 v 1.19699 h -3.56555 c -1.98922,0 -3.56555,0.10722 -3.56555,0.24251 0,1.65625 3.15789,2.56405 4.77089,1.3715 0.70638,-0.52224 0.72523,-0.52265 1.17491,-0.0257 0.25136,0.27775 0.38929,0.68148 0.30652,0.8972 -0.41285,1.07584 -3.57571,1.73639 -5.28694,1.10414 z m 4.18131,-5.76853 c -0.0941,-0.32683 -0.48046,-0.87467 -0.85847,-1.21741 -0.56743,-0.51449 -0.88897,-0.60043 -1.84391,-0.4928 -1.26306,0.14237 -2.44431,1.02302 -2.44431,1.82228 0,0.43492 0.26069,0.4822 2.65894,0.4822 2.63207,0 2.65722,-0.006 2.48775,-0.59427 z m -93.88932,-0.19808 v -6.07465 h 4.22585 4.22583 v 0.91628 0.91627 l -3.23541,0.0742 -3.2354,0.0742 v 1.58469 1.58469 l 2.83924,0.0749 2.83923,0.0749 v 0.91547 0.91547 h -2.90527 -2.90526 v 1.58468 1.5847 h 3.43349 3.43349 v 0.92441 0.9244 h -4.35789 -4.3579 z m 11.64712,3.72245 1.63002,-2.35219 -1.48832,-2.11194 c -0.81858,-1.16158 -1.48834,-2.18301 -1.48834,-2.26983 0,-0.0869 0.50513,-0.15726 1.12249,-0.1565 1.07151,0.001 1.16448,0.0672 2.04689,1.45126 0.50843,0.79745 0.98384,1.44911 1.05646,1.44815 0.0727,-10e-4 0.58488,-0.65405 1.13834,-1.45128 0.93099,-1.34106 1.08412,-1.44949 2.04689,-1.44949 0.57233,0 1.04061,0.0575 1.04061,0.12777 0,0.0703 -0.65367,1.03883 -1.45263,2.15232 -0.79894,1.1135 -1.45264,2.14416 -1.45264,2.29035 0,0.14621 0.27277,0.63359 0.60612,1.0831 0.33336,0.44949 1.0566,1.44124 1.60718,2.20387 l 1.00107,1.38661 h -1.28612 c -1.11994,0 -1.34316,-0.0939 -1.72761,-0.72632 -0.24281,-0.39947 -0.71988,-1.06694 -1.06014,-1.48327 l -0.61866,-0.75694 -1.02156,1.48325 c -0.97766,1.41951 -1.07118,1.48328 -2.17583,1.48328 h -1.15426 z m 31.66774,-2.26982 v -4.622 h 1.05646 c 1.0141,0 1.05679,0.0344 1.06485,0.85837 0.007,0.72274 0.0592,0.79386 0.33015,0.45007 0.50085,-0.63558 1.57937,-1.30844 2.09725,-1.30844 0.36046,0 0.46947,0.21464 0.46947,0.92439 0,0.65879 -0.1176,0.9244 -0.40929,0.9244 -0.74181,0 -1.85948,0.74083 -2.18044,1.44526 -0.17713,0.38872 -0.31553,1.8457 -0.31553,3.32124 v 2.62873 h -1.05646 -1.05646 z m 6.86698,0 v -4.622 h 1.05646 1.05646 v 4.622 4.62202 h -1.05646 -1.05646 z m 15.8469,0 v -4.622 h 0.9244 c 0.80695,0 0.92441,0.0829 0.92441,0.65231 v 0.65234 l 0.96126,-0.65234 c 1.64199,-1.11428 4.06075,-0.80587 5.04217,0.64294 0.37364,0.55157 0.48258,1.39555 0.55727,4.31718 l 0.0928,3.63159 h -0.91718 -0.91717 l -0.1143,-3.20577 c -0.11071,-3.105 -0.1371,-3.22537 -0.83963,-3.82967 -0.84236,-0.72457 -1.4758,-0.78046 -2.54996,-0.22499 -1.15096,0.59518 -1.31529,1.13712 -1.31529,4.3378 v 2.92263 h -0.9244 -0.9244 z m -15.51675,-6.38162 c -0.45824,-0.1849 -0.41442,-1.53926 0.0625,-1.93514 0.52911,-0.43914 1.64493,-0.12778 1.84925,0.51601 0.35459,1.1172 -0.7071,1.90526 -1.91185,1.41913 z m -18.11692,-11.83139 c -1.30779,-0.46629 -2.23254,-1.32886 -2.84324,-2.65207 -0.4077,-0.88337 -0.48853,-1.73796 -0.49338,-5.21627 l -0.006,-4.15981 h 1.05646 1.05646 v 3.97485 c 0,4.24463 0.19594,5.08561 1.37782,5.91343 0.99599,0.69761 2.70504,0.53241 3.70222,-0.35785 l 0.86254,-0.77005 0.0838,-4.38019 0.0837,-4.38019 h 1.03869 1.03868 l -0.006,4.15981 c -0.005,3.46354 -0.087,4.33847 -0.49066,5.2272 -1.11588,2.45662 -3.84755,3.57318 -6.46161,2.64114 z m 11.05183,0.017 c -0.58104,-0.18307 -1.31251,-0.49374 -1.62549,-0.6904 -0.60149,-0.37794 -0.61554,-0.3012 0.32873,-1.79634 0.0284,-0.0449 0.50828,0.16305 1.06645,0.4622 1.21465,0.65102 2.79968,0.71161 3.28602,0.12561 0.51793,-0.62406 0.0133,-1.21895 -1.49886,-1.76681 -2.00276,-0.72562 -2.49564,-1.03833 -2.91509,-1.84945 -0.53706,-1.03857 -0.0648,-2.43296 1.05534,-3.11598 0.94221,-0.57453 3.03536,-0.67964 4.35727,-0.21882 0.8982,0.31311 1.02376,0.66709 0.49377,1.39189 -0.27863,0.38105 -0.46719,0.41312 -1.07365,0.18254 -1.63945,-0.62332 -3.5506,-0.0731 -3.17208,0.91334 0.0814,0.21197 0.94547,0.62293 1.92029,0.91325 2.17142,0.64667 2.92756,1.37093 2.92756,2.80412 0,2.39599 -2.25865,3.55589 -5.15026,2.64485 z m 10.06393,0.094 c -0.89597,-0.2681 -2.16323,-1.40711 -2.69227,-2.41979 -0.47688,-0.9128 -0.4792,-3.14244 -0.004,-4.27865 0.20248,-0.4846 0.81719,-1.22362 1.36605,-1.64224 0.88774,-0.67711 1.20939,-0.76113 2.91392,-0.76113 1.52324,0 2.06553,0.11163 2.64539,0.54455 1.19459,0.89189 1.66613,1.74624 1.84961,3.35115 l 0.17363,1.51866 h -3.73397 c -2.49105,0 -3.73398,0.0947 -3.73398,0.28444 0,0.15643 0.34741,0.63183 0.77203,1.05644 0.66104,0.66106 0.97531,0.77204 2.18621,0.77204 0.86872,0 1.64683,-0.16295 2.01734,-0.42247 0.5566,-0.38985 0.64272,-0.38669 1.11523,0.041 0.28163,0.25488 0.51206,0.55321 0.51206,0.66296 0,0.10976 -0.61759,0.50732 -1.37244,0.88348 -1.39768,0.69649 -2.63414,0.82267 -4.01436,0.40964 z m 4.06623,-5.6467 c 0,-1.08791 -1.14596,-2.00248 -2.50909,-2.00248 -1.3005,0 -2.77321,1.11285 -2.77321,2.09557 0,0.18045 0.94784,0.28147 2.64116,0.28147 2.10391,0 2.64114,-0.0762 2.64114,-0.37456 z m 4.22584,1.03485 v -4.62202 h 0.9244 c 0.85103,0 0.92441,0.0629 0.92441,0.79235 0,0.43579 0.11885,0.79234 0.2641,0.79234 0.14527,0 0.26413,-0.12059 0.26413,-0.26799 0,-0.35399 1.59061,-1.31445 2.17894,-1.31571 0.34945,-7.9e-4 0.46221,0.21733 0.46221,0.89403 0,0.81172 -0.0851,0.91095 -0.91348,1.06638 -1.57616,0.29569 -2.09695,1.37015 -2.21542,4.57071 l -0.10044,2.71192 h -0.89445 -0.89444 z m 65.26403,50.424164 c -3.27054,-0.879499 -5.99253,-3.194754 -7.5017,-6.380744 l -0.84556,-1.785024 -0.0793,-29.448826 c -0.0887,-32.95416 -0.17767,-31.2493 1.79082,-34.29494 1.18237,-1.82936 2.7842,-3.19723 4.90973,-4.19264 l 1.56623,-0.73349 h 57.841171 57.8411723 l 1.7167471,0.82557 c 3.1498906,1.51472 5.1215456,3.76816 6.0916266,6.96222 0.509161,1.67642 0.520676,2.47564 0.450844,31.30123 l -0.07165,29.580876 -0.845564,1.785024 c -1.60646,3.391406 -4.746127,5.88181 -8.2364219,6.533194 -0.9268297,0.172983 -20.9015311,0.25946 -57.3129421,0.24813 -47.970033,-0.01487 -56.092223,-0.07167 -57.315293,-0.40058 z M 6.6242306,-85.397392 c 1.7600486,-0.866104 3.4604314,-2.618466 4.3198374,-4.451895 l 0.705234,-1.504532 v -29.184701 c 0,-27.6907 -0.02496,-29.25631 -0.487505,-30.58358 -0.649686,-1.86425 -2.8749233,-4.26759 -4.726002,-5.10426 l -1.389366,-0.62796 h -57.048827 -57.048822 l -1.45264,0.68886 c -1.72446,0.81776 -3.47641,2.52546 -4.29513,4.18666 l -0.59099,1.19911 -0.0693,29.54011 c -0.0449,19.08592 0.024,29.887209 0.19469,30.520905 0.39097,1.451935 1.78253,3.398324 3.15477,4.412594 2.40637,1.778626 -2.17557,1.657181 60.503698,1.603707 l 56.9167688,-0.04862 z M -83.707117,-105.71643 c -1.189579,-0.54034 -2.41265,-1.84407 -2.661994,-2.83753 -0.289698,-1.15426 0.04582,-3.5128 0.60747,-4.27027 1.260853,-1.70048 4.152152,-2.41875 6.233744,-1.54863 1.384993,0.57894 1.61552,1.0384 0.871646,1.73722 -0.60509,0.56846 -0.660766,0.5748 -1.310522,0.14906 -1.411526,-0.92487 -3.550628,-0.43938 -4.280179,0.97141 -1.049223,2.02898 0.42933,4.44845 2.716595,4.44541 0.406686,-5.3e-4 1.143209,-0.24716 1.636716,-0.54802 l 0.897283,-0.54702 0.555349,0.56509 0.555348,0.56507 -0.792345,0.64535 c -1.481984,1.20705 -3.313603,1.45211 -5.029111,0.67286 z m 25.845018,-0.0186 c -0.462835,-0.28221 -0.967955,-0.74935 -1.122489,-1.03811 -0.154533,-0.28874 -0.28097,-1.84016 -0.28097,-3.44761 v -2.92263 h -0.660288 c -0.557576,0 -0.660287,-0.12326 -0.660287,-0.79235 0,-0.6691 0.102711,-0.79235 0.660287,-0.79235 0.624273,0 0.660288,-0.0793 0.660288,-1.45262 v -1.45264 h 0.924402 0.924402 v 1.45264 1.45262 h 1.188517 c 1.144498,0 1.188517,0.0293 1.188517,0.79235 0,0.763 -0.04403,0.79235 -1.188517,0.79235 h -1.188517 v 2.72038 c 0,1.7637 0.11146,2.83183 0.316938,3.03732 0.401612,0.40162 1.705392,0.41307 1.950093,0.0172 0.119641,-0.19359 0.308988,-0.0766 0.534457,0.33013 0.504536,0.91023 0.465598,1.01226 -0.548027,1.43577 -1.210072,0.5056 -1.691189,0.482 -2.698806,-0.1324 z m 7.921483,0.23618 c -1.282081,-0.39019 -2.622781,-1.80501 -2.984935,-3.14995 -0.887159,-3.29467 1.191227,-6.08516 4.524664,-6.07493 2.690689,0.008 4.453994,1.70402 4.453994,4.2834 v 1.25867 h -3.565551 c -1.989229,0 -3.565552,0.10722 -3.565552,0.24251 0,1.65625 3.157895,2.56404 4.770899,1.3715 0.706369,-0.52224 0.725225,-0.52266 1.174907,-0.0257 0.251361,0.27775 0.389292,0.68149 0.306516,0.89721 -0.377037,0.98253 -3.454047,1.70283 -5.114942,1.19736 z m 4.009314,-5.86176 c -0.509176,-1.76743 -2.83793,-2.35795 -4.334083,-1.09901 -0.446936,0.37607 -0.812611,0.91091 -0.812611,1.18851 0,0.46351 0.217303,0.50476 2.658948,0.50476 2.632075,0 2.657216,-0.006 2.487746,-0.59426 z m 6.819398,5.86255 c -1.216753,-0.37144 -2.611888,-1.80194 -2.990784,-3.06657 -0.697758,-2.32892 0.44836,-4.92135 2.567112,-5.80662 1.231344,-0.51449 3.477119,-0.45085 4.558637,0.12918 1.127169,0.60451 1.21547,0.8561 0.577139,1.6444 -0.420141,0.51884 -0.575079,0.56887 -0.907488,0.29299 -0.696265,-0.57783 -1.971415,-0.81416 -2.94405,-0.54561 -2.052717,0.56679 -2.709395,3.12816 -1.227265,4.78695 0.674779,0.75521 0.934251,0.86255 2.08519,0.86255 0.930165,0 1.479997,-0.14976 1.880493,-0.51221 0.562483,-0.50904 0.570186,-0.508 1.247071,0.16889 l 0.681095,0.68109 -1.174703,0.68841 c -1.331704,0.78044 -3.107797,1.05652 -4.352447,0.67655 z m 9.716794,-0.0559 c -1.395385,-0.71711 -1.735205,-1.58957 -1.831606,-4.70256 -0.0816,-2.63505 -0.13343,-2.88684 -0.594258,-2.88684 -0.384879,0 -0.50486,-0.1883 -0.50486,-0.79234 0,-0.61627 0.117383,-0.79236 0.528229,-0.79236 0.464204,0 0.52823,-0.17607 0.52823,-1.45262 v -1.45264 h 1.056459 1.05646 v 1.45264 1.45262 h 1.188518 c 1.144497,0 1.188517,0.0293 1.188517,0.79236 0,0.76299 -0.04402,0.79234 -1.188517,0.79234 h -1.188518 v 2.74087 c 0,3.13693 0.194028,3.5048 1.699587,3.22236 0.743553,-0.13949 0.964705,-0.0748 1.191413,0.34887 0.401764,0.75071 0.372815,0.8065 -0.637539,1.22865 -1.112908,0.465 -1.661154,0.47571 -2.492115,0.0486 z m 6.841528,-0.12856 c -1.515592,-0.75713 -1.84792,-1.778 -1.848396,-5.67807 l -4.08e-4,-3.36747 h 0.924402 0.924402 v 2.7338 c 0,2.94085 0.300882,4.25705 1.066877,4.667 0.840936,0.45006 2.037327,0.28923 2.81409,-0.37828 0.724893,-0.62293 0.742964,-0.70639 0.829192,-3.82966 l 0.08815,-3.19286 h 0.902284 0.902282 v 4.62202 4.62202 h -0.924403 c -0.826018,0 -0.924402,-0.0751 -0.924402,-0.70633 v -0.70634 l -0.594258,0.55668 c -1.236087,1.15792 -2.696114,1.38868 -4.15981,0.65749 z m 18.5993444,-0.0228 c -1.9169868,-0.89816 -2.968259,-2.96539 -2.6357233,-5.1829 0.3621151,-2.41476 2.1102628,-3.84354 4.6928503,-3.83549 2.67009901,0.008 4.4344477,1.71254 4.4344477,4.28339 v 1.25866 h -3.5655517 c -1.9892286,0 -3.5655517,0.10722 -3.5655517,0.24251 0,1.62255 2.9312512,2.50899 4.74795458,1.43583 0.76579841,-0.45236 0.80470804,-0.45073 1.18238912,0.0494 0.5049806,0.66877 0.4059132,0.94016 -0.54615718,1.49619 -1.25398855,0.73238 -3.46874802,0.85018 -4.74465782,0.25237 z m 4.37865544,-5.60126 c 0,-0.92729 -1.16103619,-1.8368 -2.34476514,-1.8368 -1.1983816,0 -2.673419,1.03302 -2.673419,1.87228 0,0.4615 0.2149793,0.50475 2.5090915,0.50475 2.35160099,0 2.50909264,-0.034 2.50909264,-0.54023 z m -106.01294784,1.92683 c 0.94479,-2.14262 2.14107,-4.87622 2.65841,-6.07464 l 0.94064,-2.17895 h 1.11623 1.116237 l 2.003668,4.55599 c 1.102011,2.50578 2.307453,5.23937 2.678748,6.07463 l 0.67509,1.51868 h -1.127041 c -1.108043,0 -1.135687,-0.0222 -1.639506,-1.32059 l -0.512445,-1.32058 h -3.133971 -3.13396 l -0.55793,1.32058 c -0.54496,1.28991 -0.58398,1.32059 -1.67992,1.32059 h -1.12202 z m 6.568657,-1.4024 c -0.09493,-0.29923 -0.553255,-1.38092 -1.018397,-2.40376 l -0.84572,-1.85973 -0.98026,2.25701 c -0.53916,1.24138 -0.98027,2.32307 -0.98027,2.40378 0,0.0806 0.89939,0.14673 1.99865,0.14673 1.897826,0 1.989954,-0.0274 1.825997,-0.54403 z m 6.211718,0.67609 v -4.62202 h 0.924401 c 0.857892,0 0.924404,0.0589 0.924404,0.81972 v 0.8197 l 0.933594,-0.8197 c 1.283154,-1.12663 1.971669,-1.0974 1.971669,0.0837 0,0.78028 -0.103484,0.92615 -0.75918,1.07017 -0.41755,0.0918 -1.041512,0.46694 -1.386601,0.83388 -0.567144,0.60304 -0.636012,0.94432 -0.716828,3.55185 l -0.08944,2.88471 h -0.901039 -0.901022 z m 16.903355,-1.8488 v -6.47082 h 0.924402 0.924403 v 2.5091 c 0,1.49664 0.106573,2.50908 0.264115,2.50908 0.145264,0 0.264115,-0.1158 0.264115,-0.25733 0,-0.82048 2.890505,-1.35703 4.340581,-0.80571 1.386051,0.52698 1.731985,1.62221 1.733075,5.48697 l 9.87e-4,3.49953 h -0.90286 -0.902864 l -0.08757,-3.29275 c -0.101155,-3.80345 -0.306783,-4.22253 -2.071863,-4.22253 -0.795988,0 -1.229893,0.17687 -1.777596,0.72457 -0.691583,0.69158 -0.728949,0.86263 -0.820848,3.75763 l -0.09628,3.03308 h -0.895899 -0.895897 z m 11.356943,1.8488 v -4.62202 h 0.924401 0.924403 v 4.62202 4.62202 h -0.924403 -0.924401 z m 51.502413,0 v -4.62202 h 0.924402 c 0.855904,0 0.924402,0.0601 0.924402,0.81158 v 0.81158 l 0.984579,-0.81158 c 0.5415202,-0.44635 1.2546305,-0.81158 1.5846887,-0.81158 0.5097664,0 0.6001121,0.13918 0.6001121,0.92441 0,0.65878 -0.1176073,0.9244 -0.4092882,0.9244 -0.7579572,0 -1.8623266,0.74724 -2.2152166,1.49885 -0.192673,0.41037 -0.409978,1.90493 -0.482903,3.32125 l -0.132593,2.57513 h -0.889093 -0.88909 z m -51.449591,-6.52364 c -0.853745,-0.85375 0.103992,-2.29741 1.277116,-1.92507 0.643785,0.20434 0.955145,1.32015 0.516019,1.84926 -0.392507,0.47295 -1.355296,0.51365 -1.793135,0.0758 z m -12.257215,-11.55046 c -3.459192,-1.11392 -4.508391,-5.54439 -1.892255,-7.99045 1.799467,-1.68249 4.911166,-1.74372 6.670243,-0.13126 0.83834,0.76846 1.602911,2.47638 1.610077,3.59662 0.0085,1.32885 -0.962113,3.12065 -2.097425,3.87196 -1.080055,0.71475 -3.130185,1.02683 -4.29064,0.65313 z m 3.142247,-2.11794 c 2.097786,-1.27911 1.345153,-4.98464 -1.105825,-5.44445 -2.903352,-0.54467 -4.646559,3.0712 -2.510439,5.20732 0.915655,0.91566 2.349281,1.00966 3.616264,0.23713 z m 31.379857,2.00814 c -1.283394,-0.58964 -1.848803,-1.40961 -1.848803,-2.68118 0,-1.97952 1.297393,-2.76883 4.555982,-2.77173 1.814889,-0.002 2.079708,-0.32794 1.23957,-1.5274 -0.498308,-0.71143 -2.014815,-0.79436 -3.462824,-0.18934 -0.874101,0.36523 -0.980452,0.35984 -1.303693,-0.0659 -0.535204,-0.70513 -0.460045,-0.84425 0.75374,-1.39522 1.353938,-0.61456 3.62278,-0.6758 4.685124,-0.12643 1.440414,0.74486 1.587606,1.22794 1.587606,5.21051 v 3.63884 h -0.792344 c -0.52823,0 -0.792346,-0.13205 -0.792346,-0.39617 0,-0.50161 -0.261177,-0.5009 -0.980077,0.003 -0.825341,0.5781 -2.701815,0.73344 -3.641935,0.30152 z m 3.709613,-2.14095 c 0.356556,-0.35655 0.648284,-0.9508 0.648284,-1.32057 0,-0.63544 -0.07601,-0.67208 -1.386602,-0.66839 -1.701233,0.005 -2.677466,0.46126 -2.798291,1.30849 -0.198245,1.39009 2.338836,1.87825 3.536609,0.68047 z m 7.283011,2.04537 c -1.265755,-0.62356 -1.616542,-1.66994 -1.616542,-4.82209 0,-2.47356 -0.03511,-2.64964 -0.528231,-2.64964 -0.410846,0 -0.52823,-0.17607 -0.52823,-0.79234 0,-0.61627 0.117384,-0.79235 0.52823,-0.79235 0.464204,0 0.528231,-0.17608 0.528231,-1.45263 v -1.45263 h 0.924402 0.924401 v 1.45263 1.45263 h 1.320575 c 1.291229,0 1.320576,0.0177 1.320576,0.79235 0,0.77473 -0.02935,0.79234 -1.320576,0.79234 h -1.320575 v 2.07991 c 0,2.95497 0.19098,3.70219 0.997964,3.90475 0.36655,0.0921 0.876049,0.0363 1.132224,-0.12362 0.380016,-0.23732 0.54287,-0.1732 0.88454,0.34825 0.564254,0.86116 0.552388,0.89293 -0.497152,1.33146 -1.165491,0.48699 -1.645665,0.47492 -2.749837,-0.069 z m 12.854674,0.20538 c -2.856028,-0.91968 -4.156847,-4.05345 -2.824792,-6.8051 1.280773,-2.64573 5.378636,-3.35538 7.602779,-1.31661 0.83834,0.76846 1.602911,2.47638 1.610077,3.59662 0.0085,1.32885 -0.962113,3.12065 -2.097425,3.87196 -1.080055,0.71475 -3.130184,1.02683 -4.290639,0.65313 z m 2.916796,-1.9761 c 2.265617,-1.17161 1.663096,-5.10913 -0.854056,-5.58135 -2.928562,-0.5494 -4.685472,3.05367 -2.536757,5.20238 0.856759,0.85677 2.180717,1.00473 3.390813,0.37897 z m -86.850238,-4.11632 v -6.07464 h 1.05646 1.05645 v 6.07464 6.07465 h -1.05645 -1.05646 z m 5.018177,1.45263 v -4.62201 h 1.05646 c 0.96049,0 1.056471,0.0621 1.056471,0.68376 v 0.68377 l 0.845735,-0.71164 c 0.752465,-0.63316 1.014233,-0.69946 2.373419,-0.60115 2.704996,0.19567 3.383712,1.51172 3.383712,6.56114 v 2.62815 h -1.056456 -1.056467 v -3.14013 c 0,-2.68757 -0.07207,-3.22911 -0.500033,-3.75763 -0.701774,-0.86665 -2.383434,-0.85814 -3.314747,0.0168 -0.650335,0.61097 -0.675163,0.7492 -0.675163,3.75764 v 3.12334 h -1.056471 -1.05646 z m 11.62106,0.79235 c 0,-3.65359 -0.02428,-3.82967 -0.528229,-3.82967 -0.410847,0 -0.52823,-0.17607 -0.52823,-0.79234 0,-0.60037 0.120716,-0.79235 0.498242,-0.79235 0.38548,0 0.537231,-0.26 0.670532,-1.14891 0.297209,-1.98194 1.979503,-3.06776 3.921986,-2.53142 1.162227,0.32091 1.365096,0.59099 0.981831,1.30713 -0.239706,0.4479 -0.450481,0.51299 -1.203624,0.3717 -1.127285,-0.21149 -1.699588,0.20656 -1.699588,1.2415 0,0.72466 0.05527,0.76 1.188518,0.76 1.144496,0 1.188516,0.0293 1.188516,0.79235 0,0.76301 -0.04403,0.79234 -1.188516,0.79234 h -1.188518 v 3.82967 3.82967 h -1.056459 -1.056461 z m 17.695701,-0.79235 v -4.62201 h 0.924402 c 0.857893,0 0.924404,0.059 0.924404,0.81971 v 0.8197 l 0.933593,-0.8197 c 1.283152,-1.12663 1.97167,-1.09739 1.97167,0.0837 0,0.78028 -0.103484,0.92615 -0.759177,1.07017 -0.417547,0.0918 -1.041518,0.46696 -1.386604,0.83388 -0.567139,0.60304 -0.636015,0.94433 -0.716823,3.55185 l -0.08939,2.88471 h -0.901035 -0.901035 z m 6.866989,0 v -4.62201 h 0.924402 c 0.806946,0 0.924403,0.0829 0.924403,0.65233 v 0.65233 l 0.961259,-0.65233 c 1.426303,-0.96791 3.215264,-0.91138 4.412063,0.13942 0.801988,0.70416 0.939669,0.74606 1.2445,0.37875 1.468318,-1.7692 5.315234,-1.41183 6.066279,0.56357 0.141641,0.37254 0.25753,2.21469 0.25753,4.09365 v 3.41631 h -0.90286 -0.902865 l -0.08757,-3.29275 c -0.101156,-3.80344 -0.306783,-4.22253 -2.071863,-4.22253 -0.79599,0 -1.229894,0.17687 -1.777597,0.72457 -0.691583,0.69158 -0.72895,0.86264 -0.820849,3.75763 l -0.09628,3.03308 h -0.895898 -0.895897 v -3.18139 c 0,-3.02561 -0.03174,-3.21312 -0.648283,-3.82965 -0.737921,-0.73794 -1.434175,-0.81419 -2.482791,-0.27193 -1.091123,0.56425 -1.358879,1.4553 -1.358879,4.52218 v 2.76079 h -0.924402 -0.924404 z m 35.127287,0 v -4.62201 h 0.924401 0.924403 v 4.62201 4.62202 h -0.924403 -0.924401 z m 16.1110111,0 v -4.62201 h 1.0564591 c 0.9691783,0 1.0564601,0.0584 1.0564601,0.70633 v 0.70633 l 0.6639063,-0.62371 c 0.4963055,-0.46626 1.0495503,-0.6516 2.1915757,-0.73421 1.3562087,-0.0981 1.6217319,-0.0313 2.3656905,0.59465 1.1043328,0.92923 1.3784549,2.04607 1.3802276,5.62335 l 0.00148,2.97129 H -2.216723 -3.2731842 v -3.18139 c 0,-3.06554 -0.024744,-3.20614 -0.6796914,-3.86108 -0.5658792,-0.56587 -0.8422831,-0.6538 -1.6507185,-0.52513 -0.5765409,0.0918 -1.2124458,0.43239 -1.5652847,0.83848 -0.5418085,0.62356 -0.5942595,0.95071 -0.5942595,3.70652 v 3.0226 h -1.0564591 -1.0564591 z m -16.0969721,-6.58595 c -0.504953,-0.60844 -0.129508,-1.69462 0.653701,-1.89119 0.913276,-0.22923 1.490617,0.31948 1.392639,1.32355 -0.06793,0.69622 -0.198137,0.82641 -0.894357,0.89436 -0.493546,0.0481 -0.947779,-0.0806 -1.151983,-0.32672 z m -216.060053,-30.37245 c -3.82922,-1.06719 -6.83932,-3.91396 -7.92608,-7.49601 -0.52642,-1.73507 -0.53448,-2.279 -0.46463,-31.34659 l 0.0711,-29.58086 0.59238,-1.45264 c 1.29479,-3.17508 3.97862,-5.64412 7.19353,-6.61782 1.69646,-0.51381 2.63301,-0.52055 62.60071,-0.45141 l 60.8785,0.0702 1.74933,0.82884 c 2.96781,1.40618 4.92186,3.53973 6.01387,6.56637 l 0.57175,1.58469 -0.0737,29.97703 -0.0737,29.97705 -0.84745,1.78908 c -1.47128,3.10612 -4.07749,5.23384 -7.53977,6.15557 -1.94671,0.51823 -120.88595,0.51486 -122.74584,-0.003 z m 123.08221,-2.71026 c 1.82928,-0.59079 3.96795,-2.54945 4.93582,-4.52039 l 0.73801,-1.50284 v -29.58087 -29.58087 l -0.73801,-1.50283 c -0.95252,-1.93969 -3.15463,-3.97109 -5.00345,-4.61561 -1.33206,-0.46436 -3.88527,-0.48443 -61.60786,-0.48443 -68.30833,0 -61.6856,-0.23013 -64.38531,2.23725 -1.58751,1.45089 -2.45733,3.0106 -2.84327,5.09832 -0.1746,0.94455 -0.24282,11.38623 -0.19474,29.80936 l 0.074,28.35556 0.68699,1.46468 c 1.14991,2.45164 2.86571,4.0627 5.2245,4.90563 0.77032,0.27528 12.65854,0.34369 61.34146,0.35303 56.05723,0.0108 60.4853,-0.0204 61.77184,-0.43599 z m -90.7931,-17.26125 -1.12142,-0.56924 0.42993,-0.72784 0.42995,-0.72783 1.248,0.52726 c 2.40766,1.01722 4.49287,-0.0476 4.49287,-2.29426 v -1.18791 l -0.66889,0.61989 c -1.26609,1.17337 -3.22122,1.15142 -4.83953,-0.0543 -2.43431,-1.81373 -2.04925,-6.30442 0.65045,-7.58551 1.31548,-0.62423 3.31887,-0.43375 4.20629,0.39994 l 0.65168,0.61221 v -0.70634 c 0,-0.63114 0.0984,-0.70632 0.9244,-0.70632 h 0.9244 v 4.89462 c 0,5.48712 -0.16898,6.24661 -1.61968,7.27958 -1.27997,0.91142 -4.13548,1.0245 -5.70845,0.22607 z m 4.13466,-5.65287 c 2.30492,-1.19193 1.38465,-5.16271 -1.19653,-5.16271 -1.20342,0 -1.84971,0.36294 -2.34221,1.31528 -1.34173,2.59465 1.01222,5.15394 3.53874,3.84743 z m 67.97671,5.65682 -1.11343,-0.56528 0.43924,-0.7032 c 0.24158,-0.38675 0.45359,-0.73111 0.47115,-0.76524 0.0176,-0.0342 0.49465,0.17388 1.0602,0.46221 1.12728,0.57473 2.10965,0.66005 3.13054,0.27191 0.87361,-0.33215 1.41445,-1.19826 1.64323,-2.63155 l 0.1863,-1.16711 -0.9554,0.72872 c -2.02746,1.54641 -4.76126,0.89068 -5.92735,-1.42174 -1.02848,-2.03955 -0.67435,-4.13691 0.95764,-5.67166 0.67006,-0.63013 1.11165,-0.79623 2.35615,-0.88626 1.36356,-0.0986 1.62434,-0.0327 2.37732,0.60086 l 0.84574,0.71166 v -0.68377 c 0,-0.6243 0.094,-0.68377 1.08164,-0.68377 h 1.08166 l -0.0915,4.82011 c -0.10086,5.30982 -0.35743,6.32141 -1.88705,7.43974 -1.12244,0.82064 -4.1707,0.89845 -5.65601,0.14437 z m 4.6993,-6.04514 c 0.63211,-0.63211 0.77203,-0.9948 0.77203,-2.00118 0,-3.39506 -4.5438,-3.85371 -5.16888,-0.52175 -0.49123,2.61845 2.554,4.3658 4.39685,2.52293 z m -47.99198,2.86167 c -1.1083,-0.32125 -2.66466,-2.08825 -2.88802,-3.27889 -0.67013,-3.57205 1.48827,-6.13778 4.95251,-5.88719 2.47502,0.17903 3.83976,1.50807 4.09578,3.98863 l 0.15513,1.50311 h -3.73455 c -2.05401,0 -3.73456,0.10287 -3.73456,0.2285 0,0.5442 1.15346,1.62227 1.97987,1.85045 0.98201,0.27114 2.55172,0.0191 3.19226,-0.51242 0.33386,-0.27708 0.50266,-0.23344 0.98295,0.25409 l 0.57985,0.5886 -0.61539,0.50557 c -1.15195,0.94635 -3.22661,1.26367 -4.96583,0.75955 z m 4.12858,-5.63359 c 0,-1.09181 -1.14659,-2.00247 -2.52125,-2.00247 -1.20053,0 -2.76104,1.27587 -2.76104,2.25741 0,0.0658 1.18852,0.11962 2.64114,0.11962 2.10393,0 2.64115,-0.0762 2.64115,-0.37456 z m 6.70013,5.63359 c -1.1083,-0.32125 -2.66465,-2.08825 -2.88801,-3.27889 -0.67013,-3.57205 1.48826,-6.13778 4.95251,-5.88719 2.47501,0.17903 3.83976,1.50807 4.09577,3.98863 l 0.15514,1.50311 h -3.73456 c -2.054,0 -3.73456,0.10287 -3.73456,0.2285 0,0.5442 1.15347,1.62227 1.97986,1.85045 0.98202,0.27114 2.55174,0.0191 3.19227,-0.51242 0.33386,-0.27708 0.50267,-0.23344 0.98294,0.25409 l 0.57987,0.5886 -0.6154,0.50557 c -1.15195,0.94635 -3.22661,1.26367 -4.96583,0.75955 z m 4.12859,-5.63359 c 0,-1.09181 -1.14659,-2.00247 -2.52126,-2.00247 -1.20053,0 -2.76104,1.27587 -2.76104,2.25741 0,0.0658 1.18852,0.11962 2.64115,0.11962 2.10391,0 2.64115,-0.0762 2.64115,-0.37456 z m -67.34931,-0.41778 v -6.07464 h 4.22584 4.22583 v 0.9244 0.9244 h -3.16938 -3.16937 v 1.71674 1.71676 h 2.90526 2.90527 v 0.9244 0.9244 h -2.90527 -2.90526 v 1.5847 1.58468 h 3.30144 3.30144 v 0.9244 0.9244 h -4.3579 -4.3579 z m 11.09282,1.45263 v -4.62201 h 1.05646 c 0.94738,0 1.05646,0.0674 1.05646,0.65234 v 0.65231 l 0.96127,-0.65231 c 1.68348,-1.14245 4.26429,-0.64854 5.14295,0.98425 0.19171,0.35626 0.37717,2.05867 0.44748,4.10791 l 0.12009,3.49952 h -1.09092 -1.09091 v -3.11061 c 0,-3.46246 -0.23326,-4.11984 -1.56574,-4.4125 -0.89662,-0.19692 -2.2373,0.39436 -2.65227,1.16974 -0.14957,0.27946 -0.27195,1.8233 -0.27195,3.43074 v 2.92263 h -1.05646 -1.05646 z m 22.71389,0 v -4.62201 h 1.05646 1.05646 v 4.62201 4.62201 h -1.05646 -1.05646 z m 4.81386,0.066 0.0723,-4.55598 0.99043,-0.0819 c 0.95823,-0.0793 0.99043,-0.054 0.99043,0.77679 0,0.72855 0.0501,0.79689 0.33015,0.45076 1.11931,-1.38331 3.50943,-1.73318 4.81648,-0.70507 1.17877,0.92722 1.45625,1.97398 1.45625,5.49359 v 3.17786 h -1.05647 -1.05645 v -3.05468 c 0,-1.68008 -0.12608,-3.29026 -0.28018,-3.57819 -0.41931,-0.78348 -1.47803,-1.09733 -2.53026,-0.75007 -1.4629,0.48281 -1.67952,1.05086 -1.67952,4.40439 v 2.97855 h -1.06269 -1.0627 z m 32.95457,-0.066 v -4.62201 h 0.92441 c 0.85104,0 0.9244,0.0629 0.9244,0.79234 0,0.4358 0.11885,0.79235 0.26412,0.79235 0.14526,0 0.26411,-0.10916 0.26411,-0.24257 0,-0.32726 1.67121,-1.34212 2.21011,-1.34212 0.3135,0 0.43104,0.24309 0.43104,0.89139 0,0.77395 -0.1017,0.91174 -0.77214,1.04582 -1.67089,0.33419 -2.39336,1.92036 -2.39577,5.25992 l -9.9e-4,2.04689 h -0.9244 -0.92441 z m 6.867,0 v -4.62201 h 1.05646 1.05646 v 4.62201 4.62201 h -1.05646 -1.05646 z m 5.01818,0 v -4.62201 h 0.92441 c 0.86511,0 0.92494,0.055 0.93279,0.85837 0.007,0.72276 0.0592,0.79387 0.33015,0.45009 1.11199,-1.41113 3.48745,-1.7747 4.80808,-0.73589 1.17876,0.92723 1.45625,1.97398 1.45625,5.49359 v 3.17786 h -0.89185 -0.89186 l -0.11213,-3.14511 c -0.11881,-3.33245 -0.29162,-3.82657 -1.49882,-4.28555 -0.83271,-0.31659 -2.28171,0.15079 -2.81123,0.90678 -0.29626,0.42297 -0.39698,1.32246 -0.39698,3.54533 v 2.97855 h -0.9244 -0.92441 z m -49.66309,-6.75265 c -0.36908,-0.68963 0.29539,-1.83108 1.06594,-1.83108 0.28383,0 0.70552,0.28916 0.93709,0.64258 0.58338,0.89035 0.12732,1.73445 -0.93709,1.73445 -0.51182,0 -0.87267,-0.18481 -1.06594,-0.54595 z m 44.82098,0.36987 c -0.0968,-0.0968 -0.17607,-0.48904 -0.17607,-0.87157 0,-1.3104 1.11327,-1.75983 1.98183,-0.80008 0.69309,0.76585 0.18035,1.84773 -0.8757,1.84773 -0.41469,0 -0.83322,-0.0793 -0.93006,-0.17608 z m 10.22215,-8.39191 c -1.10161,-0.47939 -1.28081,-0.83961 -0.79022,-1.58836 l 0.40952,-0.62502 0.99985,0.5218 c 0.71039,0.37072 1.33383,0.48695 2.15343,0.40143 1.57842,-0.16466 2.42564,-1.04438 2.61385,-2.71409 l 0.14398,-1.27747 -0.84098,0.70764 c -2.52657,2.12597 -6.14192,0.39551 -6.5296,-3.12534 -0.39684,-3.60393 3.44938,-6.16266 6.32758,-4.20945 l 0.96126,0.65231 v -0.65231 c 0,-0.56946 0.11746,-0.65234 0.9244,-0.65234 h 0.9244 l -0.002,4.42392 c -0.002,5.81186 -0.38025,7.08095 -2.42847,8.14663 -0.90438,0.47054 -3.77749,0.46503 -4.86754,-0.008 z m 4.25007,-6.02435 c 1.96117,-1.71472 0.85226,-4.95216 -1.69624,-4.95216 -2.35938,0 -3.35181,3.4853 -1.42419,5.00158 0.91988,0.72357 2.26064,0.70234 3.12043,-0.0494 z m -72.37895,2.7154 c -0.30237,-0.12232 -0.86693,-0.59931 -1.25454,-1.05997 -0.68978,-0.81977 -0.70479,-0.91586 -0.70479,-4.51493 v -3.67735 h 0.92441 0.92441 v 3.13376 c 0,2.77042 0.0635,3.21446 0.5474,3.82968 0.41538,0.52806 0.78339,0.6959 1.52592,0.6959 2.06283,0 2.67685,-1.19543 2.67927,-5.21627 l 9.9e-4,-2.44307 h 0.92441 0.9244 v 4.62201 4.62202 h -0.9244 c -0.82602,0 -0.92441,-0.0751 -0.92441,-0.70632 v -0.70634 l -0.59425,0.55668 c -1.08753,1.01875 -2.77634,1.37918 -4.0493,0.8642 z m 12.50097,-0.37567 c -1.19672,-0.64308 -1.25454,-0.65015 -1.25454,-0.15336 0,0.41913 -0.18048,0.52081 -0.9244,0.52081 h -0.9244 v -6.47081 -6.47083 h 0.9244 0.9244 l 0.008,2.70718 c 0.006,1.96829 0.0815,2.58102 0.27724,2.24498 0.76347,-1.31083 3.51155,-1.669 5.0177,-0.65401 1.47634,0.9949 2.09224,2.15385 2.09224,3.93695 0,1.96828 -0.48258,3.12282 -1.69041,4.04406 -1.37564,1.04926 -2.86319,1.14787 -4.45027,0.29503 z m 3.42685,-2.14821 c 0.87688,-0.87687 0.92334,-1.01023 0.79986,-2.29546 -0.14154,-1.47289 -0.89849,-2.41817 -2.19747,-2.74419 -2.21661,-0.55633 -4.05174,2.39886 -2.88761,4.65003 0.50888,0.98408 1.07609,1.30259 2.33742,1.31255 0.81709,0.006 1.19972,-0.17485 1.9478,-0.92293 z m 16.18197,2.53299 c -0.36409,-0.11074 -1.04949,-0.40174 -1.52309,-0.64666 -0.69857,-0.36123 -0.81207,-0.53082 -0.60139,-0.89841 0.67328,-1.17472 0.68499,-1.17908 1.62559,-0.60565 1.08764,0.66308 2.92411,0.733 3.42425,0.13039 0.54337,-0.65474 0.0109,-1.19072 -1.84727,-1.85941 -1.93255,-0.69545 -2.57012,-1.19693 -2.78907,-2.19374 -0.39343,-1.79133 1.14116,-3.18522 3.50859,-3.18689 1.19089,-8.5e-4 2.95818,0.54746 2.95818,0.91777 0,0.0621 -0.13542,0.41006 -0.30093,0.77331 -0.28581,0.62727 -0.33824,0.64117 -1.04334,0.27654 -0.98441,-0.50906 -2.47588,-0.48776 -3.00656,0.043 -0.66935,0.66936 -0.37079,0.96999 1.73112,1.74301 1.07768,0.39634 2.16741,0.97482 2.42162,1.2855 0.58086,0.70992 0.59703,2.30927 0.0315,3.11667 -0.79571,1.13602 -2.85586,1.63193 -4.58921,1.10466 z m -45.69017,-6.12386 v -6.10653 l 3.24748,0.10812 c 2.61511,0.0871 3.41975,0.20897 4.1322,0.62614 1.503,0.88004 1.99791,1.78761 1.98532,3.64075 -0.0212,3.11486 -1.22005,4.11883 -5.1889,4.34512 l -2.3273,0.1327 v 1.68012 1.68011 h -0.9244 -0.9244 z m 6.59922,0.16726 c 1.04335,-0.94424 0.91129,-3.20589 -0.22263,-3.81275 -0.28364,-0.15179 -1.359,-0.35436 -2.38969,-0.45015 l -1.87398,-0.17417 v 2.58175 2.58176 l 1.98238,-0.12723 c 1.3972,-0.0896 2.13633,-0.26655 2.50392,-0.59921 z m 27.99985,-0.53154 v -6.47083 h 0.92439 0.9244 v 6.47083 6.47081 h -0.9244 -0.92439 z m 4.75406,1.83285 v -4.63795 l 0.99042,0.0819 0.99043,0.0819 0.0723,4.55597 0.0723,4.55598 h -1.06269 -1.06269 z m 13.73398,-1.83285 v -6.47083 h 0.9244 0.9244 v 2.50911 c 0,1.37999 0.072,2.50908 0.15997,2.50908 0.0879,0 0.51306,-0.29714 0.94465,-0.66029 0.92572,-0.77893 2.69192,-0.89585 3.92221,-0.25964 1.32213,0.6837 1.57605,1.55316 1.57605,5.39677 v 3.44661 h -0.92442 -0.9244 v -2.89284 c 0,-1.59106 -0.13426,-3.18753 -0.29836,-3.5477 -0.62407,-1.36967 -2.53091,-1.49914 -3.70434,-0.25154 -0.56165,0.59716 -0.62756,0.93934 -0.70807,3.67527 l -0.0887,3.01681 h -0.90168 -0.90167 z m 11.35693,1.84879 v -4.62201 h 0.92441 0.9244 v 4.62201 4.62202 h -0.9244 -0.92441 z m 4.75407,0 v -4.62201 h 0.92442 c 0.80995,0 0.9244,0.0817 0.9244,0.66029 0,0.36315 0.11884,0.66029 0.26411,0.66029 0.14526,0 0.2641,-0.0932 0.2641,-0.20717 0,-0.11395 0.3452,-0.41107 0.76707,-0.66029 1.08031,-0.63814 2.94934,-0.59004 3.82462,0.0984 1.26792,0.99737 1.48297,1.7772 1.48297,5.37792 v 3.31456 h -0.89658 -0.8966 l -0.0939,-3.14172 c -0.1016,-3.40125 -0.34648,-4.02762 -1.70812,-4.36938 -0.86771,-0.21778 -2.32905,0.49995 -2.70703,1.32955 -0.16539,0.363 -0.3007,1.90233 -0.3007,3.42077 v 2.76078 h -0.92441 -0.92441 z m -29.85446,-6.75264 c -0.4023,-0.75172 0.33251,-1.89782 1.14205,-1.78124 0.73942,0.10647 1.30239,1.1972 0.95396,1.84825 -0.36357,0.67934 -1.71978,0.63599 -2.09601,-0.067 z m 24.9966,0.12817 c -0.32302,-0.84178 -0.1497,-1.44718 0.4989,-1.74271 0.54469,-0.24818 0.75116,-0.21715 1.18852,0.17864 0.96543,0.87371 0.50925,1.98184 -0.81585,1.98184 -0.40493,0 -0.7803,-0.17993 -0.87157,-0.41777 z m 69.632229,57.0585 c -0.762529,-0.20534 -1.882902,-0.62662 -2.489708,-0.93619 -1.531228,-0.78118 -3.693742,-2.89292 -4.523317,-4.41712 -1.552714,-2.85286 -1.504854,-1.80839 -1.504854,-32.84187 0,-20.07709 0.0875,-28.86802 0.2972,-29.85552 0.848763,-3.99707 3.794496,-7.22139 7.715801,-8.44547 1.468364,-0.45836 3.834598,-0.48141 49.427705,-0.48141 46.9574548,0 47.9182809,0.0106 49.5764473,0.52229 3.1940371,0.98652 5.8612307,3.4524 7.1483997,6.60881 l 0.592384,1.45264 0.07051,29.56388 c 0.06334,26.55931 0.0272,29.71289 -0.355736,31.03014 -1.127937,3.87995 -4.1349703,6.76985 -8.1664599,7.84837 -2.018126,0.53989 -95.7759641,0.49335 -97.7883761,-0.0485 z m 99.1891267,-3.1411 c 1.7462408,-0.96739 3.0759883,-2.41903 3.9779093,-4.34255 l 0.695987,-1.48434 v -29.32227 -29.32228 l -0.866447,-1.76004 c -1.0605693,-2.15435 -2.9515215,-3.9405 -4.8859125,-4.61509 -1.3138371,-0.45818 -3.6354103,-0.48081 -49.3156055,-0.48081 h -47.936866 l -1.484323,0.69599 c -1.923521,0.90192 -3.375163,2.23166 -4.342554,3.9779 l -0.775991,1.40075 -0.07048,29.62514 -0.07049,29.62512 0.573278,1.53225 c 0.753057,2.01272 2.745889,4.03551 4.727015,4.79807 l 1.443503,0.55563 48.465097,-0.0537 48.4650917,-0.0537 z M -25.88934,-189.5889 c -1.101603,-0.4794 -1.280813,-0.83962 -0.790209,-1.58837 l 0.409519,-0.62501 0.999849,0.52179 c 0.710385,0.37074 1.333825,0.48695 2.153427,0.40145 1.58554,-0.16542 2.427657,-1.04437 2.608161,-2.72226 l 0.138307,-1.28563 -0.629447,0.57666 c -1.842991,1.68845 -4.736834,1.27395 -6.060702,-0.86812 -0.804426,-1.30159 -0.849916,-3.56996 -0.09743,-4.8584 1.17752,-2.0162 3.715234,-2.73389 5.601096,-1.58409 1.06917,0.65187 1.116105,0.65184 1.116105,-9.8e-4 0,-0.42977 0.176078,-0.52824 0.944597,-0.52824 h 0.944596 l -0.08622,5.10553 -0.08623,5.10553 -0.761132,0.99714 c -0.418621,0.54842 -1.157628,1.1628 -1.642234,1.36529 -1.113429,0.46522 -3.680033,0.4586 -4.762059,-0.0123 z m 4.205422,-5.96245 c 2.087861,-1.64231 0.968203,-5.0293 -1.654748,-5.00566 -1.560759,0.0141 -2.384296,1.01567 -2.384296,2.89982 0,2.17233 2.378204,3.41225 4.039044,2.10584 z m 5.601152,6.03179 c -0.290527,-0.16227 -0.57394,-0.33312 -0.629809,-0.37967 -0.168434,-0.14035 0.545113,-1.68627 0.778321,-1.68627 0.119069,0 0.28994,0.11885 0.379718,0.26412 0.463732,0.75034 2.244976,-0.12195 2.244976,-1.09936 0,-0.34426 -0.784857,-2.43073 -3.143987,-8.35804 l -0.557969,-1.40189 1.0886,0.0814 1.088602,0.0814 1.26223,3.16938 c 0.694226,1.74316 1.347195,3.16938 1.451042,3.16938 0.103844,0 0.756816,-1.42622 1.451042,-3.16938 l 1.2622296,-3.16938 1.0856501,-0.0812 c 1.0371699,-0.0776 1.0751799,-0.054 0.8511889,0.52823 -0.694853,1.80605 -3.8609806,9.47767 -4.2891126,10.39263 -0.799008,1.70759 -2.835921,2.48922 -4.322722,1.65879 z m -61.802895,-3.37023 c -0.946523,-0.23144 -2.938796,-1.22789 -3.155234,-1.57809 -0.08456,-0.13682 0.119011,-0.56587 0.452383,-0.95344 l 0.606133,-0.70467 0.987068,0.58238 c 1.997219,1.17839 4.11225,1.22623 4.843918,0.10956 0.706843,-1.07877 -0.357,-2.17093 -2.545752,-2.6135 -1.571098,-0.31768 -3.162435,-1.21009 -3.572756,-2.00357 -0.536502,-1.03747 -0.48521,-2.59819 0.11789,-3.58725 1.052905,-1.72672 4.383075,-2.16686 6.85466,-0.90595 1.236084,0.63059 1.265266,0.71048 0.565971,1.54927 -0.483195,0.57958 -0.543619,0.58854 -1.307233,0.19365 -1.974669,-1.02113 -4.297536,-0.6613 -4.455646,0.69025 -0.116212,0.99337 0.474451,1.43258 2.93643,2.18353 2.953198,0.90078 4.10799,2.23021 3.722442,4.28535 -0.419114,2.23408 -3.128896,3.46685 -6.050274,2.75248 z m 10.295997,-0.15753 c -1.317709,-0.65047 -1.551548,-1.28888 -1.665419,-4.54679 -0.09445,-2.70213 -0.149121,-2.9713 -0.603579,-2.9713 -0.379171,0 -0.499724,-0.19114 -0.499724,-0.79235 0,-0.61626 0.117383,-0.79234 0.52823,-0.79234 0.464202,0 0.52823,-0.17607 0.52823,-1.45262 v -1.45264 h 1.056459 1.05646 v 1.45264 1.45262 h 1.188518 c 1.144496,0 1.188516,0.0293 1.188516,0.79234 0,0.76301 -0.04403,0.79235 -1.188516,0.79235 h -1.188518 v 2.74087 c 0,3.13118 0.194804,3.49986 1.718609,3.25258 0.727206,-0.11801 0.977627,-0.0452 1.186283,0.34462 0.386318,0.72184 0.353244,0.7829 -0.651432,1.20269 -1.144697,0.47828 -1.647984,0.47398 -2.654117,-0.0226 z m 13.178089,0.0402 c -1.128582,-0.5109 -1.684604,-1.39709 -1.684604,-2.68493 0,-1.88354 1.494393,-2.76048 4.704095,-2.76048 1.609702,0 1.663695,-0.0216 1.489165,-0.59427 -0.462486,-1.51762 -2.127071,-1.99598 -3.848313,-1.10589 -0.622395,0.32186 -0.881283,0.34382 -1.175401,0.0997 -0.653988,-0.54277 -0.414259,-1.04973 0.745287,-1.57606 2.415141,-1.09627 5.359722,-0.4202 5.985254,1.3742 0.158112,0.45356 0.287475,2.29257 0.287475,4.08667 v 3.26203 h -0.924401 c -0.752871,0 -0.924402,-0.0995 -0.924402,-0.53614 0,-0.53201 -0.0059,-0.53178 -0.764857,0.0293 -0.957912,0.70821 -2.797267,0.90012 -3.889298,0.40579 z m 3.795781,-1.91345 c 0.436491,-0.27527 0.594258,-0.62673 0.594258,-1.32385 v -0.94908 l -1.720041,0.10953 c -1.995741,0.12707 -2.669044,0.5862 -2.404628,1.63972 0.288008,1.14752 2.112132,1.41809 3.530411,0.52368 z m 7.593304,2.02888 c -1.317361,-0.53918 -1.577281,-1.21517 -1.716747,-4.46476 -0.126337,-2.94363 -0.157805,-3.08061 -0.726316,-3.16135 -0.461876,-0.0656 -0.594259,-0.25681 -0.594259,-0.85837 0,-0.6495 0.106193,-0.77398 0.660288,-0.77398 0.624273,0 0.660287,-0.0793 0.660287,-1.45263 v -1.45263 h 0.924402 0.924403 v 1.45263 1.45263 h 1.188516 c 1.144498,0 1.188518,0.0293 1.188518,0.79234 0,0.76301 -0.04403,0.79234 -1.188518,0.79234 h -1.188516 v 2.7204 c 0,1.7637 0.111459,2.83184 0.316938,3.03732 0.401613,0.40162 1.705392,0.41308 1.950092,0.0171 0.119642,-0.19358 0.308988,-0.0766 0.534459,0.33015 0.488711,0.88169 0.465324,0.96216 -0.411339,1.4155 -0.848871,0.43898 -1.698096,0.49058 -2.522208,0.15328 z m 7.110344,-0.23485 c -1.940383,-0.91068 -2.968171,-2.96683 -2.625439,-5.25232 0.466122,-3.10835 4.304394,-4.78449 7.144609,-3.12 1.321843,0.77464 1.972405,1.98858 1.972405,3.6805 v 1.21463 h -3.565551 c -3.042192,0 -3.565552,0.06 -3.565552,0.40878 0,0.61559 1.304913,1.70019 2.085457,1.73337 1.280912,0.0544 2.006043,-0.08 2.731339,-0.50646 0.679769,-0.39968 0.746373,-0.39417 1.113549,0.0922 0.509636,0.67493 0.406666,0.9397 -0.592344,1.52316 -1.256902,0.73407 -3.396911,0.83712 -4.698473,0.22625 z m 4.50091,-5.65614 c -0.342698,-1.14761 -1.100195,-1.65072 -2.485346,-1.65072 -1.003834,0 -1.443961,0.1428 -1.973528,0.6403 -0.374861,0.35217 -0.681564,0.85728 -0.681564,1.12249 0,0.43491 0.2607,0.48218 2.658949,0.48218 2.633927,0 2.657276,-0.006 2.481489,-0.59425 z m -31.023702,1.25455 v -4.62202 h 1.05646 c 1.005604,0 1.056459,0.0395 1.056459,0.81971 v 0.8197 l 0.933593,-0.8197 c 1.283153,-1.12663 1.971672,-1.09739 1.971672,0.0837 0,0.78028 -0.103484,0.92615 -0.759177,1.07017 -0.417548,0.0918 -1.04152,0.46696 -1.386603,0.83388 -0.56714,0.60304 -0.636015,0.94432 -0.716824,3.55185 l -0.08939,2.88471 h -1.033094 -1.033091 z m -12.911132,-18.20835 c -2.390504,-0.77821 -4.026055,-3.12257 -4.04146,-5.79296 -0.01048,-1.82424 0.413329,-3.05366 1.495068,-4.33658 1.215533,-1.44159 2.615408,-2.02214 4.892927,-2.02919 1.693853,-0.005 2.160655,0.0996 3.221758,0.72334 1.620313,0.95248 1.726833,1.17693 0.93455,1.96922 l -0.662884,0.66287 -0.821568,-0.6074 c -1.144625,-0.84626 -3.513672,-0.99498 -4.784776,-0.30036 -1.377288,0.75263 -2.11292,1.98997 -2.11292,3.55397 0,2.5938 1.389231,4.16734 3.860119,4.37225 1.158115,0.096 1.600057,-0.002 2.562888,-0.56578 l 1.163452,-0.68183 0.603432,0.64234 c 0.513492,0.54658 0.551081,0.7054 0.252193,1.06554 -1.120841,1.35053 -4.430861,2.01859 -6.562779,1.32457 z m 11.194385,-0.10224 c -1.870612,-0.89225 -2.773207,-2.29076 -2.773207,-4.29689 0,-5.13084 7.222055,-6.58769 9.305741,-1.87717 0.93066,2.1039 0.148297,4.67377 -1.787004,5.86985 -1.297332,0.8018 -3.417409,0.93771 -4.74553,0.30421 z m 4.114097,-2.13797 c 0.641248,-0.64124 0.77203,-0.98922 0.77203,-2.05415 0,-1.46424 -0.456692,-2.26898 -1.63281,-2.87718 -2.15433,-1.11404 -4.602809,1.05377 -4.047231,3.5833 0.451819,2.05711 3.391516,2.86453 4.908011,1.34803 z m 18.040037,2.11649 c -1.109966,-0.67685 -1.421112,-1.73157 -1.421112,-4.81737 0,-2.42566 -0.03575,-2.60174 -0.52823,-2.60174 -0.410846,0 -0.528229,-0.17608 -0.528229,-0.79234 0,-0.61627 0.117383,-0.79235 0.528229,-0.79235 0.464899,0 0.52823,-0.17607 0.52823,-1.46857 v -1.46858 l 0.990432,0.0819 0.990431,0.0819 0.07983,1.38661 0.07983,1.38661 h 1.174715 c 1.129163,0 1.174714,0.0308 1.174714,0.79234 0,0.763 -0.04402,0.79235 -1.188516,0.79235 h -1.188517 v 2.74086 c 0,3.13118 0.194803,3.49986 1.718608,3.25258 0.727207,-0.11801 0.977627,-0.0452 1.186284,0.34462 0.37191,0.69492 0.355617,0.73235 -0.514743,1.18243 -1.045123,0.54045 -2.085493,0.50622 -3.081959,-0.10139 z m 7.982522,0.23008 c -2.560925,-0.76635 -3.801006,-4.11296 -2.511277,-6.77719 0.824901,-1.70401 2.408421,-2.55428 4.478233,-2.40456 2.523619,0.18254 3.951986,1.56777 4.156231,4.0307 l 0.121371,1.46358 h -3.616626 c -3.550661,0 -3.615086,0.0106 -3.532228,0.56777 0.214652,1.444 3.076922,2.15442 4.616304,1.14579 0.652736,-0.42769 0.70595,-0.42237 1.244375,0.12443 l 0.562478,0.57123 -0.615393,0.50557 c -1.13804,0.93492 -3.249457,1.26764 -4.903468,0.77268 z m 4.019716,-6.0844 c -0.75066,-2.15334 -4.258268,-1.91051 -5.056083,0.35005 -0.148601,0.42105 0.08182,0.4622 2.588056,0.4622 h 2.751177 z m 17.31452,5.85432 c -1.109966,-0.67685 -1.421111,-1.73157 -1.421111,-4.81737 0,-2.42566 -0.03575,-2.60174 -0.528229,-2.60174 -0.410848,0 -0.528231,-0.17608 -0.528231,-0.79234 0,-0.61627 0.117383,-0.79235 0.528231,-0.79235 0.464897,0 0.528229,-0.17607 0.528229,-1.46857 v -1.46858 l 0.979819,0.0819 0.979821,0.0819 -0.07499,1.38661 -0.07499,1.38661 h 1.340157 c 1.3074453,0 1.3401563,0.0189 1.3401563,0.77787 0,0.74061 -0.060092,0.78172 -1.2545463,0.85836 l -1.254546,0.0804 -0.06731,2.24498 c -0.08722,2.90895 0.220689,3.568 1.662817,3.55912 0.9456951,-0.006 1.6724125,0.41804 1.6975299,0.99008 0.01452,0.33077 -1.5171919,0.99727 -2.2894909,0.99623 -0.406686,-5.3e-4 -1.110173,-0.22706 -1.563298,-0.50336 z m -42.358927,-4.39773 v -4.63795 l 0.990432,0.0819 c 0.785009,0.065 1.007426,0.20134 1.072369,0.65748 l 0.08195,0.57549 0.974518,-0.66572 c 0.818151,-0.5589 1.199766,-0.64753 2.378273,-0.55236 2.569009,0.2075 3.201118,1.45517 3.211958,6.33981 l 0.0062,2.83923 h -1.056459 -1.05646 v -3.16938 c 0,-2.80361 -0.06019,-3.22955 -0.521511,-3.69089 -0.286832,-0.28683 -0.808865,-0.59362 -1.160072,-0.68178 -0.757773,-0.19018 -2.146888,0.46081 -2.536429,1.18867 -0.149567,0.27947 -0.271943,1.82331 -0.271943,3.43076 v 2.92262 h -1.05646 -1.056459 z m 29.316758,0 v -4.63795 l 0.990432,0.0819 c 0.78501,0.065 1.007426,0.20134 1.07237,0.65748 l 0.08195,0.57549 0.945347,-0.64153 c 1.667497,-1.13159 4.252609,-0.62987 5.127044,0.99506 0.191715,0.35625 0.377162,2.05867 0.447481,4.10792 l 0.120085,3.49951 h -1.090913 -1.090913 v -3.11957 c 0,-2.7687 -0.06023,-3.18423 -0.535541,-3.69441 -0.294546,-0.31616 -0.816578,-0.64537 -1.160069,-0.73158 -0.743299,-0.18656 -2.137076,0.47219 -2.522402,1.19218 -0.149567,0.27947 -0.271942,1.82331 -0.271942,3.43076 v 2.92262 h -1.05646 -1.056461 z"
       style="fill:#000000;stroke-width:1" />
  </g>
</svg>
