<?xml version="1.0" encoding="UTF-8" standalone="no"?>
<svg
   viewBox="0 0 24.708984 26.945219"
   height="26.945219mm"
   width="24.708984mm">
  <defs
     id="defs2">
    <linearGradient
       id="linearGradient1032">
      <stop
         id="stop1028"
         offset="0"
         style="stop-color:#333399;stop-opacity:1;" />
      <stop
         id="stop1030"
         offset="1"
         style="stop-color:#ff00cc;stop-opacity:0.85981309" />
    </linearGradient>
    <linearGradient
       gradientUnits="userSpaceOnUse"
       y2="31.728228"
       x2="65.472473"
       y1="50.166866"
       x1="57.84861"
       id="linearGradient1034"
       xlink:href="#linearGradient1032" />
    <linearGradient
       gradientTransform="matrix(3.7795276,0,0,3.7795276,-189.19913,-108.94914)"
       y2="31.728228"
       x2="65.472473"
       y1="50.166866"
       x1="57.84861"
       gradientUnits="userSpaceOnUse"
       id="linearGradient1058"
       xlink:href="#linearGradient1032" />
  </defs>
  <metadata
     id="metadata5">
    <rdf:RDF>
      <cc:Work
         rdf:about="">
        <dc:format>image/svg+xml</dc:format>
        <dc:type
           rdf:resource="http://purl.org/dc/dcmitype/StillImage" />
        <dc:title></dc:title>
      </cc:Work>
    </rdf:RDF>
  </metadata>
  <g
     transform="translate(-40.370417,-40.71962)"
     id="layer1">
    <g
       style="fill:url(#linearGradient1034);fill-opacity:1"
       transform="translate(-9.6885204,11.893494)"
       id="g835">
      <g
         id="text825"
         style="font-style:normal;font-weight:normal;font-size:8.59895802px;line-height:1000%;font-family:sans-serif;letter-spacing:0px;word-spacing:0px;fill:url(#linearGradient1034);fill-opacity:1;stroke:none;stroke-width:0.26458332px;stroke-linecap:butt;stroke-linejoin:miter;stroke-opacity:1"
         aria-label="doc">
        <path
           transform="matrix(0.26458333,0,0,0.26458333,50.058937,28.826126)"
           id="path837"
           d="M 49.007812 18.898438 C 46.127476 18.870847 45.33996 22.121497 43.916016 24.021484 C 43.013347 25.482926 42.112329 26.939833 41.160156 28.369141 C 39.051161 26.801075 36.086427 27.416389 33.695312 27.849609 C 30.932236 28.474127 28.129475 29.910746 26.75 32.503906 C 23.126197 33.546667 20.107039 36.556881 18.941406 40.130859 C 18.485622 44.363806 21.635669 48.541038 25.886719 49.164062 C 26.780192 49.844313 30.595091 48.916402 30.041016 49.693359 C 27.9105 51.17741 25.05096 52.068658 24.765625 55.226562 C 24.146304 57.92564 21.969665 59.769398 20.849609 62.199219 C 20.020476 65.175041 20.09254 68.852886 22.431641 71.080078 C 24.174018 72.845666 26.811253 73.836138 29.248047 72.974609 C 31.476657 72.633091 32.003793 71.531768 34.582031 70.859375 C 36.281878 70.164618 34.49318 73.53433 34.677734 74.75 C 34.506219 77.149966 33.037733 79.960141 34.943359 82.021484 C 37.093037 83.969612 40.41899 82.448249 42.289062 80.9375 C 43.257846 79.461198 44.780055 78.155544 44.740234 76.248047 C 44.087196 78.235973 45.646926 73.015346 45.65625 71.9375 C 47.732303 72.620241 49.290838 69.743434 50.882812 71.982422 C 52.58877 72.485447 54.722283 72.244318 56.021484 71.050781 C 56.68862 73.565172 59.611272 75.580434 61.507812 75.744141 C 60.291965 75.184226 63.502365 76.5691 64.222656 76.054688 C 66.825526 75.494603 68.591678 72.82509 69.117188 70.349609 C 69.519023 68.886944 70.056358 66.619338 69.980469 67.222656 C 71.173681 65.079853 71.453155 62.181775 71.005859 60.013672 C 71.266004 57.348844 69.893593 54.898525 68.363281 52.882812 C 67.371802 51.417784 65.064881 50.550205 67.300781 49.279297 C 68.405798 47.84757 69.939265 47.425616 70.931641 45.632812 C 72.474553 44.175219 70.644908 41.498871 70.638672 40.917969 C 73.644417 40.362877 75.627467 36.447217 73.771484 33.785156 C 72.698737 31.513184 71.102763 29.175891 68.320312 29.050781 C 65.980793 29.279783 62.982424 29.020197 61.527344 31.355469 C 60.503466 32.623323 59.897405 34.040569 59.378906 31.888672 C 59.016374 30.35356 56.09339 29.687505 57.173828 29.916016 C 55.876422 28.519949 51.470346 29.273571 54.152344 26.941406 C 55.167653 24.63538 54.063292 21.045022 51.728516 19.839844 C 50.866613 19.426477 49.99103 18.905645 49.007812 18.898438 z M 48.548828 22.255859 C 48.743827 22.320867 48.907109 22.384236 49.037109 22.449219 C 49.188769 22.514227 49.57869 22.710165 50.207031 23.035156 C 50.272039 23.338491 50.325827 23.653517 50.369141 23.978516 C 50.412479 24.303517 50.456661 24.61659 50.5 24.919922 L 51.083984 25.017578 C 49.523984 27.140912 47.996953 29.274922 46.501953 31.419922 C 45.02862 33.543253 43.60914 35.731041 42.244141 37.984375 C 41.65914 38.677709 41.063698 39.371121 40.457031 40.064453 C 39.872031 40.757787 39.330364 41.483853 38.832031 42.242188 C 38.637033 42.567186 38.431511 42.924454 38.214844 43.314453 C 37.998176 43.682788 37.857967 44.063126 37.792969 44.453125 C 37.61964 44.604785 37.500555 44.973588 37.435547 45.558594 C 37.370539 46.143594 37.337891 46.500859 37.337891 46.630859 L 37.337891 47.572266 L 37.337891 48.482422 C 36.731224 48.439083 36.264452 48.417969 35.939453 48.417969 C 35.896115 48.461307 35.765491 48.503562 35.548828 48.546875 C 35.35383 48.590214 35.094533 48.678603 34.769531 48.808594 C 34.162867 48.201927 33.78448 47.604532 33.632812 47.019531 C 33.481154 46.434533 33.362068 45.720002 33.275391 44.875 C 32.560392 44.875 31.920755 45.015207 31.357422 45.296875 C 30.815755 45.556874 30.241433 45.827707 29.634766 46.109375 C 28.486432 46.239366 27.326248 46.185603 26.15625 45.947266 C 24.986249 45.708929 23.979767 45.188382 23.134766 44.386719 C 22.224766 43.238385 21.790651 42.005259 21.833984 40.683594 C 21.985644 40.423592 22.137389 40.152759 22.289062 39.871094 C 22.462392 39.589426 22.63721 39.307056 22.810547 39.025391 C 23.633879 37.85539 24.705676 36.912267 26.027344 36.197266 C 26.417343 36.067275 26.807266 35.927066 27.197266 35.775391 C 27.587265 35.623731 27.977186 35.471985 28.367188 35.320312 C 28.908853 34.323645 29.504299 33.5438 30.154297 32.980469 C 30.804298 32.417135 31.660989 31.917708 32.722656 31.484375 C 33.047655 31.419367 33.3838 31.32335 33.730469 31.193359 C 34.098801 31.063369 34.465652 30.998047 34.833984 30.998047 C 34.963975 30.868056 35.570953 30.791201 36.654297 30.769531 C 37.73763 30.747862 38.398387 30.792044 38.636719 30.900391 C 38.680057 31.07372 38.745379 31.213927 38.832031 31.322266 C 38.918708 31.278927 39.037793 31.257812 39.189453 31.257812 C 39.254461 31.842813 39.362012 32.428672 39.513672 33.013672 C 39.665332 33.59867 39.774836 34.171041 39.839844 34.734375 C 39.991504 34.799383 40.241217 34.897353 40.587891 35.027344 C 40.587891 34.875684 40.597471 34.768133 40.619141 34.703125 C 41.919139 32.558127 43.350156 30.368386 44.910156 28.136719 L 46.730469 25.212891 C 47.337136 24.216224 47.942161 23.230862 48.548828 22.255859 z M 52.744141 31.746094 C 52.787479 31.85444 52.829708 31.950457 52.873047 32.037109 C 52.916385 32.123787 52.972127 32.210223 53.037109 32.296875 C 53.492109 32.253536 53.968464 32.286185 54.466797 32.394531 C 54.986797 32.502878 55.409376 32.752591 55.734375 33.142578 L 55.798828 33.142578 C 55.907149 33.315907 56.070429 33.554085 56.287109 33.857422 C 56.547108 34.464089 56.675781 35.082604 56.675781 35.710938 C 56.675781 36.33927 56.633552 36.967369 56.546875 37.595703 C 56.308538 37.899035 56.079944 38.202527 55.863281 38.505859 C 55.646614 38.809194 55.441092 39.112683 55.246094 39.416016 C 54.487762 40.62935 54.032527 41.712683 53.880859 42.666016 C 53.750869 43.619349 53.372485 44.723801 52.744141 45.980469 C 52.484142 46.002138 51.984715 46.142348 51.248047 46.402344 C 50.511382 46.662345 50.035027 46.814088 49.818359 46.857422 C 49.601692 47.139087 49.265547 47.377265 48.810547 47.572266 C 48.355547 47.745595 48.11737 47.855099 48.095703 47.898438 C 47.424038 48.115104 46.655731 48.287968 45.789062 48.417969 C 44.922398 48.547959 44.250103 48.298246 43.773438 47.669922 L 43.416016 47.3125 L 43.091797 46.955078 C 42.983476 46.781749 42.820196 46.543574 42.603516 46.240234 C 42.343517 45.655237 42.203307 45.048256 42.181641 44.419922 C 42.181641 43.791588 42.246963 43.151954 42.376953 42.501953 C 42.376953 41.656954 43.047293 40.302785 44.390625 38.439453 C 45.755627 36.576118 46.850496 34.832032 47.673828 33.207031 C 47.912165 33.207031 48.138806 33.230099 48.355469 33.273438 C 48.593806 33.316775 48.831984 33.305242 49.070312 33.240234 C 49.373647 32.850235 49.611825 32.558282 49.785156 32.363281 C 50.066824 32.276604 50.38185 32.243956 50.728516 32.265625 L 50.761719 32.232422 L 50.792969 32.199219 C 50.987967 32.134211 51.162786 32.091982 51.314453 32.070312 C 51.487782 32.026975 51.964137 31.919423 52.744141 31.746094 z M 66.710938 32.330078 C 67.274268 32.308409 67.979217 32.460152 68.824219 32.785156 C 69.062556 33.001824 69.431359 33.56461 69.929688 34.474609 C 70.449686 35.362942 70.74164 35.969923 70.806641 36.294922 L 70.611328 36.880859 L 69.765625 37.822266 L 68.824219 37.498047 L 69.050781 38.246094 C 68.747446 38.181086 68.434374 38.10423 68.109375 38.017578 C 67.80604 37.930901 67.458359 37.746499 67.068359 37.464844 C 66.74336 37.356497 66.311198 37.248946 65.769531 37.140625 C 65.249531 37.032304 64.826955 36.978516 64.501953 36.978516 C 64.046953 37.563516 63.591718 37.986092 63.136719 38.246094 C 62.703386 38.506092 62.259686 38.905599 61.804688 39.447266 C 61.219687 40.335598 60.601173 41.376692 59.951172 42.568359 C 59.322841 43.73836 59.138439 44.885052 59.398438 46.011719 C 59.788436 46.011719 60.222552 45.936816 60.699219 45.785156 C 61.175885 45.611827 61.619581 45.481201 62.03125 45.394531 C 62.096258 45.004529 62.14044 44.799011 62.162109 44.777344 C 62.638778 44.452345 63.276459 44.127733 64.078125 43.802734 C 64.901457 43.456066 65.508436 43.054609 65.898438 42.599609 L 66.255859 43.087891 L 67.037109 43.087891 L 67.849609 43.671875 L 67.394531 44.484375 C 67.351193 44.549383 67.122598 44.724201 66.710938 45.005859 C 66.299269 45.265861 65.986196 45.536694 65.769531 45.818359 C 64.751198 46.793359 64.1231 47.388801 63.884766 47.605469 C 63.668098 47.822136 63.397265 48.102553 63.072266 48.449219 C 62.920606 48.492557 62.6267 48.548299 62.193359 48.613281 C 61.760026 48.678289 61.521849 48.743611 61.478516 48.808594 C 61.240179 48.830263 61.023121 48.851378 60.828125 48.873047 L 59.269531 48.873047 C 59.182854 48.569715 59.117532 48.352657 59.074219 48.222656 C 58.532552 48.157648 58.002419 48.017441 57.482422 47.800781 C 56.962422 47.584114 56.582084 47.21531 56.34375 46.695312 C 56.322081 46.673644 56.289432 46.662109 56.246094 46.662109 C 56.181086 46.467111 56.062001 46.175158 55.888672 45.785156 C 55.672004 44.571822 55.856406 43.20612 56.441406 41.689453 C 56.744739 41.429454 57.036691 41.158621 57.318359 40.876953 C 57.621692 40.573621 57.925181 40.281666 58.228516 40 C 59.311847 38.873333 60.341404 37.703569 61.316406 36.490234 C 62.313073 35.255233 63.298438 34.020155 64.273438 32.785156 C 64.533435 32.828495 64.78315 32.903397 65.021484 33.011719 C 65.259821 33.098396 65.509535 33.142578 65.769531 33.142578 C 65.921191 33.012588 66.072937 32.881961 66.224609 32.751953 C 66.376269 32.600293 66.537596 32.460086 66.710938 32.330078 z M 34.201172 34.085938 C 33.854505 34.085938 33.490494 34.160833 33.111328 34.3125 C 32.37466 34.594166 31.650548 35.016745 30.935547 35.580078 C 30.242215 36.143412 29.602578 36.761926 29.017578 37.433594 C 28.454245 38.083594 28.031666 38.625261 27.75 39.058594 C 27.489999 39.600261 27.338255 39.924872 27.294922 40.033203 C 27.251583 40.11988 27.230469 40.194783 27.230469 40.259766 C 27.078809 40.411425 27.001953 40.682259 27.001953 41.072266 C 27.023622 41.462265 27.044737 41.754218 27.066406 41.949219 C 27.088076 41.992557 27.111144 42.048299 27.132812 42.113281 C 27.154482 42.15662 27.229384 42.329486 27.359375 42.632812 C 27.532704 42.676151 27.761298 42.643503 28.042969 42.535156 C 28.324637 42.405166 28.551278 42.307194 28.724609 42.242188 C 28.746279 42.220518 28.942214 42.178289 29.310547 42.113281 C 29.700546 42.048273 29.906068 41.992532 29.927734 41.949219 C 30.317734 41.949219 30.675001 41.960753 31 41.982422 C 31.346668 41.982422 31.659741 41.830676 31.941406 41.527344 C 32.223074 41.375684 32.516981 41.24506 32.820312 41.136719 C 33.145312 41.028372 33.46992 40.909287 33.794922 40.779297 L 33.794922 40.162109 L 33.794922 39.511719 C 33.686601 39.446711 33.523321 39.371808 33.306641 39.285156 C 33.219989 39.111827 33.122018 38.894769 33.013672 38.634766 C 32.905325 38.374767 32.916859 38.148126 33.046875 37.953125 C 33.263543 37.779796 33.578571 37.551202 33.990234 37.269531 C 34.401903 36.966199 34.812943 36.653127 35.224609 36.328125 L 35.224609 35.808594 C 35.246279 35.635265 35.257812 35.450863 35.257812 35.255859 L 35.257812 34.865234 L 35.257812 34.474609 C 35.214475 34.387932 35.191406 34.334144 35.191406 34.3125 C 34.877239 34.160833 34.547838 34.085938 34.201172 34.085938 z M 52.320312 36.978516 L 51.931641 38.082031 C 51.649975 38.082031 51.411798 38.233777 51.216797 38.537109 C 51.021798 38.818777 50.760548 39.101148 50.435547 39.382812 C 50.283887 39.382812 50.155214 39.025545 50.046875 38.310547 C 49.938529 37.573879 49.775249 37.205078 49.558594 37.205078 C 48.995263 37.638411 48.442057 37.995676 47.900391 38.277344 C 47.380391 38.559009 46.980887 38.981588 46.699219 39.544922 C 46.482551 40.108255 46.244374 40.736353 45.984375 41.429688 C 45.724376 42.101351 45.561094 42.773646 45.496094 43.445312 C 45.799426 44.290312 46.222005 44.712891 46.763672 44.712891 C 47.327005 44.691221 48.008881 44.670106 48.810547 44.648438 C 49.113882 44.43177 49.417371 44.203176 49.720703 43.964844 C 50.024038 43.726507 50.404375 43.401895 50.859375 42.990234 C 51.032704 42.795236 51.259345 42.416852 51.541016 41.853516 C 51.822681 41.268515 52.039739 40.8344 52.191406 40.552734 C 52.408074 40.011068 52.592476 39.480937 52.744141 38.960938 C 52.91747 38.419271 53.046141 37.78922 53.132812 37.074219 L 52.320312 36.978516 z M 40.841797 48.912109 C 41.45532 50.260743 45.296238 51.553058 42.185547 51.191406 C 40.931496 51.433069 36.846453 52.349669 39.751953 50.859375 C 40.386574 50.412049 40.723369 49.658974 40.841797 48.912109 z M 34.714844 51.109375 C 35.287656 51.105313 35.768203 51.31383 36.158203 51.736328 L 36.515625 52.0625 C 36.753962 52.279168 36.884588 52.386719 36.90625 52.386719 C 37.122918 52.690054 37.295781 52.907111 37.425781 53.037109 C 37.707447 53.62211 37.882265 54.229088 37.947266 54.857422 C 38.012273 55.464089 38.012273 56.071067 37.947266 56.677734 C 37.947266 57.111067 37.730208 57.781407 37.296875 58.691406 C 36.885209 59.601406 36.385782 60.609843 35.800781 61.714844 C 35.237448 62.798177 34.653542 63.90263 34.046875 65.029297 C 33.440208 66.155964 32.973436 67.120209 32.648438 67.921875 C 32.4101 67.965214 32.118148 68.030536 31.771484 68.117188 C 31.424819 68.203864 31.142449 68.278767 30.925781 68.34375 C 30.340781 69.253752 29.343879 69.720521 27.935547 69.742188 C 26.527214 69.742187 25.476537 69.352267 24.783203 68.572266 L 24.71875 68.572266 C 24.632073 68.463944 24.459207 68.246887 24.199219 67.921875 C 23.874217 67.358541 23.689818 66.774636 23.646484 66.167969 C 23.603146 65.539637 23.61468 64.909584 23.679688 64.28125 C 23.853016 63.977915 24.02588 63.676379 24.199219 63.373047 L 24.783203 62.396484 C 25.433204 61.161486 25.921095 59.786198 26.246094 58.269531 C 26.571093 56.752862 27.005208 55.344921 27.546875 54.044922 C 27.763543 54.044922 28.186119 53.762552 28.814453 53.199219 C 29.442787 52.614218 29.874949 52.28961 30.113281 52.224609 C 30.28661 51.942944 30.622755 51.823859 31.121094 51.867188 C 31.619427 51.910525 31.89026 51.898992 31.933594 51.833984 C 32.561928 51.573983 33.287996 51.358879 34.111328 51.185547 C 34.322578 51.136797 34.523906 51.110729 34.714844 51.109375 z M 57.1875 51.154297 C 58.478623 52.031525 60.957569 51.777575 58.933594 53.564453 C 58.372924 55.121751 58.374221 54.802146 58.09375 53.630859 C 58.441443 54.307028 57.79231 51.919882 57.1875 51.154297 z M 49.658203 51.378906 C 50.26487 51.747241 50.925624 51.987372 51.640625 52.095703 C 52.095625 51.835704 52.506667 51.7262 52.875 51.769531 C 53.199999 51.96453 53.438176 52.116276 53.589844 52.224609 C 53.763173 52.332931 54.176166 52.603764 54.826172 53.037109 C 54.847841 53.232108 54.868956 53.372315 54.890625 53.458984 C 54.933964 53.545662 54.987727 53.7416 55.052734 54.044922 C 55.096073 54.434921 55.119141 54.673099 55.119141 54.759766 C 55.14081 54.824773 55.171505 54.868956 55.214844 54.890625 C 55.214844 55.258958 55.237911 55.810207 55.28125 56.546875 C 54.566249 57.846874 53.893956 59.17992 53.265625 60.544922 C 52.658958 61.888254 52.03086 63.209767 51.380859 64.509766 C 51.012527 65.094766 50.589948 65.647969 50.113281 66.167969 C 49.658282 66.666302 49.181929 67.142657 48.683594 67.597656 C 47.881928 68.182657 47.102084 68.593697 46.34375 68.832031 C 45.607085 69.048699 44.783046 68.875834 43.873047 68.3125 L 43.515625 68.3125 L 43.191406 68.3125 C 43.018077 69.200833 42.908573 69.754038 42.865234 69.970703 C 42.821896 70.187371 42.779667 70.458204 42.736328 70.783203 C 42.69299 70.804872 42.648807 70.933543 42.605469 71.171875 C 42.56213 71.410212 42.541016 71.540838 42.541016 71.5625 C 42.432694 72.1475 42.302068 72.742942 42.150391 73.349609 C 42.0204 73.956276 41.92243 74.551718 41.857422 75.136719 C 41.749101 75.266709 41.674198 75.516423 41.630859 75.884766 L 41.533203 76.664062 C 41.403213 76.859061 41.132379 77.216328 40.720703 77.736328 C 40.309037 78.277995 39.972892 78.744764 39.712891 79.134766 C 39.647883 79.113096 39.561446 79.068914 39.453125 79.003906 C 39.366448 78.960568 39.235822 78.918339 39.0625 78.875 L 38.705078 78.875 L 38.414062 78.875 C 38.327386 79.134999 38.271669 79.328984 38.25 79.458984 C 38.141654 79.480654 38.034103 79.503721 37.925781 79.525391 C 37.839104 79.568729 37.752668 79.610958 37.666016 79.654297 L 37.601562 79.720703 L 37.503906 79.720703 L 37.470703 79.720703 L 37.470703 79.71875 L 37.470703 79.525391 L 37.470703 79.361328 C 37.470703 79.339659 37.491818 79.308964 37.535156 79.265625 C 37.535156 78.983959 37.567806 78.690051 37.632812 78.386719 C 37.69782 78.083384 37.83803 77.217109 38.054688 75.787109 C 38.076356 75.76544 38.174327 75.148879 38.347656 73.935547 C 38.542655 72.722215 38.66174 72.103698 38.705078 72.082031 C 38.856738 70.803697 39.020018 69.503306 39.193359 68.181641 C 39.388358 66.859973 39.549687 65.549999 39.679688 64.25 C 40.004686 63.665 40.200625 63.307735 40.265625 63.177734 C 40.330633 63.026075 40.384396 62.928104 40.427734 62.884766 L 40.427734 62.625 L 40.427734 62.332031 C 40.384396 62.310362 40.330633 62.223925 40.265625 62.072266 C 40.200617 61.898936 39.983559 61.432168 39.615234 60.673828 C 39.550227 60.543838 39.475324 60.370972 39.388672 60.154297 C 39.30202 59.482629 39.215583 58.81229 39.128906 58.140625 C 39.042229 57.447291 38.965373 56.763464 38.900391 56.091797 C 39.07372 56.026789 39.246585 55.821268 39.419922 55.474609 C 39.61492 55.127944 39.79932 54.922422 39.972656 54.857422 C 40.492656 54.662423 41.001667 54.597102 41.5 54.662109 C 41.998333 54.727117 42.507344 54.640681 43.027344 54.402344 C 43.157334 54.792343 43.255306 55.105418 43.320312 55.34375 C 43.40699 55.560418 43.558733 55.929219 43.775391 56.449219 C 43.92705 56.449219 44.132572 56.383897 44.392578 56.253906 C 44.977578 55.343907 45.649871 54.510288 46.408203 53.751953 C 47.188204 52.993621 48.021824 52.290626 48.910156 51.640625 C 49.170158 51.467296 49.419871 51.378906 49.658203 51.378906 z M 64.939453 53.427734 C 64.961122 53.817734 65.145524 54.077031 65.492188 54.207031 C 65.838852 54.315378 66.044375 54.565091 66.109375 54.955078 L 66.238281 55.279297 L 66.369141 55.605469 C 66.434148 55.735459 66.597431 56.015876 66.857422 56.449219 C 67.13909 56.882552 67.311953 57.153385 67.376953 57.261719 C 67.85362 58.020051 68.026485 58.799895 67.896484 59.601562 C 67.788138 60.381561 67.841901 61.032734 68.058594 61.552734 C 68.123602 62.202735 68.114021 62.732865 68.027344 63.144531 C 67.940667 63.556197 67.756267 64.282266 67.474609 65.322266 L 67.410156 65.257812 C 67.388487 65.236144 67.376953 65.203495 67.376953 65.160156 C 66.943618 66.416821 66.586352 67.542397 66.304688 68.539062 C 66.23968 68.885731 66.162824 69.233412 66.076172 69.580078 C 65.989495 69.926744 65.914592 70.262889 65.849609 70.587891 C 65.481274 71.064557 65.220024 71.508256 65.068359 71.919922 C 64.938369 72.309921 64.581104 72.601874 63.996094 72.796875 C 63.649428 72.840214 63.390131 72.884396 63.216797 72.927734 C 63.216797 72.884396 63.195682 72.861328 63.152344 72.861328 C 62.675677 72.904667 62.230026 72.785582 61.818359 72.503906 C 61.428357 72.222241 61.103749 71.897632 60.84375 71.529297 C 60.69209 71.594305 60.507688 71.638487 60.291016 71.660156 C 59.901014 71.031822 59.662836 70.651482 59.576172 70.521484 C 59.489495 70.391494 59.414592 70.230167 59.349609 70.035156 C 59.371279 69.970148 59.305957 69.77421 59.154297 69.449219 C 59.024306 69.102553 58.949404 68.864376 58.927734 68.734375 C 59.036056 68.344376 59.078285 68.269474 59.056641 68.507812 C 59.056641 68.74615 59.187264 68.279378 59.447266 67.109375 C 59.555612 66.827709 59.620934 66.481981 59.642578 66.070312 C 59.664247 65.658647 59.696896 65.420469 59.740234 65.355469 L 60.097656 64.640625 L 60.910156 64.998047 L 61.234375 65.548828 L 61.753906 65.615234 C 61.580577 66.070234 61.580577 66.415962 61.753906 66.654297 C 61.948905 66.892634 62.035341 67.272974 62.013672 67.792969 C 62.013672 67.814638 61.873462 67.933723 61.591797 68.150391 C 61.721787 68.47539 61.819758 68.853776 61.884766 69.287109 C 61.971443 69.698776 62.111652 70.046457 62.306641 70.328125 C 63.238307 70.024793 63.845285 69.385158 64.126953 68.410156 C 64.408619 67.435157 64.744766 66.536223 65.134766 65.712891 C 65.308095 65.257891 65.221658 64.77 64.875 64.25 C 64.528332 63.708333 64.409247 63.208906 64.517578 62.753906 C 64.604255 62.212239 64.548514 61.90875 64.353516 61.84375 C 64.158517 61.757073 63.931876 61.303791 63.671875 60.480469 C 63.368543 60.783801 63.151485 60.695411 63.021484 60.21875 C 62.891494 59.720417 62.783943 59.559088 62.697266 59.732422 C 62.502267 59.79743 62.10081 60.110505 61.494141 60.673828 C 60.887474 61.237162 60.61664 61.388905 60.681641 61.128906 C 60.464973 61.107237 60.182602 61.335831 59.835938 61.8125 C 59.510938 62.2675 59.186327 62.624764 58.861328 62.884766 C 58.774651 63.079764 58.342491 63.773176 57.5625 64.964844 C 56.804168 66.156511 56.348933 66.817268 56.197266 66.947266 C 55.633932 67.077256 55.286251 67.065722 55.15625 66.914062 C 55.047929 66.740734 54.973025 66.654297 54.929688 66.654297 C 54.973025 66.654297 54.658001 67.30547 53.986328 68.605469 C 53.726327 68.822136 53.455494 68.929688 53.173828 68.929688 L 52.199219 68.929688 C 51.93922 68.453021 51.84125 68.074637 51.90625 67.792969 C 51.971258 67.511303 52.025046 67.077187 52.068359 66.492188 C 52.19835 66.167188 52.718897 65.527554 53.628906 64.574219 C 54.560575 63.620886 55.54594 62.927474 56.585938 62.494141 C 56.650944 62.472471 56.662479 62.376454 56.619141 62.203125 C 56.597471 62.029796 56.760751 61.833857 57.107422 61.617188 C 57.129091 61.595518 57.323076 61.345805 57.691406 60.869141 C 58.081406 60.370807 58.298463 60.090391 58.341797 60.025391 C 59.186798 59.050391 59.740001 58.595156 60 58.660156 C 60.260001 58.703495 60.573074 58.259796 60.941406 57.328125 C 61.136405 57.219779 61.428357 56.678112 61.818359 55.703125 C 62.230026 54.728125 62.523931 54.174923 62.697266 54.044922 C 63.065598 53.914931 63.422865 53.795846 63.769531 53.6875 C 64.137864 53.557509 64.527784 53.471073 64.939453 53.427734 z M 50.892578 54.662109 C 49.744244 54.857108 48.618672 55.247028 47.513672 55.832031 C 46.408672 56.417032 45.715259 57.327502 45.433594 58.5625 C 45.260265 58.735829 45.183409 59.060438 45.205078 59.537109 C 45.226747 59.992109 45.238281 60.316718 45.238281 60.511719 L 45.238281 60.869141 L 45.238281 61.128906 L 45.238281 61.195312 C 45.238281 61.390311 45.27093 61.605416 45.335938 61.84375 C 45.422614 62.060418 45.574361 62.20258 45.791016 62.267578 C 46.029353 61.920912 46.136904 61.596301 46.115234 61.292969 L 46.115234 60.123047 C 46.180242 60.166385 46.331989 60.318129 46.570312 60.578125 C 46.895314 60.751454 47.231459 60.814823 47.578125 60.771484 C 47.946458 60.728146 48.315261 60.695497 48.683594 60.673828 C 48.445257 60.933829 48.281975 61.11823 48.195312 61.226562 C 48.130306 61.334884 47.968976 61.563478 47.708984 61.910156 C 47.470647 62.408489 47.318904 62.819532 47.253906 63.144531 C 47.210568 63.469533 47.177919 63.913232 47.15625 64.476562 C 47.762917 64.476562 48.239269 64.380545 48.585938 64.185547 C 48.932602 63.968879 49.301407 63.600078 49.691406 63.080078 C 49.929743 62.560078 50.06995 62.256589 50.113281 62.169922 C 50.15662 62.083245 50.177734 62.006389 50.177734 61.941406 C 50.177734 61.919737 50.198849 61.8333 50.242188 61.681641 C 50.285525 61.529981 50.329708 61.43201 50.373047 61.388672 C 50.373047 61.193673 50.405695 60.847943 50.470703 60.349609 C 50.55738 59.829609 50.655351 59.52612 50.763672 59.439453 C 50.80701 58.746119 50.828125 58.258228 50.828125 57.976562 C 50.849794 57.694895 50.893977 57.057213 50.958984 56.060547 L 50.958984 55.701172 L 50.958984 55.3125 C 50.937315 55.204179 50.914247 55.106208 50.892578 55.019531 L 50.892578 54.662109 z M 33.429688 54.890625 C 32.909687 54.933964 32.258517 54.987752 31.478516 55.052734 C 31.175183 55.312733 30.883228 55.57203 30.601562 55.832031 C 30.319895 56.09203 29.983749 56.439714 29.59375 56.873047 C 29.44209 57.068045 29.248105 57.457966 29.009766 58.042969 C 28.793098 58.627969 28.618282 59.060131 28.488281 59.341797 C 28.293283 59.90513 27.968674 60.815598 27.513672 62.072266 C 27.058672 63.328931 26.820495 64.293176 26.798828 64.964844 L 27.611328 64.998047 C 28.261329 65.43138 28.847188 65.560053 29.367188 65.386719 C 29.908853 65.21339 30.212343 64.932973 30.277344 64.542969 C 30.797344 64.109636 31.467683 63.372031 32.291016 62.332031 C 33.11435 61.292031 33.656017 60.479532 33.916016 59.894531 C 34.089345 59.352864 34.273744 58.745884 34.46875 58.074219 C 34.663748 57.380885 34.782833 56.687475 34.826172 55.994141 C 34.436173 55.214142 33.971353 54.847291 33.429688 54.890625 z M 62.021484 75.900391 L 62.308594 75.982422 L 62.021484 75.900391 z "
           style="font-style:normal;font-variant:normal;font-weight:normal;font-stretch:normal;font-family:'Daft Font';-inkscape-font-specification:'Daft Font';fill:url(#linearGradient1058);fill-opacity:1;stroke-width:0.99999994px" />
      </g>
    </g>
  </g>
</svg>
